{
.appVersion = "1352";
DisplayStrings = (
"/ra-deva/halant-deva/a-deva/eCandraMatra-deva/candraBindu-deva/space",
"/breve",
"I/macron.cap/Imacron",
"/macron.cap/Imacron",
"¯",
"\"",
"/dv_MatraAaReph",
"/dv_RephAnusvara",
"/caroncomb/Tcaron",
"Å",
"/ring.cap/Uring",
g,
"¸",
"/cedillacomb",
"/Tcedilla s/scedilla t/tcedilla",
"/commaaccentcomb",
"/commaturnedabovecomb",
"/zero.osf",
"/zero.osf 0",
"/two.osf",
"/three.osf",
"/four.osf",
"/five.osf",
"/six.osf",
"/seven.osf",
"/eight.osf",
"/nine.osf",
"O/six.tf O",
"/eLongCandra-deva",
"/dv_GRa",
"/dv_KR.half",
"/dv_JJYa"
);
classes = (
{
automatic = 1;
code = "A Aacute Abreve Acircumflex Adieresis Agrave Amacron Aogonek Aring Atilde AE AEacute B Bdotaccent C Cacute Ccaron Ccedilla Ccircumflex Cdotaccent D DZ DZcaron Eth Dcaron Dcroat Ddotaccent Dz Dzcaron E Eacute Ebreve Ecaron Ecircumflex Edieresis Edotaccent Egrave Emacron Eogonek F Fdotaccent G Gbreve Gcircumflex Gcommaaccent Gdotaccent H Hbar Hcircumflex I IJ Iacute Ibreve Icircumflex Idieresis Idotaccent Igrave Imacron Iogonek Itilde J Jcircumflex K Kcommaaccent L LJ Lacute Lcaron Lcommaaccent Ldot Lj Lslash M Mdotaccent N NJ Nacute Ncaron Ncommaaccent Eng Nj Ntilde O Oacute Obreve Ocircumflex Odieresis Ograve Ohungarumlaut Omacron Oslash Otilde OE P Pdotaccent Thorn Q R Racute Rcaron Rcommaaccent S Sacute Scaron Scedilla Scircumflex Scommaaccent Sdotaccent Schwa T Tbar Tcaron Tcedilla Tcommaaccent Tdotaccent U Uacute Ubreve Ucircumflex Udieresis Ugrave Uhungarumlaut Umacron Uogonek Uring Utilde V W Wacute Wcircumflex Wdieresis Wgrave X Y Yacute Ycircumflex Ydieresis Ygrave Z Zacute Zcaron Zdotaccent I.uc";
name = Uppercase;
},
{
automatic = 1;
code = "iMatra-deva";
name = DevaIMatras;
},
{
automatic = 1;

glyphs = (
{
glyphname = A;
lastChange = "2018-03-22 20:19:00 +0000";
layers = (
{
anchors = (
{
name = bottom;
position = "{286, 0}";
},
{
name = ogonek;
position = "{514, 10}";
},
{
name = top;
position = "{286, 680}";
}
);
layerId = "129A270E-4E02-45CC-9025-B4018D2BAD31";
paths = (
{
closed = 1;
nodes = (
"139 0 LINE SMOOTH",
"163 0 OFFCURVE",
"173 6 OFFCURVE",
"173 22 CURVE SMOOTH",
"173 54 OFFCURVE",
"106 35 OFFCURVE",
"105 72 CURVE",
"148 197 LINE",
"239 197 OFFCURVE",
"307 196 OFFCURVE",
"396 196 CURVE",
"410 150 OFFCURVE",
"426 102 OFFCURVE",
"444 50 CURVE",
"406 33 LINE SMOOTH",
"398 30 OFFCURVE",
"394 25 OFFCURVE",
"394 20 CURVE SMOOTH",
"394 12 OFFCURVE",
"397 0 OFFCURVE",
"413 0 CURVE SMOOTH",
"565 0 LINE SMOOTH",
"589 0 OFFCURVE",
"599 16 OFFCURVE",
"599 22 CURVE SMOOTH",
"599 35 OFFCURVE",
"592 38 OFFCURVE",
"580 41 CURVE SMOOTH",
"550 49 OFFCURVE",
"544 52 OFFCURVE",
"532 79 CURVE",
"446 308 OFFCURVE",
"417 427 OFFCURVE",
"322 663 CURVE",
"313 666 OFFCURVE",
"304 667 OFFCURVE",
"297 667 CURVE SMOOTH",
"269 667 OFFCURVE",
"250 649 OFFCURVE",
"234 615 CURVE",
"30 50 LINE",
"16 43 OFFCURVE",
"-34 36 OFFCURVE",
"-34 20 CURVE SMOOTH",
"-34 12 OFFCURVE",
"-31 0 OFFCURVE",
"-15 0 CURVE {name = hr00;}"
);
},
{
closed = 1;
nodes = (
"276 568 LINE",
"322 449 OFFCURVE",
"350 351 OFFCURVE",
"379 252 CURVE",
"305 252 OFFCURVE",
"249 254 OFFCURVE",
"167 254 CURVE"
);
}
);
width = 571;
}
);
unicode = 0041;
},
{
glyphname = Aogonek;
layers = (
{
layerId = "129A270E-4E02-45CC-9025-B4018D2BAD31";
paths = (
{
closed = 1;
nodes = (
"139 0 LINE SMOOTH",
"163 0 OFFCURVE",
"173 6 OFFCURVE",
"173 22 CURVE SMOOTH",
"173 54 OFFCURVE",
"106 35 OFFCURVE",
"105 72 CURVE",
"148 197 LINE",
"239 197 OFFCURVE",
"307 196 OFFCURVE",
"396 196 CURVE",
"410 150 OFFCURVE",
"426 102 OFFCURVE",
"444 50 CURVE",
"406 33 LINE SMOOTH",
"398 30 OFFCURVE",
"394 25 OFFCURVE",
"394 20 CURVE SMOOTH",
"394 12 OFFCURVE",
"397 0 OFFCURVE",
"413 0 CURVE SMOOTH",
"479 0 LINE",
"438 -23 OFFCURVE",
"402 -58 OFFCURVE",
"402 -113 CURVE SMOOTH",
"402 -172 OFFCURVE",
"451 -209 OFFCURVE",
"508 -209 CURVE SMOOTH",
"608 -209 OFFCURVE",
"619 -146 OFFCURVE",
"619 -136 CURVE SMOOTH",
"619 -131 OFFCURVE",
"614 -118 OFFCURVE",
"605 -118 CURVE SMOOTH",
"603 -118 OFFCURVE",
"602 -118 OFFCURVE",
"600 -119 CURVE SMOOTH",
"571 -136 OFFCURVE",
"548 -137 OFFCURVE",
"531 -137 CURVE SMOOTH",
"504 -137 OFFCURVE",
"493 -110 OFFCURVE",
"493 -95 CURVE SMOOTH",
"493 -49 OFFCURVE",
"513 -21 OFFCURVE",
"540 0 CURVE",
"565 0 LINE SMOOTH",
"589 0 OFFCURVE",
"599 16 OFFCURVE",
"599 22 CURVE SMOOTH",
"599 35 OFFCURVE",
"592 38 OFFCURVE",
"580 41 CURVE SMOOTH",
"550 49 OFFCURVE",
"544 52 OFFCURVE",
"532 79 CURVE",
"446 308 OFFCURVE",
"417 427 OFFCURVE",
"322 663 CURVE",
"313 666 OFFCURVE",
"304 667 OFFCURVE",
"297 667 CURVE SMOOTH",
"269 667 OFFCURVE",
"250 649 OFFCURVE",
"234 615 CURVE",
"30 50 LINE",
"16 43 OFFCURVE",
"-34 36 OFFCURVE",
"-34 20 CURVE SMOOTH",
"-34 12 OFFCURVE",
"-31 0 OFFCURVE",
"-15 0 CURVE {name = hr00;}"
);
},
{
closed = 1;
nodes = (
"276 568 LINE",
"322 449 OFFCURVE",
"350 351 OFFCURVE",
"379 252 CURVE",
"305 252 OFFCURVE",
"249 254 OFFCURVE",
"167 254 CURVE"
);
}
);
width = 571;
}
);
unicode = 0104;
},
{
glyphname = Aring;
lastChange = "2021-01-26 18:03:35 +0000";
layers = (
{
anchors = (
{
name = bottom;
position = "{286, 0}";
},
{
name = ogonek;
position = "{514, 10}";
},
{
name = top;
position = "{286, 680}";
}
);
layerId = "129A270E-4E02-45CC-9025-B4018D2BAD31";
paths = (
{
closed = 1;
nodes = (
"139 0 LINE SMOOTH",
"163 0 OFFCURVE",
"173 6 OFFCURVE",
"173 22 CURVE SMOOTH",
"173 54 OFFCURVE",
"106 35 OFFCURVE",
"105 72 CURVE",
"148 197 LINE",
"239 197 OFFCURVE",
"307 196 OFFCURVE",
"396 196 CURVE",
"410 150 OFFCURVE",
"426 102 OFFCURVE",
"444 50 CURVE",
"406 33 LINE SMOOTH",
"398 30 OFFCURVE",
"394 25 OFFCURVE",
"394 20 CURVE SMOOTH",
"394 12 OFFCURVE",
"397 0 OFFCURVE",
"413 0 CURVE SMOOTH",
"565 0 LINE SMOOTH",
"589 0 OFFCURVE",
"599 16 OFFCURVE",
"599 22 CURVE SMOOTH",
"599 35 OFFCURVE",
"592 38 OFFCURVE",
"580 41 CURVE SMOOTH",
"550 49 OFFCURVE",
"544 52 OFFCURVE",
"532 79 CURVE",
"446 308 OFFCURVE",
"417 427 OFFCURVE",
"322 663 CURVE",
"313 666 OFFCURVE",
"304 667 OFFCURVE",
"297 667 CURVE SMOOTH",
"269 667 OFFCURVE",
"250 649 OFFCURVE",
"234 615 CURVE",
"30 50 LINE",
"16 43 OFFCURVE",
"-34 36 OFFCURVE",
"-34 20 CURVE SMOOTH",
"-34 12 OFFCURVE",
"-31 0 OFFCURVE",
"-15 0 CURVE {name = hr00;}"
);
},
{
closed = 1;
nodes = (
"276 568 LINE",
"322 449 OFFCURVE",
"350 351 OFFCURVE",
"379 252 CURVE",
"305 252 OFFCURVE",
"249 254 OFFCURVE",
"167 254 CURVE"
);
},
{
closed = 1;
nodes = (
"371 636 OFFCURVE",
"430 695 OFFCURVE",
"430 773 CURVE SMOOTH",
"430 864 OFFCURVE",
"354 891 OFFCURVE",
"297 891 CURVE SMOOTH",
"201 891 OFFCURVE",
"138 835 OFFCURVE",
"138 759 CURVE SMOOTH",
"138 666 OFFCURVE",
"215 636 OFFCURVE",
"275 636 CURVE SMOOTH {name = hr00;}"
);
},
{
closed = 1;
nodes = (
"250 688 OFFCURVE",
"207 702 OFFCURVE",
"207 763 CURVE SMOOTH",
"207 808 OFFCURVE",
"244 841 OFFCURVE",
"290 841 CURVE SMOOTH",
"317 841 OFFCURVE",
"360 826 OFFCURVE",
"360 766 CURVE SMOOTH",
"360 721 OFFCURVE",
"328 692 OFFCURVE",
"286 688 CURVE SMOOTH",
"284 688 OFFCURVE",
"281 688 OFFCURVE",
"279 688 CURVE SMOOTH"
);
}
);
width = 571;
}
);
unicode = 00C5;
},
{
glyphname = AE;
layers = (
{
layerId = "129A270E-4E02-45CC-9025-B4018D2BAD31";
paths = (
{
closed = 1;
nodes = (
"4 12 OFFCURVE",
"7 0 OFFCURVE",
"23 0 CURVE SMOOTH",
"52 0 LINE",
"54 -1 OFFCURVE",
"56 -2 OFFCURVE",
"59 -2 CURVE SMOOTH",
"61 -2 OFFCURVE",
"64 -1 OFFCURVE",
"68 0 CURVE",
"175 0 LINE SMOOTH",
"199 0 OFFCURVE",
"209 6 OFFCURVE",
"209 22 CURVE SMOOTH",
"209 55 OFFCURVE",
"141 33 OFFCURVE",
"141 74 CURVE",
"192 198 LINE",
"380 198 LINE",
"380 55 LINE",
"366 48 OFFCURVE",
"316 39 OFFCURVE",
"316 24 CURVE SMOOTH",
"316 16 OFFCURVE",
"319 0 OFFCURVE",
"335 0 CURVE SMOOTH",
"754 0 LINE SMOOTH",
"759 0 OFFCURVE",
"766 63 OFFCURVE",
"766 111 CURVE SMOOTH",
"766 165 OFFCURVE",
"758 178 OFFCURVE",
"724 178 CURVE SMOOTH",
"717 178 OFFCURVE",
"701 80 OFFCURVE",
"673 63 CURVE SMOOTH",
"656 53 OFFCURVE",
"599 49 OFFCURVE",
"545 49 CURVE SMOOTH",
"515 49 OFFCURVE",
"489 50 OFFCURVE",
"469 50 CURVE",
"469 319 LINE",
"623 305 LINE",
"644 307 OFFCURVE",
"661 350 OFFCURVE",
"661 367 CURVE SMOOTH",
"661 372 OFFCURVE",
"657 377 OFFCURVE",
"644 378 CURVE",
"469 374 LINE",
"469 613 LINE",
"622 613 LINE SMOOTH",
"689 613 OFFCURVE",
"669 528 OFFCURVE",
"708 528 CURVE SMOOTH",
"728 528 OFFCURVE",
"744 596 OFFCURVE",
"744 628 CURVE SMOOTH",
"744 656 OFFCURVE",
"701 658 OFFCURVE",
"657 658 CURVE SMOOTH",
"380 657 LINE",
"370 655 LINE",
"374 658 LINE",
"216 658 LINE SMOOTH",
"200 658 OFFCURVE",
"197 642 OFFCURVE",
"197 634 CURVE SMOOTH",
"197 607 OFFCURVE",
"278 626 OFFCURVE",
"302 610 CURVE",
"60 50 LINE",
"47 43 OFFCURVE",
"4 33 OFFCURVE",
"4 20 CURVE SMOOTH {name = hr00;}"
);
},
{
closed = 1;
nodes = (
"344 563 LINE",
"380 642 LINE",
"380 254 LINE",
"215 254 LINE"
);
}
);
width = 795;
}
);
unicode = 00C6;
},
{
glyphname = B;
lastChange = "2018-03-22 20:19:00 +0000";
layers = (
{
anchors = (
{
name = bottom;
position = "{304, 0}";
},
{
name = top;
position = "{304, 680}";
}
);
layerId = "129A270E-4E02-45CC-9025-B4018D2BAD31";
paths = (
{
closed = 1;
nodes = (
"48 16 OFFCURVE",
"51 0 OFFCURVE",
"67 0 CURVE SMOOTH",
"267 0 LINE",
"282 0 LINE SMOOTH",
"415 0 OFFCURVE",
"568 38 OFFCURVE",
"568 212 CURVE SMOOTH",
"568 266 OFFCURVE",
"520 351 OFFCURVE",
"398 355 CURVE",
"472 384 OFFCURVE",
"518 447 OFFCURVE",
"518 502 CURVE SMOOTH {name = hr02;}",
"518 635 OFFCURVE",
"406 665 OFFCURVE",
"310 665 CURVE SMOOTH",
"236 665 OFFCURVE",
"234 658 OFFCURVE",
"156 658 CURVE SMOOTH",
"67 658 LINE SMOOTH",
"51 658 OFFCURVE",
"48 642 OFFCURVE",
"48 634 CURVE SMOOTH",
"48 618 OFFCURVE",
"98 610 OFFCURVE",
"112 603 CURVE",
"112 55 LINE",
"98 48 OFFCURVE",
"48 39 OFFCURVE",
"48 24 CURVE SMOOTH {name = hr01;}"
);
},
{
closed = 1;
nodes = (
"200 609 LINE",
"217 611 OFFCURVE",
"235 612 OFFCURVE",
"252 612 CURVE SMOOTH",
"391 612 OFFCURVE",
"428 581 OFFCURVE",
"428 486 CURVE SMOOTH {name = hr04;}",
"428 424 OFFCURVE",
"377 366 OFFCURVE",
"256 366 CURVE SMOOTH",
"234 366 OFFCURVE",
"217 366 OFFCURVE",
"200 368 CURVE"
);
},
{
closed = 1;
nodes = (
"200 317 LINE",
"214 318 OFFCURVE",
"231 319 OFFCURVE",
"248 319 CURVE SMOOTH",
"301 319 LINE SMOOTH",
"306 319 OFFCURVE",
"310 319 OFFCURVE",
"315 319 CURVE SMOOTH",
"434 319 OFFCURVE",
"473 281 OFFCURVE",
"473 194 CURVE SMOOTH",
"473 90 OFFCURVE",
"380 53 OFFCURVE",
"304 53 CURVE SMOOTH",
"269 53 OFFCURVE",
"231 54 OFFCURVE",
"200 59 CURVE"
);
}
);
width = 607;
}
);
unicode = 0042;
},
{
glyphname = C;
lastChange = "2021-01-26 18:01:02 +0000";
layers = (
{
anchors = (
{
name = bottom;
position = "{324, 0}";
},
{
name = top;
position = "{324, 680}";
}
);
layerId = "129A270E-4E02-45CC-9025-B4018D2BAD31";
paths = (
{
closed = 1;
nodes = (
"414 -16 OFFCURVE",
"490 18 OFFCURVE",
"541 82 CURVE",
"547 88 OFFCURVE",
"550 97 OFFCURVE",
"550 103 CURVE SMOOTH",
"550 111 OFFCURVE",
"538 114 OFFCURVE",
"529 114 CURVE SMOOTH",
"520 114 OFFCURVE",
"481 87 OFFCURVE",
"467 76 CURVE SMOOTH",
"439 52 OFFCURVE",
"385 43 OFFCURVE",
"363 43 CURVE SMOOTH",
"231 43 OFFCURVE",
"134 160 OFFCURVE",
"134 341 CURVE SMOOTH",
"134 483 OFFCURVE",
"178 616 OFFCURVE",
"327 616 CURVE SMOOTH",
"384 616 OFFCURVE",
"455 584 OFFCURVE",
"465 553 CURVE",
"465 553 OFFCURVE",
"488 465 OFFCURVE",
"504 465 CURVE SMOOTH",
"551 465 OFFCURVE",
"539 562 OFFCURVE",
"539 600 CURVE",
"535 631 OFFCURVE",
"449 672 OFFCURVE",
"373 672 CURVE SMOOTH",
"178 672 OFFCURVE",
"41 534 OFFCURVE",
"41 314 CURVE SMOOTH",
"41 97 OFFCURVE",
"182 -16 OFFCURVE",
"313 -16 CURVE SMOOTH {name = hr00;}"
);
}
);
width = 567;
}
);
unicode = 0043;
},
{
glyphname = D;
lastChange = "2018-03-22 20:19:00 +0000";
layers = (
{
anchors = (
{
name = bottom;
position = "{324, 0}";
},
{
name = center;
position = "{324, 340}";
},
{
name = top;
position = "{324, 680}";
}
);
layerId = "129A270E-4E02-45CC-9025-B4018D2BAD31";
paths = (
{
closed = 1;
nodes = (
"48 16 OFFCURVE",
"51 0 OFFCURVE",
"67 0 CURVE SMOOTH",
"143 0 LINE SMOOTH",
"213 0 OFFCURVE",
"236 -5 OFFCURVE",
"277 -5 CURVE SMOOTH",
"510 -5 OFFCURVE",
"616 174 OFFCURVE",
"616 349 CURVE SMOOTH {name = hr02;}",
"616 546 OFFCURVE",
"516 665 OFFCURVE",
"295 665 CURVE SMOOTH",
"240 665 OFFCURVE",
"181 658 OFFCURVE",
"146 658 CURVE SMOOTH",
"67 658 LINE SMOOTH",
"51 658 OFFCURVE",
"48 642 OFFCURVE",
"48 634 CURVE SMOOTH",
"48 618 OFFCURVE",
"98 610 OFFCURVE",
"112 603 CURVE",
"112 55 LINE {name = hr03;}",
"98 48 OFFCURVE",
"48 39 OFFCURVE",
"48 24 CURVE SMOOTH {name = hr01;}"
);
},
{
closed = 1;
nodes = (
"201 611 LINE",
"278 611 LINE SMOOTH",
"457 611 OFFCURVE",
"527 484 OFFCURVE",
"527 339 CURVE SMOOTH",
"527 156 OFFCURVE",
"437 45 OFFCURVE",
"273 45 CURVE SMOOTH",
"240 45 OFFCURVE",
"213 48 OFFCURVE",
"201 48 CURVE {name = hr04;}"
);
}
);
width = 648;
}
);
unicode = 0044;
},
{
glyphname = Eth;
layers = (
{
layerId = "129A270E-4E02-45CC-9025-B4018D2BAD31";
paths = (
{
closed = 1;
nodes = (
"67 16 OFFCURVE",
"70 0 OFFCURVE",
"86 0 CURVE SMOOTH",
"162 0 LINE SMOOTH",
"232 0 OFFCURVE",
"255 -5 OFFCURVE",
"296 -5 CURVE SMOOTH",
"529 -5 OFFCURVE",
"635 174 OFFCURVE",
"635 349 CURVE SMOOTH {name = hr02;}",
"635 546 OFFCURVE",
"535 665 OFFCURVE",
"314 665 CURVE SMOOTH",
"259 665 OFFCURVE",
"200 658 OFFCURVE",
"165 658 CURVE SMOOTH",
"86 658 LINE SMOOTH",
"70 658 OFFCURVE",
"67 642 OFFCURVE",
"67 634 CURVE SMOOTH",
"67 618 OFFCURVE",
"117 610 OFFCURVE",
"131 603 CURVE",
"131 376 LINE",
"107 376 LINE SMOOTH",
"97 376 OFFCURVE",
"67 358 OFFCURVE",
"67 339 CURVE SMOOTH",
"67 324 OFFCURVE",
"79 316 OFFCURVE",
"86 316 CURVE SMOOTH",
"131 316 LINE",
"131 55 LINE {name = hr03;}",
"117 48 OFFCURVE",
"67 39 OFFCURVE",
"67 24 CURVE SMOOTH {name = hr01;}"
);
},
{
closed = 1;
nodes = (
"220 316 LINE",
"316 316 LINE SMOOTH",
"335 316 OFFCURVE",
"369 326 OFFCURVE",
"369 362 CURVE SMOOTH",
"369 369 OFFCURVE",
"357 376 OFFCURVE",
"345 376 CURVE SMOOTH",
"220 376 LINE",
"220 611 LINE",
"297 611 LINE SMOOTH",
"476 611 OFFCURVE",
"546 484 OFFCURVE",
"546 339 CURVE SMOOTH",
"546 156 OFFCURVE",
"456 45 OFFCURVE",
"292 45 CURVE SMOOTH",
"259 45 OFFCURVE",
"232 48 OFFCURVE",
"220 48 CURVE {name = hr04;}"
);
}
);
width = 664;
}
);
unicode = 00D0;
},
{
glyphname = Dcroat;
layers = (
{
layerId = "129A270E-4E02-45CC-9025-B4018D2BAD31";
paths = (
{
closed = 1;
nodes = (
"67 16 OFFCURVE",
"70 0 OFFCURVE",
"86 0 CURVE SMOOTH",
"162 0 LINE SMOOTH",
"232 0 OFFCURVE",
"255 -5 OFFCURVE",
"296 -5 CURVE SMOOTH",
"529 -5 OFFCURVE",
"635 174 OFFCURVE",
"635 349 CURVE SMOOTH {name = hr02;}",
"635 546 OFFCURVE",
"535 665 OFFCURVE",
"314 665 CURVE SMOOTH",
"259 665 OFFCURVE",
"200 658 OFFCURVE",
"165 658 CURVE SMOOTH",
"86 658 LINE SMOOTH",
"70 658 OFFCURVE",
"67 642 OFFCURVE",
"67 634 CURVE SMOOTH",
"67 618 OFFCURVE",
"117 610 OFFCURVE",
"131 603 CURVE",
"131 376 LINE",
"107 376 LINE SMOOTH",
"97 376 OFFCURVE",
"67 358 OFFCURVE",
"67 339 CURVE SMOOTH",
"67 324 OFFCURVE",
"79 316 OFFCURVE",
"86 316 CURVE SMOOTH",
"131 316 LINE",
"131 55 LINE {name = hr03;}",
"117 48 OFFCURVE",
"67 39 OFFCURVE",
"67 24 CURVE SMOOTH {name = hr01;}"
);
},
{
closed = 1;
nodes = (
"220 316 LINE",
"316 316 LINE SMOOTH",
"335 316 OFFCURVE",
"369 326 OFFCURVE",
"369 362 CURVE SMOOTH",
"369 369 OFFCURVE",
"357 376 OFFCURVE",
"345 376 CURVE SMOOTH",
"220 376 LINE",
"220 611 LINE",
"297 611 LINE SMOOTH",
"476 611 OFFCURVE",
"546 484 OFFCURVE",
"546 339 CURVE SMOOTH",
"546 156 OFFCURVE",
"456 45 OFFCURVE",
"292 45 CURVE SMOOTH",
"259 45 OFFCURVE",
"232 48 OFFCURVE",
"220 48 CURVE {name = hr04;}"
);
}
);
width = 664;
}
);
unicode = 0110;
},
{
glyphname = E;
lastChange = "2018-03-22 20:19:00 +0000";
layers = (
{
anchors = (
{
name = bottom;
position = "{268, 0}";
},
{
name = ogonek;
position = "{482, 10}";
},
{
name = top;
position = "{268, 680}";
},
{
name = topleft;
position = "{20, 680}";
}
);
layerId = "129A270E-4E02-45CC-9025-B4018D2BAD31";
paths = (
{
closed = 1;
nodes = (
"48 16 OFFCURVE",
"51 0 OFFCURVE",
"67 0 CURVE SMOOTH",
"498 0 LINE SMOOTH",
"503 0 OFFCURVE",
"510 71 OFFCURVE",
"510 119 CURVE SMOOTH",
"510 173 OFFCURVE",
"502 186 OFFCURVE",
"468 186 CURVE SMOOTH",
"461 186 OFFCURVE",
"437 80 OFFCURVE",
"409 63 CURVE SMOOTH",
"392 53 OFFCURVE",
"343 49 OFFCURVE",
"289 49 CURVE SMOOTH",
"259 49 OFFCURVE",
"221 50 OFFCURVE",
"201 50 CURVE",
"201 319 LINE",
"355 305 LINE",
"376 307 OFFCURVE",
"393 350 OFFCURVE",
"393 367 CURVE SMOOTH",
"393 372 OFFCURVE",
"389 377 OFFCURVE",
"376 378 CURVE",
"201 374 LINE",
"201 613 LINE",
"354 613 LINE SMOOTH",
"421 613 OFFCURVE",
"401 528 OFFCURVE",
"440 528 CURVE SMOOTH",
"460 528 OFFCURVE",
"476 596 OFFCURVE",
"476 628 CURVE SMOOTH",
"476 656 OFFCURVE",
"456 658 OFFCURVE",
"412 658 CURVE SMOOTH",
"67 658 LINE SMOOTH",
"51 658 OFFCURVE",
"48 642 OFFCURVE",
"48 634 CURVE SMOOTH",
"48 618 OFFCURVE",
"98 610 OFFCURVE",
"112 603 CURVE",
"112 55 LINE",
"98 48 OFFCURVE",
"48 39 OFFCURVE",
"48 24 CURVE SMOOTH {name = hr00;}"
);
}
);
width = 536;
}
);
unicode = 0045;
},
{
glyphname = Eogonek;
layers = (
{
layerId = "129A270E-4E02-45CC-9025-B4018D2BAD31";
paths = (
{
closed = 1;
nodes = (
"48 16 OFFCURVE",
"51 0 OFFCURVE",
"67 0 CURVE SMOOTH",
"353 0 LINE",
"312 -23 OFFCURVE",
"276 -58 OFFCURVE",
"276 -113 CURVE SMOOTH",
"276 -172 OFFCURVE",
"325 -209 OFFCURVE",
"382 -209 CURVE SMOOTH",
"482 -209 OFFCURVE",
"493 -146 OFFCURVE",
"493 -136 CURVE SMOOTH",
"493 -131 OFFCURVE",
"488 -118 OFFCURVE",
"479 -118 CURVE SMOOTH",
"477 -118 OFFCURVE",
"476 -118 OFFCURVE",
"474 -119 CURVE SMOOTH",
"445 -136 OFFCURVE",
"422 -137 OFFCURVE",
"405 -137 CURVE SMOOTH",
"378 -137 OFFCURVE",
"367 -110 OFFCURVE",
"367 -95 CURVE SMOOTH",
"367 -49 OFFCURVE",
"387 -21 OFFCURVE",
"414 0 CURVE",
"498 0 LINE SMOOTH",
"503 0 OFFCURVE",
"510 71 OFFCURVE",
"510 119 CURVE SMOOTH",
"510 173 OFFCURVE",
"502 186 OFFCURVE",
"468 186 CURVE SMOOTH",
"461 186 OFFCURVE",
"437 80 OFFCURVE",
"409 63 CURVE SMOOTH",
"392 53 OFFCURVE",
"343 49 OFFCURVE",
"289 49 CURVE SMOOTH",
"259 49 OFFCURVE",
"221 50 OFFCURVE",
"201 50 CURVE",
"201 319 LINE",
"355 305 LINE",
"376 307 OFFCURVE",
"393 350 OFFCURVE",
"393 367 CURVE SMOOTH",
"393 372 OFFCURVE",
"389 377 OFFCURVE",
"376 378 CURVE",
"201 374 LINE",
"201 613 LINE",
"354 613 LINE SMOOTH",
"421 613 OFFCURVE",
"401 528 OFFCURVE",
"440 528 CURVE SMOOTH",
"460 528 OFFCURVE",
"476 596 OFFCURVE",
"476 628 CURVE SMOOTH",
"476 656 OFFCURVE",
"456 658 OFFCURVE",
"412 658 CURVE SMOOTH",
"67 658 LINE SMOOTH",
"51 658 OFFCURVE",
"48 642 OFFCURVE",
"48 634 CURVE SMOOTH",
"48 618 OFFCURVE",
"98 610 OFFCURVE",
"112 603 CURVE",
"112 55 LINE",
"98 48 OFFCURVE",
"48 39 OFFCURVE",
"48 24 CURVE SMOOTH {name = hr00;}"
);
}
);
width = 536;
}
);
unicode = 0118;
},
{
glyphname = F;
lastChange = "2018-03-22 20:19:00 +0000";
layers = (
{
anchors = (
{
name = bottom;
position = "{250, 0}";
},
{
name = top;
position = "{250, 680}";
}
);
layerId = "129A270E-4E02-45CC-9025-B4018D2BAD31";
paths = (
{
closed = 1;
nodes = (
"48 16 OFFCURVE",
"51 0 OFFCURVE",
"67 0 CURVE SMOOTH",
"299 0 LINE SMOOTH",
"314 0 OFFCURVE",
"319 18 OFFCURVE",
"319 24 CURVE SMOOTH",
"319 50 OFFCURVE",
"232 50 OFFCURVE",
"201 57 CURVE",
"201 303 LINE",
"374 294 LINE",
"392 296 OFFCURVE",
"409 336 OFFCURVE",
"409 352 CURVE SMOOTH",
"409 358 OFFCURVE",
"405 363 OFFCURVE",
"392 364 CURVE",
"201 357 LINE",
"201 613 LINE",
"354 613 LINE SMOOTH",
"413 613 OFFCURVE",
"403 488 OFFCURVE",
"440 488 CURVE SMOOTH",
"460 488 OFFCURVE",
"476 596 OFFCURVE",
"476 628 CURVE SMOOTH",
"476 656 OFFCURVE",
"433 658 OFFCURVE",
"389 658 CURVE SMOOTH",
"67 658 LINE SMOOTH",
"51 658 OFFCURVE",
"48 642 OFFCURVE",
"48 634 CURVE SMOOTH",
"48 618 OFFCURVE",
"98 610 OFFCURVE",
"112 603 CURVE",
"112 55 LINE",
"98 48 OFFCURVE",
"48 39 OFFCURVE",
"48 24 CURVE SMOOTH {name = hr00;}"
);
}
);
width = 500;
}
);
unicode = 0046;
},
{
glyphname = G;
lastChange = "2021-01-26 18:01:23 +0000";
layers = (
{
anchors = (
{
name = bottom;
position = "{343, 0}";
},
{
name = top;
position = "{353, 680}";
}
);
layerId = "129A270E-4E02-45CC-9025-B4018D2BAD31";
paths = (
{
closed = 1;
nodes = (
"35 97 OFFCURVE",
"187 -16 OFFCURVE",
"327 -16 CURVE SMOOTH",
"406 -16 OFFCURVE",
"536 7 OFFCURVE",
"590 71 CURVE",
"601 80 OFFCURVE",
"601 91 OFFCURVE",
"601 97 CURVE SMOOTH",
"601 311 LINE",
"437 311 LINE SMOOTH",
"393 311 OFFCURVE",
"365 300 OFFCURVE",
"365 265 CURVE SMOOTH",
"365 258 OFFCURVE",
"372 252 OFFCURVE",
"409 252 CURVE SMOOTH",
"512 252 LINE",
"512 103 LINE SMOOTH",
"512 37 OFFCURVE",
"403 41 OFFCURVE",
"377 41 CURVE SMOOTH",
"233 41 OFFCURVE",
"130 160 OFFCURVE",
"130 341 CURVE SMOOTH",
"130 483 OFFCURVE",
"188 616 OFFCURVE",
"352 616 CURVE SMOOTH",
"417 616 OFFCURVE",
"493 592 OFFCURVE",
"504 561 CURVE {name = hr02;}",
"504 561 OFFCURVE",
"533 487 OFFCURVE",
"545 487 CURVE SMOOTH",
"553 487 OFFCURVE",
"580 492 OFFCURVE",
"580 504 CURVE SMOOTH",
"580 596 LINE",
"576 627 OFFCURVE",
"486 672 OFFCURVE",
"398 672 CURVE SMOOTH",
"191 672 OFFCURVE",
"35 534 OFFCURVE",
"35 314 CURVE SMOOTH {name = hr01;}"
);
}
);
width = 646;
}
);
unicode = 0047;
},
{
glyphname = H;
lastChange = "2018-03-22 20:19:00 +0000";
layers = (
{
anchors = (
{
name = bottom;
position = "{359, 0}";
},
{
name = center;
position = "{359, 340}";
},
{
name = top;
position = "{359, 680}";
},
{
name = topleft;
position = "{20, 680}";
}
);
layerId = "129A270E-4E02-45CC-9025-B4018D2BAD31";
paths = (
{
closed = 1;
nodes = (
"48 16 OFFCURVE",
"51 0 OFFCURVE",
"67 0 CURVE SMOOTH",
"239 0 LINE SMOOTH",
"263 0 OFFCURVE",
"273 16 OFFCURVE",
"273 22 CURVE SMOOTH",
"273 56 OFFCURVE",
"202 33 OFFCURVE",
"202 74 CURVE SMOOTH",
"202 311 LINE",
"507 311 LINE SMOOTH",
"509 311 OFFCURVE",
"513 312 OFFCURVE",
"516 313 CURVE",
"516 55 LINE",
"502 48 OFFCURVE",
"452 39 OFFCURVE",
"452 24 CURVE SMOOTH",
"452 16 OFFCURVE",
"455 0 OFFCURVE",
"471 0 CURVE SMOOTH",
"643 0 LINE SMOOTH",
"667 0 OFFCURVE",
"677 16 OFFCURVE",
"677 22 CURVE SMOOTH",
"677 56 OFFCURVE",
"606 33 OFFCURVE",
"606 74 CURVE SMOOTH",
"606 584 LINE SMOOTH",
"606 625 OFFCURVE",
"677 602 OFFCURVE",
"677 636 CURVE SMOOTH",
"677 642 OFFCURVE",
"667 658 OFFCURVE",
"643 658 CURVE SMOOTH",
"471 658 LINE SMOOTH",
"455 658 OFFCURVE",
"452 642 OFFCURVE",
"452 634 CURVE SMOOTH",
"452 618 OFFCURVE",
"502 610 OFFCURVE",
"516 603 CURVE",
"516 365 LINE",
"202 365 LINE",
"202 588 LINE",
"205 621 OFFCURVE",
"273 604 OFFCURVE",
"273 636 CURVE SMOOTH",
"273 642 OFFCURVE",
"263 658 OFFCURVE",
"239 658 CURVE SMOOTH",
"67 658 LINE SMOOTH",
"51 658 OFFCURVE",
"48 642 OFFCURVE",
"48 634 CURVE SMOOTH",
"48 618 OFFCURVE",
"98 610 OFFCURVE",
"112 603 CURVE",
"112 55 LINE",
"98 48 OFFCURVE",
"48 39 OFFCURVE",
"48 24 CURVE SMOOTH {name = hr00;}"
);
}
);
width = 718;
}
);
unicode = 0048;
},
{
glyphname = Hbar;
layers = (
{
layerId = "129A270E-4E02-45CC-9025-B4018D2BAD31";
paths = (
{
closed = 1;
nodes = (
"44 5 OFFCURVE",
"46 0 OFFCURVE",
"65 0 CURVE SMOOTH",
"244 0 LINE SMOOTH",
"268 0 OFFCURVE",
"277 5 OFFCURVE",
"277 11 CURVE SMOOTH",
"277 35 OFFCURVE",
"244 41 OFFCURVE",
"202 45 CURVE",
"202 248 LINE",
"501 248 LINE",
"501 43 LINE",
"444 34 OFFCURVE",
"423 25 OFFCURVE",
"423 12 CURVE SMOOTH",
"423 5 OFFCURVE",
"425 0 OFFCURVE",
"441 0 CURVE SMOOTH",
"623 0 LINE SMOOTH",
"645 0 OFFCURVE",
"653 5 OFFCURVE",
"653 11 CURVE SMOOTH",
"653 35 OFFCURVE",
"633 41 OFFCURVE",
"591 45 CURVE",
"591 408 LINE",
"631 408 LINE",
"651 410 OFFCURVE",
"693 436 OFFCURVE",
"693 451 CURVE SMOOTH",
"693 457 OFFCURVE",
"687 461 OFFCURVE",
"672 462 CURVE",
"591 462 LINE",
"591 617 LINE",
"609 625 OFFCURVE",
"641 632 OFFCURVE",
"641 645 CURVE SMOOTH",
"641 648 OFFCURVE",
"636 653 OFFCURVE",
"623 658 CURVE",
"507 658 LINE SMOOTH",
"439 658 OFFCURVE",
"433 652 OFFCURVE",
"433 641 CURVE SMOOTH",
"433 620 OFFCURVE",
"454 615 OFFCURVE",
"501 615 CURVE",
"501 462 LINE",
"202 462 LINE",
"202 617 LINE",
"220 625 OFFCURVE",
"262 632 OFFCURVE",
"262 645 CURVE SMOOTH",
"262 648 OFFCURVE",
"257 653 OFFCURVE",
"244 658 CURVE",
"119 658 LINE SMOOTH",
"50 658 OFFCURVE",
"54 652 OFFCURVE",
"54 641 CURVE SMOOTH",
"54 620 OFFCURVE",
"68 615 OFFCURVE",
"112 615 CURVE",
"112 462 LINE",
"75 462 LINE",
"60 459 OFFCURVE",
"28 442 OFFCURVE",
"28 427 CURVE SMOOTH",
"28 422 OFFCURVE",
"32 417 OFFCURVE",
"45 413 CURVE",
"45 408 LINE",
"112 408 LINE",
"112 43 LINE",
"55 34 OFFCURVE",
"44 25 OFFCURVE",
"44 12 CURVE SMOOTH {name = hr00;}"
);
},
{
closed = 1;
nodes = (
"202 408 LINE",
"501 408 LINE",
"501 302 LINE",
"202 302 LINE"
);
}
);
width = 703;
}
);
unicode = 0126;
},
{
glyphname = I;
lastChange = "2018-03-22 20:17:58 +0000";
layers = (
{
anchors = (
{
name = bottom;
position = "{157, 0}";
},
{
name = ogonek;
position = "{283, 10}";
},
{
name = top;
position = "{157, 680}";
},
{
name = topleft;
position = "{20, 680}";
}
);
layerId = "129A270E-4E02-45CC-9025-B4018D2BAD31";
paths = (
{
closed = 1;
nodes = (
"48 16 OFFCURVE",
"51 0 OFFCURVE",
"67 0 CURVE SMOOTH",
"239 0 LINE SMOOTH",
"263 0 OFFCURVE",
"273 16 OFFCURVE",
"273 22 CURVE SMOOTH",
"273 54 OFFCURVE",
"205 35 OFFCURVE",
"202 70 CURVE",
"202 588 LINE",
"205 621 OFFCURVE",
"273 604 OFFCURVE",
"273 636 CURVE SMOOTH",
"273 642 OFFCURVE",
"263 658 OFFCURVE",
"239 658 CURVE SMOOTH",
"67 658 LINE SMOOTH",
"51 658 OFFCURVE",
"48 642 OFFCURVE",
"48 634 CURVE SMOOTH",
"48 618 OFFCURVE",
"98 610 OFFCURVE",
"112 603 CURVE",
"112 55 LINE",
"98 48 OFFCURVE",
"48 39 OFFCURVE",
"48 24 CURVE SMOOTH {name = hr00;}"
);
}
);
width = 314;
}
);
unicode = 0049;
},
{
glyphname = Iogonek;
layers = (
{
layerId = "129A270E-4E02-45CC-9025-B4018D2BAD31";
paths = (
{
closed = 1;
nodes = (
"48 16 OFFCURVE",
"51 0 OFFCURVE",
"67 0 CURVE SMOOTH",
"134 0 LINE",
"93 -23 OFFCURVE",
"57 -58 OFFCURVE",
"57 -113 CURVE SMOOTH",
"57 -172 OFFCURVE",
"106 -209 OFFCURVE",
"163 -209 CURVE SMOOTH",
"263 -209 OFFCURVE",
"274 -146 OFFCURVE",
"274 -136 CURVE SMOOTH",
"274 -131 OFFCURVE",
"269 -118 OFFCURVE",
"260 -118 CURVE SMOOTH",
"258 -118 OFFCURVE",
"257 -118 OFFCURVE",
"255 -119 CURVE SMOOTH",
"226 -136 OFFCURVE",
"203 -137 OFFCURVE",
"186 -137 CURVE SMOOTH",
"159 -137 OFFCURVE",
"148 -110 OFFCURVE",
"148 -95 CURVE SMOOTH",
"148 -49 OFFCURVE",
"168 -21 OFFCURVE",
"195 0 CURVE",
"239 0 LINE SMOOTH {name = hr02;}",
"263 0 OFFCURVE",
"273 16 OFFCURVE",
"273 22 CURVE SMOOTH",
"273 54 OFFCURVE",
"205 35 OFFCURVE",
"202 70 CURVE",
"202 584 LINE SMOOTH",
"202 625 OFFCURVE",
"273 602 OFFCURVE",
"273 636 CURVE SMOOTH",
"273 642 OFFCURVE",
"263 658 OFFCURVE",
"239 658 CURVE SMOOTH",
"67 658 LINE SMOOTH",
"51 658 OFFCURVE",
"48 642 OFFCURVE",
"48 634 CURVE SMOOTH",
"48 618 OFFCURVE",
"98 610 OFFCURVE",
"112 603 CURVE",
"112 55 LINE",
"98 48 OFFCURVE",
"48 39 OFFCURVE",
"48 24 CURVE SMOOTH {name = hr01;}"
);
}
);
width = 314;
}
);
unicode = 012E;
},
{
glyphname = J;
lastChange = "2021-01-26 18:01:38 +0000";
layers = (
{
anchors = (
{
name = bottom;
position = "{170, 0}";
},
{
name = top;
position = "{190, 680}";
}
);
layerId = "129A270E-4E02-45CC-9025-B4018D2BAD31";
paths = (
{
closed = 1;
nodes = (
"92 -86 OFFCURVE",
"76 -103 OFFCURVE",
"76 -113 CURVE SMOOTH",
"76 -120 OFFCURVE",
"81 -139 OFFCURVE",
"89 -139 CURVE SMOOTH",
"97 -139 OFFCURVE",
"103 -139 OFFCURVE",
"124 -128 CURVE SMOOTH",
"222 -77 OFFCURVE",
"235 -21 OFFCURVE",
"235 87 CURVE SMOOTH",
"235 588 LINE",
"238 621 OFFCURVE",
"307 604 OFFCURVE",
"307 636 CURVE SMOOTH",
"307 642 OFFCURVE",
"297 658 OFFCURVE",
"273 658 CURVE SMOOTH",
"101 658 LINE SMOOTH",
"85 658 OFFCURVE",
"82 642 OFFCURVE",
"82 634 CURVE SMOOTH",
"82 618 OFFCURVE",
"132 610 OFFCURVE",
"146 603 CURVE",
"146 77 LINE SMOOTH",
"146 -23 OFFCURVE",
"140 -28 OFFCURVE",
"107 -68 CURVE SMOOTH {name = hr00;}"
);
}
);
width = 339;
}
);
unicode = 004A;
},
{
glyphname = K;
lastChange = "2021-01-26 18:01:41 +0000";
layers = (
{
anchors = (
{
name = bottom;
position = "{327, 0}";
},
{
name = top;
position = "{327, 680}";
}
);
layerId = "129A270E-4E02-45CC-9025-B4018D2BAD31";
paths = (
{
closed = 1;
nodes = (
"48 16 OFFCURVE",
"51 0 OFFCURVE",
"67 0 CURVE SMOOTH",
"234 0 LINE SMOOTH",
"258 0 OFFCURVE",
"268 16 OFFCURVE",
"268 22 CURVE SMOOTH",
"268 56 OFFCURVE",
"197 33 OFFCURVE",
"197 74 CURVE SMOOTH",
"197 222 LINE",
"299 341 LINE",
"468 55 LINE",
"454 48 OFFCURVE",
"404 39 OFFCURVE",
"404 24 CURVE SMOOTH",
"404 16 OFFCURVE",
"407 0 OFFCURVE",
"423 0 CURVE SMOOTH",
"611 0 LINE SMOOTH",
"635 0 OFFCURVE",
"645 16 OFFCURVE",
"645 22 CURVE SMOOTH",
"645 35 OFFCURVE",
"638 38 OFFCURVE",
"626 41 CURVE SMOOTH",
"596 49 OFFCURVE",
"572 57 OFFCURVE",
"565 67 CURVE SMOOTH",
"354 405 LINE",
"516 593 LINE SMOOTH {name = hr02;}",
"527 606 OFFCURVE",
"600 613 OFFCURVE",
"600 636 CURVE SMOOTH",
"600 642 OFFCURVE",
"590 658 OFFCURVE",
"566 658 CURVE SMOOTH",
"391 658 LINE SMOOTH",
"375 658 OFFCURVE",
"372 642 OFFCURVE",
"372 634 CURVE SMOOTH",
"372 619 OFFCURVE",
"424 607 OFFCURVE",
"436 603 CURVE",
"197 293 LINE",
"197 588 LINE {name = hr03;}",
"200 621 OFFCURVE",
"268 604 OFFCURVE",
"268 636 CURVE SMOOTH",
"268 642 OFFCURVE",
"258 658 OFFCURVE",
"234 658 CURVE SMOOTH",
"67 658 LINE SMOOTH",
"51 658 OFFCURVE",
"48 642 OFFCURVE",
"48 634 CURVE SMOOTH",
"48 618 OFFCURVE",
"98 610 OFFCURVE",
"112 603 CURVE",
"112 55 LINE",
"98 48 OFFCURVE",
"48 39 OFFCURVE",
"48 24 CURVE SMOOTH {name = hr01;}"
);
}
);
width = 653;
}
);
unicode = 004B;
},
{
glyphname = L;
lastChange = "2018-03-22 20:19:00 +0000";
layers = (
{
anchors = (
{
name = bottom;
position = "{262, 0}";
},
{
name = center;
position = "{262, 340}";
},
{
name = top;
position = "{262, 680}";
},
{
name = topright;
position = "{504, 680}";
}
);
layerId = "129A270E-4E02-45CC-9025-B4018D2BAD31";
paths = (
{
closed = 1;
nodes = (
"48 16 OFFCURVE",
"51 0 OFFCURVE",
"67 0 CURVE SMOOTH",
"472 0 LINE SMOOTH",
"483 0 OFFCURVE",
"492 95 OFFCURVE",
"492 153 CURVE SMOOTH",
"492 184 OFFCURVE",
"494 198 OFFCURVE",
"475 198 CURVE SMOOTH",
"467 198 OFFCURVE",
"458 195 OFFCURVE",
"453 192 CURVE SMOOTH",
"446 188 OFFCURVE",
"428 90 OFFCURVE",
"407 65 CURVE",
"383 48 OFFCURVE",
"260 47 OFFCURVE",
"200 47 CURVE",
"200 588 LINE",
"203 621 OFFCURVE",
"273 604 OFFCURVE",
"273 636 CURVE SMOOTH",
"273 642 OFFCURVE",
"263 658 OFFCURVE",
"239 658 CURVE SMOOTH",
"67 658 LINE SMOOTH",
"51 658 OFFCURVE",
"48 642 OFFCURVE",
"48 634 CURVE SMOOTH",
"48 618 OFFCURVE",
"98 610 OFFCURVE",
"112 603 CURVE",
"112 55 LINE",
"98 48 OFFCURVE",
"48 39 OFFCURVE",
"48 24 CURVE SMOOTH {name = hr00;}"
);
}
);
width = 524;
}
);
unicode = 004C;
},
{
glyphname = Lcaron;
layers = (
{
components = (
{
name = L;
transform = "{1, 0, 0, 1, 298, 0}";
}
);
layerId = "129A270E-4E02-45CC-9025-B4018D2BAD31";
paths = (
{
closed = 1;
nodes = (
"668 523 OFFCURVE",
"676 520 OFFCURVE",
"686 520 CURVE SMOOTH",
"698 520 OFFCURVE",
"711 524 OFFCURVE",
"716 535 CURVE",
"725 561 OFFCURVE",
"739 644 OFFCURVE",
"739 703 CURVE SMOOTH",
"739 737 OFFCURVE",
"737 763 OFFCURVE",
"668 763 CURVE SMOOTH",
"653 763 OFFCURVE",
"645 760 OFFCURVE",
"645 749 CURVE",
"668 526 LINE SMOOTH {name = hr00;}"
);
}
);
width = 873;
}
);
unicode = 013D;
},
{
glyphname = Lslash;
layers = (
{
layerId = "129A270E-4E02-45CC-9025-B4018D2BAD31";
paths = (
{
closed = 1;
nodes = (
"48 16 OFFCURVE",
"51 0 OFFCURVE",
"67 0 CURVE SMOOTH",
"472 0 LINE SMOOTH",
"483 0 OFFCURVE",
"492 95 OFFCURVE",
"492 153 CURVE SMOOTH",
"492 184 OFFCURVE",
"494 198 OFFCURVE",
"475 198 CURVE SMOOTH",
"467 198 OFFCURVE",
"458 195 OFFCURVE",
"453 192 CURVE SMOOTH",
"446 188 OFFCURVE",
"428 90 OFFCURVE",
"407 65 CURVE",
"383 48 OFFCURVE",
"260 47 OFFCURVE",
"200 47 CURVE",
"200 302 LINE",
"312 360 LINE",
"325 365 OFFCURVE",
"337 382 OFFCURVE",
"337 401 CURVE SMOOTH",
"337 409 OFFCURVE",
"334 427 OFFCURVE",
"321 427 CURVE SMOOTH",
"317 427 OFFCURVE",
"313 426 OFFCURVE",
"307 423 CURVE SMOOTH",
"200 370 LINE",
"200 588 LINE",
"203 621 OFFCURVE",
"273 604 OFFCURVE",
"273 636 CURVE SMOOTH",
"273 642 OFFCURVE",
"263 658 OFFCURVE",
"239 658 CURVE SMOOTH",
"67 658 LINE SMOOTH",
"51 658 OFFCURVE",
"48 642 OFFCURVE",
"48 634 CURVE SMOOTH",
"48 618 OFFCURVE",
"98 610 OFFCURVE",
"112 603 CURVE",
"112 330 LINE",
"60 304 LINE SMOOTH",
"49 298 OFFCURVE",
"37 282 OFFCURVE",
"37 267 CURVE SMOOTH",
"37 247 OFFCURVE",
"54 240 OFFCURVE",
"64 240 CURVE SMOOTH",
"67 240 OFFCURVE",
"69 240 OFFCURVE",
"71 241 CURVE SMOOTH",
"112 263 LINE",
"112 55 LINE",
"98 48 OFFCURVE",
"48 39 OFFCURVE",
"48 24 CURVE SMOOTH {name = hr00;}"
);
}
);
width = 524;
}
);
unicode = 0141;
},
{
glyphname = M;
lastChange = "2018-03-22 20:19:00 +0000";
layers = (
{
anchors = (
{
name = bottom;
position = "{453, 0}";
},
{
name = top;
position = "{453, 680}";
}
);
layerId = "129A270E-4E02-45CC-9025-B4018D2BAD31";
paths = (
{
closed = 1;
nodes = (
"22 5 OFFCURVE",
"24 0 OFFCURVE",
"40 0 CURVE SMOOTH",
"194 0 LINE SMOOTH",
"216 0 OFFCURVE",
"224 5 OFFCURVE",
"224 11 CURVE SMOOTH",
"224 35 OFFCURVE",
"194 41 OFFCURVE",
"149 45 CURVE",
"210 589 LINE",
"214 581 OFFCURVE",
"216 572 OFFCURVE",
"219 561 CURVE SMOOTH",
"263 407 LINE",
"413 0 LINE",
"438 0 OFFCURVE",
"476 0 OFFCURVE",
"476 26 CURVE",
"648 585 LINE {name = hr02;}",
"723 43 LINE",
"682 36 OFFCURVE",
"660 30 OFFCURVE",
"660 12 CURVE SMOOTH",
"660 5 OFFCURVE",
"663 0 OFFCURVE",
"681 0 CURVE SMOOTH",
"851 0 LINE SMOOTH",
"875 0 OFFCURVE",
"884 5 OFFCURVE",
"884 11 CURVE SMOOTH",
"884 35 OFFCURVE",
"859 41 OFFCURVE",
"817 45 CURVE",
"718 606 LINE",
"747 616 OFFCURVE",
"796 623 OFFCURVE",
"796 636 CURVE SMOOTH",
"796 649 OFFCURVE",
"791 658 OFFCURVE",
"777 658 CURVE SMOOTH",
"635 658 LINE SMOOTH",
"618 658 OFFCURVE",
"612 651 OFFCURVE",
"609 641 CURVE SMOOTH",
"608 636 OFFCURVE",
"597 623 OFFCURVE",
"447 99 CURVE",
"419 226 LINE",
"271 656 LINE {name = hr03;}",
"269 657 OFFCURVE",
"260 658 OFFCURVE",
"248 658 CURVE SMOOTH",
"236 658 OFFCURVE",
"221 657 OFFCURVE",
"211 657 CURVE SMOOTH",
"205 657 OFFCURVE",
"201 657 OFFCURVE",
"200 658 CURVE",
"109 658 LINE SMOOTH",
"93 658 OFFCURVE",
"86 649 OFFCURVE",
"86 640 CURVE SMOOTH",
"86 630 OFFCURVE",
"95 620 OFFCURVE",
"109 620 CURVE SMOOTH",
"123 620 OFFCURVE",
"154 606 OFFCURVE",
"165 605 CURVE",
"166 605 LINE",
"78 43 LINE",
"21 34 OFFCURVE",
"22 25 OFFCURVE",
"22 12 CURVE SMOOTH {name = hr01;}"
);
}
);
width = 905;
}
);
unicode = 004D;
},
{
glyphname = N;
lastChange = "2018-03-22 20:19:00 +0000";
layers = (
{
anchors = (
{
name = bottom;
position = "{345, 0}";
},
{
name = top;
position = "{345, 680}";
}
);
layerId = "129A270E-4E02-45CC-9025-B4018D2BAD31";
paths = (
{
closed = 1;
nodes = (
"39 16 OFFCURVE",
"42 0 OFFCURVE",
"58 0 CURVE SMOOTH",
"202 0 LINE SMOOTH",
"226 0 OFFCURVE",
"236 16 OFFCURVE",
"236 22 CURVE SMOOTH",
"236 56 OFFCURVE",
"165 33 OFFCURVE",
"165 74 CURVE SMOOTH",
"165 520 LINE",
"228 407 LINE",
"541 0 LINE",
"566 0 OFFCURVE",
"604 0 OFFCURVE",
"604 26 CURVE SMOOTH",
"604 584 LINE SMOOTH",
"604 625 OFFCURVE",
"675 602 OFFCURVE",
"675 636 CURVE SMOOTH",
"675 642 OFFCURVE",
"665 658 OFFCURVE",
"641 658 CURVE SMOOTH",
"495 658 LINE SMOOTH",
"479 658 OFFCURVE",
"476 642 OFFCURVE",
"476 634 CURVE SMOOTH",
"476 619 OFFCURVE",
"526 610 OFFCURVE",
"540 603 CURVE",
"540 104 LINE",
"490 206 LINE",
"170 635 LINE SMOOTH",
"159 649 OFFCURVE",
"152 658 OFFCURVE",
"138 658 CURVE SMOOTH",
"58 658 LINE SMOOTH",
"42 658 OFFCURVE",
"39 636 OFFCURVE",
"39 628 CURVE SMOOTH",
"39 609 OFFCURVE",
"100 607 OFFCURVE",
"103 586 CURVE",
"103 55 LINE",
"89 48 OFFCURVE",
"39 39 OFFCURVE",
"39 24 CURVE SMOOTH {name = hr00;}"
);
}
);
width = 689;
}
);
unicode = 004E;
},
{
glyphname = Eng;
lastChange = "2021-01-26 18:02:17 +0000";
layers = (
{
anchors = (
{
name = bottom;
position = "{345, 0}";
},
{
name = top;
position = "{345, 680}";
}
);
layerId = "129A270E-4E02-45CC-9025-B4018D2BAD31";
paths = (
{
closed = 1;
nodes = (
"39 16 OFFCURVE",
"42 0 OFFCURVE",
"58 0 CURVE SMOOTH",
"202 0 LINE SMOOTH",
"226 0 OFFCURVE",
"236 16 OFFCURVE",
"236 22 CURVE SMOOTH",
"236 56 OFFCURVE",
"165 33 OFFCURVE",
"165 74 CURVE SMOOTH",
"165 520 LINE",
"228 407 LINE",
"531 13 LINE",
"531 6 LINE SMOOTH",
"531 -64 OFFCURVE",
"511 -125 OFFCURVE",
"461 -161 CURVE",
"443 -177 OFFCURVE",
"431 -194 OFFCURVE",
"431 -205 CURVE SMOOTH",
"431 -210 OFFCURVE",
"435 -214 OFFCURVE",
"443 -214 CURVE SMOOTH",
"452 -214 OFFCURVE",
"466 -210 OFFCURVE",
"486 -199 CURVE",
"584 -135 OFFCURVE",
"603 -92 OFFCURVE",
"603 16 CURVE SMOOTH",
"604 584 LINE SMOOTH",
"604 625 OFFCURVE",
"675 602 OFFCURVE",
"675 636 CURVE SMOOTH",
"675 642 OFFCURVE",
"665 658 OFFCURVE",
"641 658 CURVE SMOOTH",
"495 658 LINE SMOOTH",
"479 658 OFFCURVE",
"476 642 OFFCURVE",
"476 634 CURVE SMOOTH",
"476 619 OFFCURVE",
"526 610 OFFCURVE",
"540 603 CURVE",
"540 104 LINE",
"490 206 LINE",
"170 635 LINE SMOOTH",
"159 649 OFFCURVE",
"152 658 OFFCURVE",
"138 658 CURVE SMOOTH",
"58 658 LINE SMOOTH",
"42 658 OFFCURVE",
"39 636 OFFCURVE",
"39 628 CURVE SMOOTH",
"39 609 OFFCURVE",
"100 607 OFFCURVE",
"103 586 CURVE",
"103 55 LINE",
"89 48 OFFCURVE",
"39 39 OFFCURVE",
"39 24 CURVE SMOOTH"
);
}
);
width = 689;
}
);
unicode = 014A;
},
{
glyphname = O;
lastChange = "2021-01-26 18:02:32 +0000";
layers = (
{
anchors = (
{
name = bottom;
position = "{335, 0}";
},
{
name = center;
position = "{331, 340}";
},
{
name = ogonek;
position = "{595, 10}";
},
{
name = top;
position = "{336, 680}";
},
{
name = topleft;
position = "{20, 680}";
},
{
name = topright;
position = "{641, 680}";
}
);
layerId = "129A270E-4E02-45CC-9025-B4018D2BAD31";
paths = (
{
closed = 1;
nodes = (
"40 132 OFFCURVE",
"119 -16 OFFCURVE",
"314 -16 CURVE SMOOTH",
"526 -16 OFFCURVE",
"631 163 OFFCURVE",
"631 346 CURVE SMOOTH",
"631 520 OFFCURVE",
"555 672 OFFCURVE",
"361 672 CURVE SMOOTH",
"149 672 OFFCURVE",
"40 490 OFFCURVE",
"40 306 CURVE SMOOTH {name = hr00;}"
);
},
{
closed = 1;
nodes = (
"195 42 OFFCURVE",
"126 196 OFFCURVE",
"126 345 CURVE SMOOTH",
"126 460 OFFCURVE",
"172 613 OFFCURVE",
"331 613 CURVE SMOOTH",
"483 613 OFFCURVE",
"545 457 OFFCURVE",
"545 307 CURVE SMOOTH",
"545 193 OFFCURVE",
"505 42 OFFCURVE",
"344 42 CURVE SMOOTH"
);
}
);
width = 661;
}
);
unicode = 004F;
},
{
glyphname = Oslash;
layers = (
{
layerId = "129A270E-4E02-45CC-9025-B4018D2BAD31";
paths = (
{
closed = 1;
nodes = (
"94 -66 OFFCURVE",
"92 -72 OFFCURVE",
"92 -77 CURVE SMOOTH",
"92 -89 OFFCURVE",
"101 -94 OFFCURVE",
"112 -94 CURVE SMOOTH",
"129 -94 OFFCURVE",
"152 -83 OFFCURVE",
"164 -69 CURVE",
"203 4 LINE",
"235 -8 OFFCURVE",
"271 -16 OFFCURVE",
"314 -16 CURVE SMOOTH",
"526 -16 OFFCURVE",
"631 163 OFFCURVE",
"631 346 CURVE SMOOTH",
"631 456 OFFCURVE",
"600 558 OFFCURVE",
"528 617 CURVE",
"583 714 LINE",
"586 721 OFFCURVE",
"587 726 OFFCURVE",
"587 730 CURVE SMOOTH",
"587 740 OFFCURVE",
"580 744 OFFCURVE",
"569 744 CURVE SMOOTH",
"547 744 OFFCURVE",
"517 729 OFFCURVE",
"507 713 CURVE",
"476 650 LINE",
"443 664 OFFCURVE",
"405 672 OFFCURVE",
"361 672 CURVE SMOOTH",
"149 672 OFFCURVE",
"40 490 OFFCURVE",
"40 306 CURVE SMOOTH",
"40 193 OFFCURVE",
"73 92 OFFCURVE",
"149 34 CURVE",
"135 7 OFFCURVE",
"113 -26 OFFCURVE",
"97 -59 CURVE SMOOTH {name = hr00;}"
);
},
{
closed = 1;
nodes = (
"149 169 OFFCURVE",
"126 258 OFFCURVE",
"126 345 CURVE SMOOTH",
"126 460 OFFCURVE",
"172 613 OFFCURVE",
"331 613 CURVE SMOOTH",
"376 613 OFFCURVE",
"414 599 OFFCURVE",
"444 575 CURVE",
"198 110 LINE"
);
},
{
closed = 1;
nodes = (
"480 538 LINE",
"525 478 OFFCURVE",
"545 392 OFFCURVE",
"545 307 CURVE SMOOTH",
"545 193 OFFCURVE",
"505 42 OFFCURVE",
"344 42 CURVE SMOOTH",
"300 42 OFFCURVE",
"263 55 OFFCURVE",
"233 78 CURVE"
);
}
);
width = 661;
}
);
unicode = 00D8;
},
{
glyphname = OE;
layers = (
{
layerId = "129A270E-4E02-45CC-9025-B4018D2BAD31";
paths = (
{
closed = 1;
nodes = (
"40 132 OFFCURVE",
"119 -16 OFFCURVE",
"314 -16 CURVE SMOOTH {name = hr02;}",
"490 -16 OFFCURVE",
"582 107 OFFCURVE",
"609 253 CURVE",
"609 55 LINE {name = hr03;}",
"599 48 OFFCURVE",
"565 34 OFFCURVE",
"565 24 CURVE SMOOTH",
"565 16 OFFCURVE",
"568 0 OFFCURVE",
"584 0 CURVE SMOOTH",
"983 0 LINE SMOOTH",
"988 0 OFFCURVE",
"995 63 OFFCURVE",
"995 111 CURVE SMOOTH",
"995 165 OFFCURVE",
"987 178 OFFCURVE",
"953 178 CURVE SMOOTH",
"946 178 OFFCURVE",
"930 80 OFFCURVE",
"902 63 CURVE SMOOTH",
"885 53 OFFCURVE",
"828 49 OFFCURVE",
"774 49 CURVE SMOOTH",
"744 49 OFFCURVE",
"718 50 OFFCURVE",
"698 50 CURVE",
"698 319 LINE",
"852 305 LINE",
"873 307 OFFCURVE",
"890 350 OFFCURVE",
"890 367 CURVE SMOOTH",
"890 372 OFFCURVE",
"886 377 OFFCURVE",
"873 378 CURVE",
"698 374 LINE",
"698 613 LINE",
"851 613 LINE SMOOTH",
"918 613 OFFCURVE",
"898 528 OFFCURVE",
"937 528 CURVE SMOOTH",
"957 528 OFFCURVE",
"973 596 OFFCURVE",
"973 628 CURVE SMOOTH",
"973 656 OFFCURVE",
"930 658 OFFCURVE",
"886 658 CURVE SMOOTH",
"582 658 LINE SMOOTH",
"566 658 OFFCURVE",
"563 642 OFFCURVE",
"563 634 CURVE SMOOTH",
"563 624 OFFCURVE",
"601 607 OFFCURVE",
"609 603 CURVE",
"609 446 LINE",
"587 574 OFFCURVE",
"516 672 OFFCURVE",
"361 672 CURVE SMOOTH",
"149 672 OFFCURVE",
"40 490 OFFCURVE",
"40 306 CURVE SMOOTH {name = hr01;}"
);
},
{
closed = 1;
nodes = (
"195 42 OFFCURVE",
"126 196 OFFCURVE",
"126 345 CURVE SMOOTH",
"126 460 OFFCURVE",
"172 613 OFFCURVE",
"331 613 CURVE SMOOTH",
"483 613 OFFCURVE",
"545 457 OFFCURVE",
"545 307 CURVE SMOOTH",
"545 193 OFFCURVE",
"505 42 OFFCURVE",
"344 42 CURVE SMOOTH {name = hr04;}"
);
}
);
width = 1024;
}
);
unicode = 0152;
},
{
glyphname = P;
lastChange = "2018-03-22 20:19:00 +0000";
layers = (
{
anchors = (
{
name = bottom;
position = "{275, 0}";
},
{
name = top;
position = "{275, 680}";
}
);
layerId = "129A270E-4E02-45CC-9025-B4018D2BAD31";
paths = (
{
closed = 1;
nodes = (
"48 16 OFFCURVE",
"51 0 OFFCURVE",
"67 0 CURVE SMOOTH",
"249 0 LINE SMOOTH",
"273 0 OFFCURVE",
"283 16 OFFCURVE",
"283 22 CURVE SMOOTH",
"283 57 OFFCURVE",
"200 33 OFFCURVE",
"200 74 CURVE SMOOTH",
"200 229 LINE",
"218 228 OFFCURVE",
"236 228 OFFCURVE",
"243 228 CURVE SMOOTH",
"415 228 OFFCURVE",
"530 304 OFFCURVE",
"530 480 CURVE SMOOTH",
"530 613 OFFCURVE",
"431 668 OFFCURVE",
"336 668 CURVE SMOOTH",
"262 668 OFFCURVE",
"234 658 OFFCURVE",
"156 658 CURVE SMOOTH",
"67 658 LINE SMOOTH",
"51 658 OFFCURVE",
"48 642 OFFCURVE",
"48 634 CURVE SMOOTH",
"48 618 OFFCURVE",
"98 610 OFFCURVE",
"112 603 CURVE",
"112 55 LINE",
"98 48 OFFCURVE",
"48 39 OFFCURVE",
"48 24 CURVE SMOOTH {name = hr00;}"
);
},
{
closed = 1;
nodes = (
"200 609 LINE",
"220 611 OFFCURVE",
"241 612 OFFCURVE",
"260 612 CURVE SMOOTH",
"377 612 OFFCURVE",
"440 580 OFFCURVE",
"440 471 CURVE SMOOTH",
"440 336 OFFCURVE",
"370 274 OFFCURVE",
"257 274 CURVE SMOOTH",
"235 274 OFFCURVE",
"217 277 OFFCURVE",
"200 279 CURVE"
);
}
);
width = 550;
}
);
unicode = 0050;
},
{
glyphname = Thorn;
layers = (
{
layerId = "129A270E-4E02-45CC-9025-B4018D2BAD31";
paths = (
{
closed = 1;
nodes = (
"48 16 OFFCURVE",
"51 0 OFFCURVE",
"67 0 CURVE SMOOTH",
"251 0 LINE SMOOTH",
"275 0 OFFCURVE",
"285 16 OFFCURVE",
"285 22 CURVE SMOOTH",
"285 57 OFFCURVE",
"202 33 OFFCURVE",
"202 74 CURVE SMOOTH",
"202 131 LINE",
"218 129 OFFCURVE",
"232 128 OFFCURVE",
"239 128 CURVE SMOOTH",
"299 128 OFFCURVE",
"376 130 OFFCURVE",
"432 170 CURVE SMOOTH",
"493 213 OFFCURVE",
"526 278 OFFCURVE",
"526 350 CURVE SMOOTH",
"526 404 OFFCURVE",
"504 471 OFFCURVE",
"442 508 CURVE SMOOTH",
"400 533 OFFCURVE",
"345 541 OFFCURVE",
"313 541 CURVE SMOOTH",
"258 541 OFFCURVE",
"239 537 OFFCURVE",
"202 535 CURVE",
"202 588 LINE",
"205 621 OFFCURVE",
"273 604 OFFCURVE",
"273 636 CURVE SMOOTH",
"273 642 OFFCURVE",
"263 658 OFFCURVE",
"239 658 CURVE SMOOTH",
"67 658 LINE SMOOTH",
"51 658 OFFCURVE",
"48 642 OFFCURVE",
"48 634 CURVE SMOOTH",
"48 618 OFFCURVE",
"98 610 OFFCURVE",
"112 603 CURVE",
"112 55 LINE",
"98 48 OFFCURVE",
"48 39 OFFCURVE",
"48 24 CURVE SMOOTH {name = hr00;}"
);
},
{
closed = 1;
nodes = (
"202 487 LINE",
"220 488 OFFCURVE",
"239 489 OFFCURVE",
"255 489 CURVE SMOOTH",
"378 489 OFFCURVE",
"436 449 OFFCURVE",
"436 320 CURVE SMOOTH",
"436 216 OFFCURVE",
"353 186 OFFCURVE",
"280 186 CURVE SMOOTH",
"257 186 OFFCURVE",
"224 188 OFFCURVE",
"202 190 CURVE"
);
}
);
width = 542;
}
);
unicode = 00DE;
},
{
glyphname = Q;
layers = (
{
anchors = (
{
name = top;
position = "{376, 808}";
}
);
layerId = "129A270E-4E02-45CC-9025-B4018D2BAD31";
paths = (
{
closed = 1;
nodes = (
"40 132 OFFCURVE",
"119 -16 OFFCURVE",
"314 -16 CURVE SMOOTH {name = hr02;}",
"332 -16 OFFCURVE",
"349 -14 OFFCURVE",
"366 -12 CURVE {name = hr03;}",
"430 -94 OFFCURVE",
"508 -184 OFFCURVE",
"606 -184 CURVE SMOOTH",
"631 -184 OFFCURVE",
"685 -131 OFFCURVE",
"685 -120 CURVE SMOOTH",
"685 -108 OFFCURVE",
"680 -103 OFFCURVE",
"659 -103 CURVE SMOOTH",
"583 -103 OFFCURVE",
"502 -61 OFFCURVE",
"416 0 CURVE {name = hr04;}",
"560 47 OFFCURVE",
"631 195 OFFCURVE",
"631 346 CURVE SMOOTH",
"631 520 OFFCURVE",
"555 672 OFFCURVE",
"361 672 CURVE SMOOTH",
"149 672 OFFCURVE",
"40 490 OFFCURVE",
"40 306 CURVE SMOOTH {name = hr01;}"
);
},
{
closed = 1;
nodes = (
"195 42 OFFCURVE",
"126 196 OFFCURVE",
"126 345 CURVE SMOOTH",
"126 460 OFFCURVE",
"172 613 OFFCURVE",
"331 613 CURVE SMOOTH",
"483 613 OFFCURVE",
"545 457 OFFCURVE",
"545 307 CURVE SMOOTH",
"545 193 OFFCURVE",
"505 42 OFFCURVE",
"344 42 CURVE SMOOTH {name = hr06;}"
);
}
);
width = 661;
}
);
unicode = 0051;
},
{
glyphname = R;
lastChange = "2018-03-22 20:19:00 +0000";
layers = (
{
anchors = (
{
name = bottom;
position = "{305, 0}";
},
{
name = top;
position = "{305, 680}";
}
);
layerId = "129A270E-4E02-45CC-9025-B4018D2BAD31";
paths = (
{
closed = 1;
nodes = (
"48 16 OFFCURVE",
"51 0 OFFCURVE",
"67 0 CURVE SMOOTH",
"251 0 LINE SMOOTH",
"275 0 OFFCURVE",
"285 16 OFFCURVE",
"285 22 CURVE SMOOTH",
"285 57 OFFCURVE",
"202 33 OFFCURVE",
"202 74 CURVE SMOOTH",
"202 281 LINE",
"316 281 LINE SMOOTH",
"353 281 OFFCURVE",
"390 238 OFFCURVE",
"428 109 CURVE",
"460 16 OFFCURVE",
"469 0 OFFCURVE",
"494 0 CURVE SMOOTH",
"576 0 LINE SMOOTH",
"613 0 OFFCURVE",
"616 15 OFFCURVE",
"616 21 CURVE SMOOTH",
"616 54 OFFCURVE",
"567 19 OFFCURVE",
"535 94 CURVE",
"498 191 OFFCURVE",
"468 289 OFFCURVE",
"392 300 CURVE",
"481 330 OFFCURVE",
"521 414 OFFCURVE",
"521 493 CURVE SMOOTH",
"521 607 OFFCURVE",
"434 667 OFFCURVE",
"328 667 CURVE SMOOTH",
"255 667 OFFCURVE",
"218 658 OFFCURVE",
"160 658 CURVE SMOOTH",
"67 658 LINE SMOOTH",
"51 658 OFFCURVE",
"48 642 OFFCURVE",
"48 634 CURVE SMOOTH",
"48 618 OFFCURVE",
"98 610 OFFCURVE",
"112 603 CURVE",
"112 55 LINE",
"98 48 OFFCURVE",
"48 39 OFFCURVE",
"48 24 CURVE SMOOTH {name = hr00;}"
);
},
{
closed = 1;
nodes = (
"202 610 LINE",
"218 611 OFFCURVE",
"248 613 OFFCURVE",
"269 613 CURVE SMOOTH",
"371 613 OFFCURVE",
"430 584 OFFCURVE",
"430 471 CURVE SMOOTH",
"430 376 OFFCURVE",
"384 330 OFFCURVE",
"279 330 CURVE SMOOTH",
"250 330 OFFCURVE",
"224 330 OFFCURVE",
"202 331 CURVE"
);
}
);
width = 609;
}
);
unicode = 0052;
},
{
glyphname = S;
lastChange = "2021-01-26 18:02:47 +0000";
layers = (
{
anchors = (
{
name = bottom;
position = "{264, 0}";
},
{
name = top;
position = "{264, 680}";
}
);
layerId = "129A270E-4E02-45CC-9025-B4018D2BAD31";
paths = (
{
closed = 1;
nodes = (
"87 8 OFFCURVE",
"181 -16 OFFCURVE",
"237 -16 CURVE SMOOTH",
"357 -16 OFFCURVE",
"472 69 OFFCURVE",
"472 179 CURVE SMOOTH",
"472 424 OFFCURVE",
"131 340 OFFCURVE",
"131 520 CURVE SMOOTH",
"131 581 OFFCURVE",
"186 614 OFFCURVE",
"244 614 CURVE SMOOTH",
"318 614 OFFCURVE",
"365 590 OFFCURVE",
"387 553 CURVE {name = hr02;}",
"387 553 OFFCURVE",
"401 483 OFFCURVE",
"417 483 CURVE SMOOTH",
"444 483 OFFCURVE",
"440 563 OFFCURVE",
"440 593 CURVE SMOOTH",
"440 633 OFFCURVE",
"357 672 OFFCURVE",
"290 672 CURVE SMOOTH",
"169 672 OFFCURVE",
"60 600 OFFCURVE",
"60 490 CURVE SMOOTH",
"60 240 OFFCURVE",
"397 347 OFFCURVE",
"397 142 CURVE SMOOTH {name = hr03;}",
"397 91 OFFCURVE",
"338 45 OFFCURVE",
"280 45 CURVE SMOOTH",
"177 45 OFFCURVE",
"120 76 OFFCURVE",
"109 112 CURVE",
"109 112 OFFCURVE",
"94 188 OFFCURVE",
"78 188 CURVE SMOOTH",
"69 188 OFFCURVE",
"59 183 OFFCURVE",
"59 171 CURVE SMOOTH",
"58 136 OFFCURVE",
"54 52 OFFCURVE",
"54 48 CURVE SMOOTH",
"54 39 OFFCURVE",
"56 34 OFFCURVE",
"58 33 CURVE SMOOTH {name = hr01;}"
);
}
);
width = 501;
}
);
unicode = 0053;
},
{
glyphname = Scedilla;
lastChange = "2021-01-26 17:20:42 +0000";
layers = (
{
layerId = "129A270E-4E02-45CC-9025-B4018D2BAD31";
paths = (
{
closed = 1;
nodes = (
"80 13 OFFCURVE",
"142 -5 OFFCURVE",
"195 -13 CURVE {name = hr02;}",
"181 -100 LINE",
"187 -99 OFFCURVE",
"194 -99 OFFCURVE",
"200 -99 CURVE SMOOTH",
"241 -99 OFFCURVE",
"279 -110 OFFCURVE",
"279 -146 CURVE SMOOTH",
"279 -201 OFFCURVE",
"234 -211 OFFCURVE",
"191 -211 CURVE SMOOTH",
"180 -211 OFFCURVE",
"163 -205 OFFCURVE",
"152 -205 CURVE SMOOTH",
"147 -205 OFFCURVE",
"137 -223 OFFCURVE",
"137 -236 CURVE SMOOTH",
"137 -257 OFFCURVE",
"203 -264 OFFCURVE",
"222 -264 CURVE SMOOTH",
"302 -264 OFFCURVE",
"374 -221 OFFCURVE",
"374 -141 CURVE SMOOTH",
"374 -84 OFFCURVE",
"312 -64 OFFCURVE",
"266 -64 CURVE {name = hr03;}",
"266 -14 LINE",
"375 -2 OFFCURVE",
"472 78 OFFCURVE",
"472 179 CURVE SMOOTH",
"472 424 OFFCURVE",
"131 340 OFFCURVE",
"131 520 CURVE SMOOTH {name = hr04;}",
"131 581 OFFCURVE",
"186 614 OFFCURVE",
"244 614 CURVE SMOOTH",
"318 614 OFFCURVE",
"365 590 OFFCURVE",
"387 553 CURVE {name = hr05;}",
"387 553 OFFCURVE",
"401 483 OFFCURVE",
"417 483 CURVE SMOOTH",
"444 483 OFFCURVE",
"440 563 OFFCURVE",
"440 593 CURVE SMOOTH",
"440 633 OFFCURVE",
"357 672 OFFCURVE",
"290 672 CURVE SMOOTH",
"169 672 OFFCURVE",
"60 600 OFFCURVE",
"60 490 CURVE SMOOTH",
"60 240 OFFCURVE",
"397 347 OFFCURVE",
"397 142 CURVE SMOOTH {name = hr06;}",
"397 91 OFFCURVE",
"338 45 OFFCURVE",
"280 45 CURVE SMOOTH",
"177 45 OFFCURVE",
"120 76 OFFCURVE",
"109 112 CURVE {name = hr07;}",
"109 112 OFFCURVE",
"94 188 OFFCURVE",
"78 188 CURVE SMOOTH",
"69 188 OFFCURVE",
"59 183 OFFCURVE",
"59 171 CURVE SMOOTH",
"58 136 OFFCURVE",
"54 52 OFFCURVE",
"54 48 CURVE SMOOTH",
"54 39 OFFCURVE",
"56 34 OFFCURVE",
"58 33 CURVE SMOOTH {name = hr01;}"
);
}
);
width = 501;
}
);
unicode = 015E;
},
{
glyphname = Schwa;
lastChange = "2021-01-26 17:20:42 +0000";
layers = (
{
layerId = "129A270E-4E02-45CC-9025-B4018D2BAD31";
paths = (
{
closed = 1;
nodes = (
"439 -16 OFFCURVE",
"540 156 OFFCURVE",
"540 368 CURVE SMOOTH",
"540 523 OFFCURVE",
"465 671 OFFCURVE",
"288 671 CURVE SMOOTH",
"171 671 OFFCURVE",
"61 610 OFFCURVE",
"61 559 CURVE SMOOTH",
"61 552 OFFCURVE",
"66 544 OFFCURVE",
"81 544 CURVE SMOOTH",
"121 544 OFFCURVE",
"131 604 OFFCURVE",
"257 604 CURVE SMOOTH",
"387 604 OFFCURVE",
"446 493 OFFCURVE",
"451 335 CURVE",
"85 335 LINE SMOOTH",
"66 335 OFFCURVE",
"40 336 OFFCURVE",
"40 314 CURVE",
"44 172 OFFCURVE",
"80 -16 OFFCURVE",
"269 -16 CURVE SMOOTH {name = hr00;}"
);
},
{
closed = 1;
nodes = (
"451 284 LINE",
"445 151 OFFCURVE",
"399 48 OFFCURVE",
"302 48 CURVE SMOOTH",
"162 48 OFFCURVE",
"131 150 OFFCURVE",
"127 272 CURVE"
);
}
);
width = 571;
}
);
unicode = 018F;
},
{
glyphname = T;
lastChange = "2018-03-22 20:19:00 +0000";
layers = (
{
anchors = (
{
name = bottom;
position = "{311, 0}";
},
{
name = center;
position = "{311, 340}";
},
{
name = top;
position = "{311, 680}";
}
);
layerId = "129A270E-4E02-45CC-9025-B4018D2BAD31";
paths = (
{
closed = 1;
nodes = (
"170 21 OFFCURVE",
"173 0 OFFCURVE",
"189 0 CURVE SMOOTH",
"421 0 LINE SMOOTH",
"445 0 OFFCURVE",
"455 21 OFFCURVE",
"455 27 CURVE SMOOTH",
"455 62 OFFCURVE",
"363 40 OFFCURVE",
"360 77 CURVE",
"360 610 LINE",
"399 610 LINE SMOOTH",
"444 610 OFFCURVE",
"479 609 OFFCURVE",
"497 597 CURVE",
"517 572 OFFCURVE",
"530 428 OFFCURVE",
"537 424 CURVE SMOOTH",
"541 422 OFFCURVE",
"545 421 OFFCURVE",
"549 421 CURVE SMOOTH",
"591 421 OFFCURVE",
"583 493 OFFCURVE",
"583 570 CURVE SMOOTH",
"583 614 OFFCURVE",
"580 658 OFFCURVE",
"572 658 CURVE SMOOTH",
"40 658 LINE SMOOTH",
"37 658 OFFCURVE",
"36 647 OFFCURVE",
"36 630 CURVE SMOOTH",
"36 577 OFFCURVE",
"48 464 OFFCURVE",
"54 441 CURVE SMOOTH {name = hr02;}",
"56 432 OFFCURVE",
"76 420 OFFCURVE",
"90 420 CURVE SMOOTH",
"106 420 OFFCURVE",
"107 433 OFFCURVE",
"107 457 CURVE SMOOTH",
"107 476 OFFCURVE",
"105 500 OFFCURVE",
"105 523 CURVE SMOOTH",
"105 615 OFFCURVE",
"138 610 OFFCURVE",
"228 610 CURVE SMOOTH",
"270 610 LINE",
"270 60 LINE",
"248 49 OFFCURVE",
"170 52 OFFCURVE",
"170 29 CURVE SMOOTH {name = hr01;}"
);
}
);
width = 621;
}
);
unicode = 0054;
},
{
glyphname = Tbar;
layers = (
{
layerId = "129A270E-4E02-45CC-9025-B4018D2BAD31";
paths = (
{
closed = 1;
nodes = (
"170 21 OFFCURVE",
"173 0 OFFCURVE",
"189 0 CURVE SMOOTH",
"421 0 LINE SMOOTH",
"445 0 OFFCURVE",
"455 21 OFFCURVE",
"455 27 CURVE SMOOTH",
"455 63 OFFCURVE",
"360 39 OFFCURVE",
"360 79 CURVE SMOOTH",
"360 281 LINE",
"435 281 LINE SMOOTH",
"454 281 OFFCURVE",
"488 291 OFFCURVE",
"488 327 CURVE SMOOTH",
"488 334 OFFCURVE",
"476 341 OFFCURVE",
"464 341 CURVE SMOOTH",
"360 341 LINE",
"360 610 LINE",
"399 610 LINE SMOOTH",
"444 610 OFFCURVE",
"479 609 OFFCURVE",
"497 597 CURVE",
"517 572 OFFCURVE",
"530 428 OFFCURVE",
"537 424 CURVE SMOOTH",
"541 422 OFFCURVE",
"545 421 OFFCURVE",
"549 421 CURVE SMOOTH",
"591 421 OFFCURVE",
"583 493 OFFCURVE",
"583 570 CURVE SMOOTH",
"583 614 OFFCURVE",
"580 658 OFFCURVE",
"572 658 CURVE SMOOTH",
"40 658 LINE SMOOTH",
"37 658 OFFCURVE",
"36 647 OFFCURVE",
"36 630 CURVE SMOOTH",
"36 577 OFFCURVE",
"48 464 OFFCURVE",
"54 441 CURVE SMOOTH {name = hr02;}",
"56 432 OFFCURVE",
"76 420 OFFCURVE",
"90 420 CURVE SMOOTH",
"106 420 OFFCURVE",
"107 433 OFFCURVE",
"107 457 CURVE SMOOTH",
"107 476 OFFCURVE",
"105 500 OFFCURVE",
"105 523 CURVE SMOOTH",
"105 615 OFFCURVE",
"138 610 OFFCURVE",
"228 610 CURVE SMOOTH",
"270 610 LINE",
"270 341 LINE",
"186 341 LINE SMOOTH",
"176 341 OFFCURVE",
"146 323 OFFCURVE",
"146 304 CURVE SMOOTH",
"146 289 OFFCURVE",
"158 281 OFFCURVE",
"165 281 CURVE SMOOTH",
"270 281 LINE",
"270 60 LINE",
"248 49 OFFCURVE",
"170 52 OFFCURVE",
"170 29 CURVE SMOOTH {name = hr01;}"
);
}
);
width = 621;
}
);
unicode = 0166;
},
{
glyphname = U;
lastChange = "2018-03-22 20:19:00 +0000";
layers = (
{
anchors = (
{
name = bottom;
position = "{314, 0}";
},
{
name = ogonek;
position = "{565, 10}";
},
{
name = top;
position = "{314, 680}";
},
{
name = topright;
position = "{608, 680}";
}
);
layerId = "129A270E-4E02-45CC-9025-B4018D2BAD31";
paths = (
{
closed = 1;
nodes = (
"76 73 OFFCURVE",
"153 -16 OFFCURVE",
"308 -16 CURVE SMOOTH",
"506 -16 OFFCURVE",
"555 134 OFFCURVE",
"555 287 CURVE SMOOTH",
"555 584 LINE SMOOTH {name = hr02;}",
"555 625 OFFCURVE",
"616 604 OFFCURVE",
"616 636 CURVE SMOOTH",
"616 642 OFFCURVE",
"606 658 OFFCURVE",
"582 658 CURVE SMOOTH",
"440 658 LINE SMOOTH",
"423 658 OFFCURVE",
"421 642 OFFCURVE",
"421 634 CURVE SMOOTH",
"421 618 OFFCURVE",
"471 610 OFFCURVE",
"485 603 CURVE",
"485 315 LINE SMOOTH",
"485 68 OFFCURVE",
"435 42 OFFCURVE",
"335 42 CURVE SMOOTH",
"199 42 OFFCURVE",
"169 113 OFFCURVE",
"169 305 CURVE SMOOTH",
"169 584 LINE SMOOTH {name = hr03;}",
"169 625 OFFCURVE",
"246 601 OFFCURVE",
"246 636 CURVE SMOOTH",
"246 642 OFFCURVE",
"236 658 OFFCURVE",
"212 658 CURVE SMOOTH",
"51 658 LINE SMOOTH",
"35 658 OFFCURVE",
"32 642 OFFCURVE",
"32 634 CURVE SMOOTH",
"32 622 OFFCURVE",
"67 611 OFFCURVE",
"76 603 CURVE",
"76 254 LINE SMOOTH {name = hr01;}"
);
}
);
width = 628;
}
);
unicode = 0055;
},
{
glyphname = Uogonek;
layers = (
{
layerId = "129A270E-4E02-45CC-9025-B4018D2BAD31";
paths = (
{
closed = 1;
nodes = (
"76 73 OFFCURVE",
"153 -16 OFFCURVE",
"308 -16 CURVE SMOOTH",
"318 -16 OFFCURVE",
"328 -16 OFFCURVE",
"337 -15 CURVE",
"307 -37 OFFCURVE",
"284 -69 OFFCURVE",
"284 -113 CURVE SMOOTH",
"284 -172 OFFCURVE",
"333 -209 OFFCURVE",
"390 -209 CURVE SMOOTH",
"490 -209 OFFCURVE",
"501 -146 OFFCURVE",
"501 -136 CURVE SMOOTH",
"501 -131 OFFCURVE",
"496 -118 OFFCURVE",
"487 -118 CURVE SMOOTH",
"485 -118 OFFCURVE",
"484 -118 OFFCURVE",
"482 -119 CURVE SMOOTH",
"453 -136 OFFCURVE",
"430 -137 OFFCURVE",
"413 -137 CURVE SMOOTH",
"386 -137 OFFCURVE",
"375 -110 OFFCURVE",
"375 -95 CURVE SMOOTH",
"375 -23 OFFCURVE",
"426 4 OFFCURVE",
"472 33 CURVE",
"465 33 LINE",
"534 89 OFFCURVE",
"555 187 OFFCURVE",
"555 287 CURVE SMOOTH",
"555 588 LINE {name = hr02;}",
"556 623 OFFCURVE",
"616 605 OFFCURVE",
"616 636 CURVE SMOOTH",
"616 642 OFFCURVE",
"606 658 OFFCURVE",
"582 658 CURVE SMOOTH",
"440 658 LINE SMOOTH",
"423 658 OFFCURVE",
"421 642 OFFCURVE",
"421 634 CURVE SMOOTH",
"421 618 OFFCURVE",
"471 610 OFFCURVE",
"485 603 CURVE",
"485 315 LINE SMOOTH",
"485 68 OFFCURVE",
"435 42 OFFCURVE",
"335 42 CURVE SMOOTH",
"199 42 OFFCURVE",
"169 113 OFFCURVE",
"169 305 CURVE SMOOTH",
"169 588 LINE {name = hr03;}",
"172 622 OFFCURVE",
"246 603 OFFCURVE",
"246 636 CURVE SMOOTH",
"246 642 OFFCURVE",
"236 658 OFFCURVE",
"212 658 CURVE SMOOTH",
"51 658 LINE SMOOTH",
"35 658 OFFCURVE",
"32 642 OFFCURVE",
"32 634 CURVE SMOOTH",
"32 622 OFFCURVE",
"67 611 OFFCURVE",
"76 603 CURVE",
"76 254 LINE SMOOTH {name = hr01;}"
);
}
);
width = 628;
}
);
unicode = 0172;
},
{
glyphname = V;
lastChange = "2018-03-22 20:19:00 +0000";
layers = (
{
anchors = (
{
name = bottom;
position = "{297, 0}";
},
{
name = top;
position = "{297, 680}";
}
);
layerId = "129A270E-4E02-45CC-9025-B4018D2BAD31";
paths = (
{
closed = 1;
nodes = (
"316 -10 LINE",
"552 593 LINE",
"562 611 OFFCURVE",
"571 610 OFFCURVE",
"598 617 CURVE SMOOTH",
"610 620 OFFCURVE",
"617 623 OFFCURVE",
"617 636 CURVE SMOOTH",
"617 642 OFFCURVE",
"611 658 OFFCURVE",
"587 658 CURVE SMOOTH",
"431 658 LINE SMOOTH",
"415 658 OFFCURVE",
"412 642 OFFCURVE",
"412 634 CURVE SMOOTH",
"412 616 OFFCURVE",
"467 611 OFFCURVE",
"485 603 CURVE",
"312 114 LINE",
"125 604 LINE",
"140 613 OFFCURVE",
"195 610 OFFCURVE",
"195 636 CURVE SMOOTH",
"195 642 OFFCURVE",
"185 658 OFFCURVE",
"161 658 CURVE SMOOTH",
"-5 658 LINE SMOOTH",
"-21 658 OFFCURVE",
"-24 642 OFFCURVE",
"-24 634 CURVE SMOOTH",
"-24 621 OFFCURVE",
"18 610 OFFCURVE",
"29 604 CURVE",
"275 -10 LINE {name = hr00;}"
);
}
);
width = 594;
}
);
unicode = 0056;
},
{
glyphname = W;
lastChange = "2018-03-22 20:19:00 +0000";
layers = (
{
anchors = (
{
name = bottom;
position = "{403, 0}";
},
{
name = top;
position = "{403, 680}";
}
);
layerId = "129A270E-4E02-45CC-9025-B4018D2BAD31";
paths = (
{
closed = 1;
nodes = (
"267 -10 LINE",
"417 399 LINE",
"553 -10 LINE",
"595 -10 LINE",
"797 584 LINE",
"809 612 OFFCURVE",
"817 609 OFFCURVE",
"847 617 CURVE SMOOTH",
"859 620 OFFCURVE",
"866 623 OFFCURVE",
"866 636 CURVE SMOOTH",
"866 642 OFFCURVE",
"860 658 OFFCURVE",
"836 658 CURVE SMOOTH",
"680 658 LINE SMOOTH",
"664 658 OFFCURVE",
"661 642 OFFCURVE",
"661 634 CURVE SMOOTH",
"661 617 OFFCURVE",
"716 611 OFFCURVE",
"732 603 CURVE",
"590 128 LINE",
"442 593 LINE",
"450 611 OFFCURVE",
"459 610 OFFCURVE",
"504 617 CURVE",
"516 620 OFFCURVE",
"523 623 OFFCURVE",
"523 636 CURVE SMOOTH",
"523 642 OFFCURVE",
"513 658 OFFCURVE",
"489 658 CURVE SMOOTH",
"308 658 LINE SMOOTH",
"292 658 OFFCURVE",
"289 642 OFFCURVE",
"289 634 CURVE SMOOTH",
"289 619 OFFCURVE",
"336 609 OFFCURVE",
"349 603 CURVE",
"385 494 LINE",
"262 116 LINE",
"100 591 LINE",
"107 616 OFFCURVE",
"172 608 OFFCURVE",
"172 636 CURVE SMOOTH",
"172 642 OFFCURVE",
"162 658 OFFCURVE",
"138 658 CURVE SMOOTH",
"-31 658 LINE SMOOTH",
"-47 658 OFFCURVE",
"-50 642 OFFCURVE",
"-50 634 CURVE SMOOTH",
"-50 621 OFFCURVE",
"-7 609 OFFCURVE",
"4 604 CURVE",
"226 -10 LINE {name = hr00;}"
);
}
);
width = 805;
}
);
unicode = 0057;
},
{
glyphname = X;
layers = (
{
layerId = "129A270E-4E02-45CC-9025-B4018D2BAD31";
paths = (
{
closed = 1;
nodes = (
"13 16 OFFCURVE",
"16 0 OFFCURVE",
"32 0 CURVE SMOOTH",
"197 0 LINE SMOOTH",
"221 0 OFFCURVE",
"231 16 OFFCURVE",
"231 22 CURVE SMOOTH",
"231 54 OFFCURVE",
"162 34 OFFCURVE",
"161 71 CURVE",
"294 288 LINE",
"442 54 LINE",
"426 47 OFFCURVE",
"376 41 OFFCURVE",
"376 24 CURVE SMOOTH",
"376 16 OFFCURVE",
"379 0 OFFCURVE",
"395 0 CURVE SMOOTH",
"577 0 LINE SMOOTH",
"601 0 OFFCURVE",
"611 16 OFFCURVE",
"611 22 CURVE SMOOTH",
"611 45 OFFCURVE",
"558 46 OFFCURVE",
"541 63 CURVE",
"348 340 LINE",
"525 586 LINE SMOOTH",
"545 614 OFFCURVE",
"551 609 OFFCURVE",
"581 617 CURVE SMOOTH",
"593 620 OFFCURVE",
"600 623 OFFCURVE",
"600 636 CURVE SMOOTH",
"600 642 OFFCURVE",
"594 658 OFFCURVE",
"570 658 CURVE SMOOTH",
"414 658 LINE SMOOTH",
"398 658 OFFCURVE",
"395 642 OFFCURVE",
"395 634 CURVE SMOOTH",
"395 616 OFFCURVE",
"446 613 OFFCURVE",
"460 606 CURVE",
"316 382 LINE",
"176 607 LINE",
"195 613 OFFCURVE",
"242 612 OFFCURVE",
"242 636 CURVE SMOOTH",
"242 642 OFFCURVE",
"232 658 OFFCURVE",
"208 658 CURVE SMOOTH",
"32 658 LINE SMOOTH",
"16 658 OFFCURVE",
"13 642 OFFCURVE",
"13 634 CURVE SMOOTH",
"13 619 OFFCURVE",
"61 609 OFFCURVE",
"74 603 CURVE",
"263 328 LINE",
"75 55 LINE",
"62 48 OFFCURVE",
"13 39 OFFCURVE",
"13 24 CURVE SMOOTH {name = hr00;}"
);
}
);
width = 609;
}
);
unicode = 0058;
},
{
glyphname = Y;
lastChange = "2018-03-22 20:19:00 +0000";
layers = (
{
anchors = (
{
name = bottom;
position = "{273, 0}";
},
{
name = top;
position = "{273, 680}";
},
{
name = topleft;
position = "{20, 680}";
}
);
layerId = "129A270E-4E02-45CC-9025-B4018D2BAD31";
paths = (
{
closed = 1;
nodes = (
"140 21 OFFCURVE",
"143 0 OFFCURVE",
"159 0 CURVE SMOOTH",
"387 0 LINE SMOOTH",
"411 0 OFFCURVE",
"421 21 OFFCURVE",
"421 27 CURVE SMOOTH",
"421 63 OFFCURVE",
"327 40 OFFCURVE",
"324 77 CURVE",
"324 272 LINE",
"498 583 LINE",
"516 610 OFFCURVE",
"522 609 OFFCURVE",
"552 617 CURVE SMOOTH",
"564 620 OFFCURVE",
"571 623 OFFCURVE",
"571 636 CURVE SMOOTH",
"571 642 OFFCURVE",
"565 658 OFFCURVE",
"541 658 CURVE SMOOTH",
"385 658 LINE SMOOTH",
"369 658 OFFCURVE",
"366 642 OFFCURVE",
"366 634 CURVE SMOOTH",
"366 615 OFFCURVE",
"426 611 OFFCURVE",
"443 603 CURVE",
"290 321 LINE",
"134 605 LINE",
"149 613 OFFCURVE",
"202 611 OFFCURVE",
"202 636 CURVE SMOOTH",
"202 642 OFFCURVE",
"192 658 OFFCURVE",
"168 658 CURVE SMOOTH",
"2 658 LINE SMOOTH",
"-14 658 OFFCURVE",
"-17 642 OFFCURVE",
"-17 634 CURVE SMOOTH",
"-17 621 OFFCURVE",
"28 609 OFFCURVE",
"39 603 CURVE",
"234 274 LINE",
"234 60 LINE",
"213 50 OFFCURVE",
"140 51 OFFCURVE",
"140 29 CURVE SMOOTH {name = hr00;}"
);
}
);
width = 546;
}
);
unicode = 0059;
},
{
glyphname = Z;
lastChange = "2018-03-22 20:19:00 +0000";
layers = (
{
anchors = (
{
name = bottom;
position = "{282, 0}";
},
{
name = top;
position = "{282, 680}";
}
);
layerId = "129A270E-4E02-45CC-9025-B4018D2BAD31";
paths = (
{
closed = 1;
nodes = (
"35 38 OFFCURVE",
"50 0 OFFCURVE",
"72 0 CURVE SMOOTH",
"509 0 LINE",
"520 3 OFFCURVE",
"535 145 OFFCURVE",
"535 173 CURVE SMOOTH",
"535 185 OFFCURVE",
"514 190 OFFCURVE",
"506 190 CURVE SMOOTH",
"489 190 OFFCURVE",
"468 104 OFFCURVE",
"436 70 CURVE SMOOTH",
"410 43 OFFCURVE",
"238 46 OFFCURVE",
"122 46 CURVE",
"189 130 LINE",
"504 589 LINE SMOOTH",
"508 594 OFFCURVE",
"509 601 OFFCURVE",
"509 608 CURVE SMOOTH",
"509 631 OFFCURVE",
"489 658 OFFCURVE",
"481 658 CURVE SMOOTH",
"101 658 LINE",
"93 654 OFFCURVE",
"94 642 OFFCURVE",
"94 628 CURVE SMOOTH",
"94 580 OFFCURVE",
"78 526 OFFCURVE",
"78 500 CURVE SMOOTH",
"78 492 OFFCURVE",
"93 483 OFFCURVE",
"107 483 CURVE SMOOTH",
"131 483 OFFCURVE",
"152 562 OFFCURVE",
"155 577 CURVE",
"169 600 OFFCURVE",
"245 614 OFFCURVE",
"420 614 CURVE",
"378 564 LINE",
"64 110 LINE",
"41 79 OFFCURVE",
"35 64 OFFCURVE",
"35 46 CURVE SMOOTH {name = hr00;}"
);
}
);
width = 564;
}
);
unicode = 005A;
},
{
glyphname = a;
lastChange = "2018-03-22 20:20:05 +0000";
layers = (
{
anchors = (
{
name = bottom;
position = "{238, 0}";
},
{
name = ogonek;
position = "{428, 10}";
},
{
name = top;
position = "{238, 484}";
}
);
layerId = "129A270E-4E02-45CC-9025-B4018D2BAD31";
paths = (
{
closed = 1;
nodes = (
"39 50 OFFCURVE",
"77 -16 OFFCURVE",
"177 -16 CURVE SMOOTH",
"235 -16 OFFCURVE",
"274 15 OFFCURVE",
"309 57 CURVE",
"309 19 LINE SMOOTH",
"309 -6 OFFCURVE",
"331 -16 OFFCURVE",
"356 -16 CURVE SMOOTH",
"416 -16 OFFCURVE",
"462 27 OFFCURVE",
"462 37 CURVE SMOOTH",
"462 46 OFFCURVE",
"459 52 OFFCURVE",
"444 52 CURVE SMOOTH",
"428 52 OFFCURVE",
"412 43 OFFCURVE",
"397 43 CURVE",
"397 329 LINE SMOOTH",
"397 401 OFFCURVE",
"377 477 OFFCURVE",
"264 477 CURVE SMOOTH",
"197 477 OFFCURVE",
"53 409 OFFCURVE",
"53 346 CURVE SMOOTH {name = hr02;}",
"53 333 OFFCURVE",
"56 309 OFFCURVE",
"86 309 CURVE SMOOTH",
"112 309 OFFCURVE",
"151 333 OFFCURVE",
"151 355 CURVE SMOOTH",
"151 361 OFFCURVE",
"144 362 OFFCURVE",
"144 381 CURVE SMOOTH",
"144 415 OFFCURVE",
"148 420 OFFCURVE",
"219 420 CURVE SMOOTH",
"245 420 OFFCURVE",
"276 416 OFFCURVE",
"292 389 CURVE SMOOTH",
"307 362 OFFCURVE",
"309 329 OFFCURVE",
"309 297 CURVE SMOOTH",
"309 275 LINE",
"174 265 OFFCURVE",
"39 220 OFFCURVE",
"39 101 CURVE SMOOTH {name = hr01;}"
);
},
{
closed = 1;
nodes = (
"133 211 OFFCURVE",
"234 225 OFFCURVE",
"309 229 CURVE",
"309 94 LINE",
"287 62 OFFCURVE",
"254 40 OFFCURVE",
"227 40 CURVE SMOOTH",
"155 40 OFFCURVE",
"133 81 OFFCURVE",
"133 134 CURVE SMOOTH"
);
}
);
width = 476;
}
);
unicode = 0061;
},
{
glyphname = aogonek;
layers = (
{
layerId = "129A270E-4E02-45CC-9025-B4018D2BAD31";
paths = (
{
closed = 1;
nodes = (
"39 50 OFFCURVE",
"77 -16 OFFCURVE",
"177 -16 CURVE SMOOTH {name = hr02;}",
"235 -16 OFFCURVE",
"274 15 OFFCURVE",
"309 57 CURVE",
"309 19 LINE SMOOTH {name = hr03;}",
"309 1 OFFCURVE",
"320 -9 OFFCURVE",
"336 -13 CURVE",
"301 -37 OFFCURVE",
"271 -71 OFFCURVE",
"271 -113 CURVE SMOOTH {name = hr04;}",
"271 -172 OFFCURVE",
"317 -209 OFFCURVE",
"377 -209 CURVE SMOOTH",
"473 -209 OFFCURVE",
"488 -147 OFFCURVE",
"488 -136 CURVE SMOOTH",
"488 -131 OFFCURVE",
"483 -118 OFFCURVE",
"474 -118 CURVE SMOOTH",
"472 -118 OFFCURVE",
"471 -118 OFFCURVE",
"469 -119 CURVE SMOOTH",
"437 -136 OFFCURVE",
"414 -137 OFFCURVE",
"399 -137 CURVE SMOOTH",
"373 -137 OFFCURVE",
"362 -110 OFFCURVE",
"362 -95 CURVE SMOOTH",
"362 -52 OFFCURVE",
"376 -28 OFFCURVE",
"397 -9 CURVE",
"436 3 OFFCURVE",
"462 29 OFFCURVE",
"462 37 CURVE SMOOTH {name = hr05;}",
"462 46 OFFCURVE",
"459 52 OFFCURVE",
"444 52 CURVE SMOOTH",
"428 52 OFFCURVE",
"412 43 OFFCURVE",
"397 43 CURVE",
"397 329 LINE SMOOTH",
"397 401 OFFCURVE",
"377 477 OFFCURVE",
"264 477 CURVE SMOOTH",
"197 477 OFFCURVE",
"53 409 OFFCURVE",
"53 346 CURVE SMOOTH",
"53 333 OFFCURVE",
"56 309 OFFCURVE",
"86 309 CURVE SMOOTH",
"112 309 OFFCURVE",
"151 333 OFFCURVE",
"151 355 CURVE SMOOTH",
"151 361 OFFCURVE",
"144 362 OFFCURVE",
"144 381 CURVE SMOOTH",
"144 415 OFFCURVE",
"148 420 OFFCURVE",
"219 420 CURVE SMOOTH",
"245 420 OFFCURVE",
"276 416 OFFCURVE",
"292 389 CURVE SMOOTH",
"307 362 OFFCURVE",
"309 329 OFFCURVE",
"309 297 CURVE SMOOTH",
"309 275 LINE",
"174 265 OFFCURVE",
"39 220 OFFCURVE",
"39 101 CURVE SMOOTH {name = hr01;}"
);
},
{
closed = 1;
nodes = (
"133 211 OFFCURVE",
"234 225 OFFCURVE",
"309 229 CURVE",
"309 94 LINE",
"287 62 OFFCURVE",
"254 40 OFFCURVE",
"227 40 CURVE SMOOTH",
"155 40 OFFCURVE",
"133 81 OFFCURVE",
"133 134 CURVE SMOOTH {name = hr07;}"
);
}
);
width = 476;
}
);
unicode = 0105;
},
{
glyphname = ae;
layers = (
{
layerId = "129A270E-4E02-45CC-9025-B4018D2BAD31";
paths = (
{
closed = 1;
nodes = (
"39 50 OFFCURVE",
"77 -16 OFFCURVE",
"177 -16 CURVE SMOOTH",
"248 -16 OFFCURVE",
"292 29 OFFCURVE",
"333 82 CURVE",
"356 24 OFFCURVE",
"404 -16 OFFCURVE",
"493 -16 CURVE SMOOTH",
"592 -16 OFFCURVE",
"678 30 OFFCURVE",
"678 66 CURVE SMOOTH",
"678 72 OFFCURVE",
"674 77 OFFCURVE",
"664 77 CURVE SMOOTH",
"632 77 OFFCURVE",
"617 42 OFFCURVE",
"518 42 CURVE SMOOTH",
"426 42 OFFCURVE",
"401 131 OFFCURVE",
"398 221 CURVE {name = hr02;}",
"652 221 LINE SMOOTH",
"670 221 OFFCURVE",
"692 220 OFFCURVE",
"692 240 CURVE SMOOTH",
"689 343 OFFCURVE",
"669 477 OFFCURVE",
"517 477 CURVE SMOOTH",
"458 477 OFFCURVE",
"413 455 OFFCURVE",
"381 420 CURVE",
"363 453 OFFCURVE",
"329 477 OFFCURVE",
"264 477 CURVE SMOOTH {name = hr03;}",
"205 477 OFFCURVE",
"53 421 OFFCURVE",
"53 346 CURVE SMOOTH",
"53 333 OFFCURVE",
"56 309 OFFCURVE",
"86 309 CURVE SMOOTH",
"112 309 OFFCURVE",
"151 333 OFFCURVE",
"151 355 CURVE SMOOTH",
"151 361 OFFCURVE",
"144 362 OFFCURVE",
"144 381 CURVE SMOOTH",
"144 415 OFFCURVE",
"148 420 OFFCURVE",
"219 420 CURVE SMOOTH",
"247 420 OFFCURVE",
"281 416 OFFCURVE",
"297 389 CURVE SMOOTH",
"313 362 OFFCURVE",
"314 329 OFFCURVE",
"314 297 CURVE SMOOTH",
"314 275 LINE",
"177 266 OFFCURVE",
"39 220 OFFCURVE",
"39 101 CURVE SMOOTH {name = hr01;}"
);
},
{
closed = 1;
nodes = (
"401 356 OFFCURVE",
"419 423 OFFCURVE",
"486 423 CURVE SMOOTH",
"577 423 OFFCURVE",
"591 356 OFFCURVE",
"593 273 CURVE",
"398 266 LINE {name = hr05;}"
);
},
{
closed = 1;
nodes = (
"133 211 OFFCURVE",
"236 225 OFFCURVE",
"314 229 CURVE",
"314 95 LINE",
"291 62 OFFCURVE",
"256 40 OFFCURVE",
"227 40 CURVE SMOOTH",
"155 40 OFFCURVE",
"133 81 OFFCURVE",
"133 134 CURVE SMOOTH {name = hr06;}"
);
}
);
width = 733;
}
);
unicode = 00E6;
},
{
glyphname = b;
lastChange = "2018-03-22 20:20:05 +0000";
layers = (
{
anchors = (
{
name = bottom;
position = "{250, 0}";
},
{
name = top;
position = "{250, 1196}";
}
);
layerId = "129A270E-4E02-45CC-9025-B4018D2BAD31";
paths = (
{
closed = 1;
nodes = (
"85 14 OFFCURVE",
"144 -16 OFFCURVE",
"215 -16 CURVE SMOOTH",
"388 -16 OFFCURVE",
"471 132 OFFCURVE",
"471 266 CURVE SMOOTH",
"471 400 OFFCURVE",
"380 477 OFFCURVE",
"280 477 CURVE SMOOTH",
"222 477 OFFCURVE",
"175 453 OFFCURVE",
"136 417 CURVE",
"144 561 LINE",
"144 714 LINE",
"141 723 OFFCURVE",
"132 723 OFFCURVE",
"121 723 CURVE SMOOTH",
"81 723 OFFCURVE",
"13 715 OFFCURVE",
"13 680 CURVE SMOOTH",
"13 672 OFFCURVE",
"31 663 OFFCURVE",
"60 659 CURVE",
"59 42 LINE {name = hr00;}"
);
},
{
closed = 1;
nodes = (
"144 379 LINE",
"171 409 OFFCURVE",
"202 421 OFFCURVE",
"234 421 CURVE SMOOTH",
"326 421 OFFCURVE",
"374 341 OFFCURVE",
"374 222 CURVE SMOOTH",
"374 124 OFFCURVE",
"341 41 OFFCURVE",
"251 41 CURVE SMOOTH",
"226 41 OFFCURVE",
"170 49 OFFCURVE",
"144 82 CURVE"
);
}
);
width = 500;
}
);
unicode = 0062;
},
{
glyphname = c;
lastChange = "2018-03-22 20:20:05 +0000";
layers = (
{
anchors = (
{
name = bottom;
position = "{210, 0}";
},
{
name = top;
position = "{210, 484}";
}
);
layerId = "129A270E-4E02-45CC-9025-B4018D2BAD31";
paths = (
{
closed = 1;
nodes = (
"32 88 OFFCURVE",
"99 -16 OFFCURVE",
"241 -16 CURVE SMOOTH",
"302 -16 OFFCURVE",
"396 29 OFFCURVE",
"396 68 CURVE SMOOTH",
"396 74 OFFCURVE",
"390 82 OFFCURVE",
"373 82 CURVE SMOOTH",
"324 82 OFFCURVE",
"319 42 OFFCURVE",
"266 42 CURVE SMOOTH",
"164 42 OFFCURVE",
"124 144 OFFCURVE",
"124 240 CURVE SMOOTH",
"124 343 OFFCURVE",
"154 426 OFFCURVE",
"234 426 CURVE SMOOTH",
"274 426 OFFCURVE",
"290 412 OFFCURVE",
"297 351 CURVE SMOOTH",
"299 327 OFFCURVE",
"308 322 OFFCURVE",
"320 322 CURVE",
"351 327 OFFCURVE",
"389 344 OFFCURVE",
"389 387 CURVE SMOOTH",
"389 458 OFFCURVE",
"314 477 OFFCURVE",
"265 477 CURVE SMOOTH",
"122 477 OFFCURVE",
"32 366 OFFCURVE",
"32 202 CURVE SMOOTH {name = hr00;}"
);
}
);
width = 419;
}
);
unicode = 0063;
},
{
glyphname = ccedilla;
layers = (
{
layerId = "129A270E-4E02-45CC-9025-B4018D2BAD31";
paths = (
{
closed = 1;
nodes = (
"181 -100 LINE",
"187 -99 OFFCURVE",
"194 -99 OFFCURVE",
"200 -99 CURVE SMOOTH",
"241 -99 OFFCURVE",
"279 -110 OFFCURVE",
"279 -146 CURVE SMOOTH",
"279 -201 OFFCURVE",
"234 -211 OFFCURVE",
"191 -211 CURVE SMOOTH",
"180 -211 OFFCURVE",
"163 -205 OFFCURVE",
"152 -205 CURVE SMOOTH",
"147 -205 OFFCURVE",
"137 -223 OFFCURVE",
"137 -236 CURVE SMOOTH",
"137 -257 OFFCURVE",
"203 -264 OFFCURVE",
"222 -264 CURVE SMOOTH",
"302 -264 OFFCURVE",
"374 -221 OFFCURVE",
"374 -141 CURVE SMOOTH",
"374 -84 OFFCURVE",
"312 -64 OFFCURVE",
"266 -64 CURVE",
"266 -14 LINE",
"315 -8 OFFCURVE",
"396 34 OFFCURVE",
"396 68 CURVE SMOOTH",
"396 74 OFFCURVE",
"390 82 OFFCURVE",
"373 82 CURVE SMOOTH",
"324 82 OFFCURVE",
"319 42 OFFCURVE",
"266 42 CURVE SMOOTH",
"164 42 OFFCURVE",
"124 144 OFFCURVE",
"124 240 CURVE SMOOTH",
"124 343 OFFCURVE",
"154 426 OFFCURVE",
"234 426 CURVE SMOOTH",
"274 426 OFFCURVE",
"290 412 OFFCURVE",
"297 351 CURVE SMOOTH",
"299 327 OFFCURVE",
"308 322 OFFCURVE",
"320 322 CURVE",
"351 327 OFFCURVE",
"389 344 OFFCURVE",
"389 387 CURVE SMOOTH",
"389 458 OFFCURVE",
"314 477 OFFCURVE",
"265 477 CURVE SMOOTH",
"122 477 OFFCURVE",
"32 366 OFFCURVE",
"32 202 CURVE SMOOTH",
"32 101 OFFCURVE",
"84 8 OFFCURVE",
"195 -12 CURVE {name = hr00;}"
);
}
);
width = 419;
}
);
unicode = 00E7;
},
{
glyphname = d;
lastChange = "2018-03-22 20:20:05 +0000";
layers = (
{
anchors = (
{
name = bottom;
position = "{261, 0}";
},
{
name = center;
position = "{261, 242}";
},
{
name = top;
position = "{261, 1196}";
},
{
name = topright;
position = "{502, 484}";
}
);
layerId = "129A270E-4E02-45CC-9025-B4018D2BAD31";
paths = (
{
closed = 1;
nodes = (
"29 62 OFFCURVE",
"121 -16 OFFCURVE",
"220 -16 CURVE SMOOTH",
"282 -16 OFFCURVE",
"324 7 OFFCURVE",
"361 45 CURVE",
"361 19 LINE SMOOTH {name = hr02;}",
"361 -6 OFFCURVE",
"375 -16 OFFCURVE",
"401 -16 CURVE SMOOTH",
"461 -16 OFFCURVE",
"499 25 OFFCURVE",
"499 35 CURVE SMOOTH",
"499 44 OFFCURVE",
"496 50 OFFCURVE",
"484 50 CURVE SMOOTH",
"468 50 OFFCURVE",
"453 43 OFFCURVE",
"440 43 CURVE",
"440 714 LINE",
"437 723 OFFCURVE",
"426 723 OFFCURVE",
"417 723 CURVE SMOOTH",
"350 723 OFFCURVE",
"276 707 OFFCURVE",
"276 673 CURVE SMOOTH",
"276 665 OFFCURVE",
"327 656 OFFCURVE",
"356 652 CURVE",
"356 558 LINE",
"361 466 LINE",
"338 473 OFFCURVE",
"311 477 OFFCURVE",
"283 477 CURVE SMOOTH",
"110 477 OFFCURVE",
"29 326 OFFCURVE",
"29 195 CURVE SMOOTH {name = hr01;}"
);
},
{
closed = 1;
nodes = (
"172 39 OFFCURVE",
"126 120 OFFCURVE",
"126 237 CURVE SMOOTH",
"126 353 OFFCURVE",
"159 419 OFFCURVE",
"248 419 CURVE SMOOTH",
"275 419 OFFCURVE",
"332 415 OFFCURVE",
"356 381 CURVE",
"357 77 LINE",
"329 52 OFFCURVE",
"293 39 OFFCURVE",
"264 39 CURVE SMOOTH"
);
}
);
width = 522;
}
);
unicode = 0064;
},
{
glyphname = eth;
layers = (
{
layerId = "129A270E-4E02-45CC-9025-B4018D2BAD31";
paths = (
{
closed = 1;
nodes = (
"383 -16 OFFCURVE",
"457 118 OFFCURVE",
"457 264 CURVE SMOOTH",
"457 322 OFFCURVE",
"450 412 OFFCURVE",
"422 472 CURVE SMOOTH",
"374 576 OFFCURVE",
"322 647 OFFCURVE",
"248 700 CURVE",
"271 726 OFFCURVE",
"311 766 OFFCURVE",
"311 787 CURVE SMOOTH",
"311 795 OFFCURVE",
"306 798 OFFCURVE",
"299 798 CURVE SMOOTH",
"262 798 OFFCURVE",
"235 752 OFFCURVE",
"211 725 CURVE",
"175 746 OFFCURVE",
"134 765 OFFCURVE",
"86 783 CURVE",
"69 783 OFFCURVE",
"45 769 OFFCURVE",
"45 755 CURVE SMOOTH",
"45 749 OFFCURVE",
"49 743 OFFCURVE",
"65 740 CURVE",
"105 726 OFFCURVE",
"141 707 OFFCURVE",
"174 684 CURVE",
"148 654 OFFCURVE",
"103 607 OFFCURVE",
"103 592 CURVE SMOOTH",
"103 585 OFFCURVE",
"109 585 OFFCURVE",
"118 585 CURVE SMOOTH",
"158 585 OFFCURVE",
"180 624 OFFCURVE",
"208 656 CURVE",
"266 605 OFFCURVE",
"309 538 OFFCURVE",
"340 465 CURVE",
"317 473 OFFCURVE",
"294 477 OFFCURVE",
"276 477 CURVE SMOOTH",
"108 477 OFFCURVE",
"37 341 OFFCURVE",
"37 222 CURVE SMOOTH",
"37 87 OFFCURVE",
"99 -16 OFFCURVE",
"216 -16 CURVE SMOOTH {name = hr00;}"
);
},
{
closed = 1;
nodes = (
"167 41 OFFCURVE",
"116 164 OFFCURVE",
"116 256 CURVE SMOOTH",
"116 348 OFFCURVE",
"154 421 OFFCURVE",
"239 421 CURVE SMOOTH",
"285 421 OFFCURVE",
"329 402 OFFCURVE",
"360 377 CURVE",
"373 331 OFFCURVE",
"378 292 OFFCURVE",
"378 232 CURVE SMOOTH",
"378 138 OFFCURVE",
"364 41 OFFCURVE",
"262 41 CURVE SMOOTH"
);
}
);
width = 495;
}
);
unicode = 00F0;
},
{
glyphname = dcaron;
layers = (
{
components = (
{
name = d;
transform = "{1, 0, 0, 1, -2, 0}";
}
);
layerId = "129A270E-4E02-45CC-9025-B4018D2BAD31";
paths = (
{
closed = 1;
nodes = (
"537 523 OFFCURVE",
"546 520 OFFCURVE",
"556 520 CURVE SMOOTH",
"568 520 OFFCURVE",
"582 524 OFFCURVE",
"587 535 CURVE",
"596 561 OFFCURVE",
"610 644 OFFCURVE",
"610 703 CURVE SMOOTH",
"610 737 OFFCURVE",
"608 763 OFFCURVE",
"539 763 CURVE SMOOTH",
"524 763 OFFCURVE",
"516 760 OFFCURVE",
"516 749 CURVE",
"537 526 LINE SMOOTH {name = hr00;}"
);
}
);
width = 587;
}
);
unicode = 010F;
},
{
glyphname = dcroat;
layers = (
{
layerId = "129A270E-4E02-45CC-9025-B4018D2BAD31";
paths = (
{
closed = 1;
nodes = (
"27 62 OFFCURVE",
"119 -16 OFFCURVE",
"218 -16 CURVE SMOOTH",
"280 -16 OFFCURVE",
"322 7 OFFCURVE",
"359 45 CURVE",
"359 19 LINE SMOOTH {name = hr02;}",
"359 -6 OFFCURVE",
"373 -16 OFFCURVE",
"399 -16 CURVE SMOOTH",
"459 -16 OFFCURVE",
"497 25 OFFCURVE",
"497 35 CURVE SMOOTH",
"497 44 OFFCURVE",
"494 50 OFFCURVE",
"482 50 CURVE SMOOTH",
"466 50 OFFCURVE",
"451 43 OFFCURVE",
"438 43 CURVE",
"438 533 LINE",
"482 533 LINE SMOOTH",
"501 533 OFFCURVE",
"535 543 OFFCURVE",
"535 579 CURVE SMOOTH",
"535 586 OFFCURVE",
"523 593 OFFCURVE",
"511 593 CURVE SMOOTH",
"438 593 LINE",
"438 714 LINE",
"435 723 OFFCURVE",
"424 723 OFFCURVE",
"415 723 CURVE SMOOTH",
"348 723 OFFCURVE",
"274 707 OFFCURVE",
"274 673 CURVE SMOOTH",
"274 665 OFFCURVE",
"325 656 OFFCURVE",
"354 652 CURVE",
"354 593 LINE",
"273 593 LINE SMOOTH",
"263 593 OFFCURVE",
"233 575 OFFCURVE",
"233 556 CURVE SMOOTH",
"233 541 OFFCURVE",
"245 533 OFFCURVE",
"252 533 CURVE SMOOTH",
"355 533 LINE",
"359 466 LINE",
"336 473 OFFCURVE",
"309 477 OFFCURVE",
"281 477 CURVE SMOOTH",
"108 477 OFFCURVE",
"27 326 OFFCURVE",
"27 195 CURVE SMOOTH {name = hr01;}"
);
},
{
closed = 1;
nodes = (
"170 39 OFFCURVE",
"124 120 OFFCURVE",
"124 237 CURVE SMOOTH",
"124 353 OFFCURVE",
"157 419 OFFCURVE",
"246 419 CURVE SMOOTH",
"273 419 OFFCURVE",
"330 415 OFFCURVE",
"354 381 CURVE",
"355 77 LINE",
"327 52 OFFCURVE",
"291 39 OFFCURVE",
"262 39 CURVE SMOOTH"
);
}
);
width = 520;
}
);
unicode = 0111;
},
{
glyphname = e;
lastChange = "2018-03-22 20:20:05 +0000";
layers = (
{
anchors = (
{
name = bottom;
position = "{241, 0}";
},
{
name = ogonek;
position = "{433, 10}";
},
{
name = top;
position = "{241, 484}";
}
);
layerId = "129A270E-4E02-45CC-9025-B4018D2BAD31";
paths = (
{
closed = 1;
nodes = (
"37 88 OFFCURVE",
"99 -16 OFFCURVE",
"241 -16 CURVE SMOOTH",
"340 -16 OFFCURVE",
"426 30 OFFCURVE",
"426 66 CURVE SMOOTH",
"426 72 OFFCURVE",
"422 77 OFFCURVE",
"412 77 CURVE SMOOTH",
"380 77 OFFCURVE",
"365 42 OFFCURVE",
"266 42 CURVE SMOOTH",
"174 42 OFFCURVE",
"134 131 OFFCURVE",
"129 221 CURVE",
"400 221 LINE SMOOTH",
"418 221 OFFCURVE",
"440 220 OFFCURVE",
"440 240 CURVE SMOOTH",
"437 343 OFFCURVE",
"417 477 OFFCURVE",
"265 477 CURVE SMOOTH",
"125 477 OFFCURVE",
"37 356 OFFCURVE",
"37 202 CURVE SMOOTH {name = hr00;}"
);
},
{
closed = 1;
nodes = (
"134 356 OFFCURVE",
"167 423 OFFCURVE",
"234 423 CURVE SMOOTH",
"325 423 OFFCURVE",
"339 356 OFFCURVE",
"341 273 CURVE",
"129 266 LINE"
);
}
);
width = 481;
}
);
unicode = 0065;
},
{
glyphname = eogonek;
layers = (
{
layerId = "129A270E-4E02-45CC-9025-B4018D2BAD31";
paths = (
{
closed = 1;
nodes = (
"37 88 OFFCURVE",
"99 -16 OFFCURVE",
"241 -16 CURVE SMOOTH",
"250 -16 OFFCURVE",
"258 -15 OFFCURVE",
"266 -15 CURVE",
"236 -37 OFFCURVE",
"213 -69 OFFCURVE",
"213 -113 CURVE SMOOTH",
"213 -172 OFFCURVE",
"262 -209 OFFCURVE",
"319 -209 CURVE SMOOTH",
"419 -209 OFFCURVE",
"430 -146 OFFCURVE",
"430 -136 CURVE SMOOTH",
"430 -131 OFFCURVE",
"425 -118 OFFCURVE",
"416 -118 CURVE SMOOTH",
"414 -118 OFFCURVE",
"413 -118 OFFCURVE",
"411 -119 CURVE SMOOTH",
"382 -136 OFFCURVE",
"359 -137 OFFCURVE",
"342 -137 CURVE SMOOTH",
"315 -137 OFFCURVE",
"304 -110 OFFCURVE",
"304 -95 CURVE SMOOTH",
"304 -13 OFFCURVE",
"367 4 OFFCURVE",
"414 42 CURVE SMOOTH",
"424 50 OFFCURVE",
"426 58 OFFCURVE",
"426 66 CURVE SMOOTH",
"426 72 OFFCURVE",
"422 77 OFFCURVE",
"412 77 CURVE SMOOTH",
"380 77 OFFCURVE",
"365 42 OFFCURVE",
"266 42 CURVE SMOOTH",
"174 42 OFFCURVE",
"134 131 OFFCURVE",
"129 221 CURVE",
"400 221 LINE SMOOTH",
"418 221 OFFCURVE",
"440 220 OFFCURVE",
"440 240 CURVE SMOOTH",
"437 343 OFFCURVE",
"417 477 OFFCURVE",
"265 477 CURVE SMOOTH",
"125 477 OFFCURVE",
"37 356 OFFCURVE",
"37 202 CURVE SMOOTH {name = hr00;}"
);
},
{
closed = 1;
nodes = (
"134 356 OFFCURVE",
"167 423 OFFCURVE",
"234 423 CURVE SMOOTH",
"325 423 OFFCURVE",
"339 356 OFFCURVE",
"341 273 CURVE",
"129 266 LINE"
);
}
);
width = 481;
}
);
unicode = 0119;
},
{
glyphname = f;
lastChange = "2018-03-22 20:20:05 +0000";
layers = (
{
anchors = (
{
name = bottom;
position = "{162, 0}";
},
{
name = top;
position = "{162, 1196}";
}
);
layerId = "129A270E-4E02-45CC-9025-B4018D2BAD31";
paths = (
{
closed = 1;
nodes = (
"35 12 OFFCURVE",
"38 0 OFFCURVE",
"54 0 CURVE SMOOTH",
"245 0 LINE SMOOTH",
"269 0 OFFCURVE",
"279 6 OFFCURVE",
"279 22 CURVE SMOOTH",
"279 58 OFFCURVE",
"186 35 OFFCURVE",
"183 72 CURVE",
"183 401 LINE",
"261 401 LINE",
"280 403 OFFCURVE",
"297 430 OFFCURVE",
"297 446 CURVE SMOOTH",
"297 451 OFFCURVE",
"293 457 OFFCURVE",
"280 458 CURVE",
"183 458 LINE",
"183 526 LINE SMOOTH",
"183 575 OFFCURVE",
"188 679 OFFCURVE",
"246 679 CURVE SMOOTH",
"298 679 OFFCURVE",
"268 614 OFFCURVE",
"300 614 CURVE SMOOTH",
"327 614 OFFCURVE",
"370 643 OFFCURVE",
"370 664 CURVE SMOOTH",
"370 711 OFFCURVE",
"314 733 OFFCURVE",
"287 733 CURVE SMOOTH",
"171 733 OFFCURVE",
"98 620 OFFCURVE",
"98 500 CURVE SMOOTH",
"98 458 LINE",
"86 456 OFFCURVE",
"22 430 OFFCURVE",
"22 413 CURVE SMOOTH",
"22 409 OFFCURVE",
"26 401 OFFCURVE",
"35 401 CURVE SMOOTH",
"98 401 LINE",
"98 51 LINE",
"85 44 OFFCURVE",
"35 35 OFFCURVE",
"35 20 CURVE SMOOTH {name = hr00;}"
);
}
);
width = 323;
}
);
unicode = 0066;
},
{
glyphname = g;
lastChange = "2021-01-26 18:04:08 +0000";
layers = (
{
anchors = (
{
name = bottom;
position = "{242, -557}";
},
{
name = top;
position = "{242, 484}";
}
);
layerId = "129A270E-4E02-45CC-9025-B4018D2BAD31";
paths = (
{
closed = 1;
nodes = (
"77 38 OFFCURVE",
"88 10 OFFCURVE",
"118 2 CURVE",
"71 -21 OFFCURVE",
"18 -64 OFFCURVE",
"18 -134 CURVE SMOOTH {name = hr02;}",
"18 -219 OFFCURVE",
"71 -277 OFFCURVE",
"177 -277 CURVE SMOOTH",
"282 -277 OFFCURVE",
"439 -215 OFFCURVE",
"439 -62 CURVE SMOOTH",
"439 5 OFFCURVE",
"377 53 OFFCURVE",
"221 58 CURVE",
"185 58 OFFCURVE",
"164 64 OFFCURVE",
"164 89 CURVE SMOOTH {name = hr03;}",
"164 118 OFFCURVE",
"176 142 OFFCURVE",
"189 160 CURVE",
"213 160 LINE SMOOTH",
"318 160 OFFCURVE",
"409 215 OFFCURVE",
"409 345 CURVE SMOOTH",
"409 388 OFFCURVE",
"387 423 OFFCURVE",
"354 446 CURVE",
"385 456 OFFCURVE",
"478 461 OFFCURVE",
"478 513 CURVE SMOOTH",
"478 532 OFFCURVE",
"458 545 OFFCURVE",
"442 545 CURVE SMOOTH",
"429 545 OFFCURVE",
"366 498 OFFCURVE",
"323 463 CURVE",
"300 472 OFFCURVE",
"274 477 OFFCURVE",
"247 477 CURVE SMOOTH",
"117 477 OFFCURVE",
"29 413 OFFCURVE",
"29 299 CURVE SMOOTH {name = hr04;}",
"29 224 OFFCURVE",
"72 181 OFFCURVE",
"144 166 CURVE",
"109 139 OFFCURVE",
"76 105 OFFCURVE",
"76 68 CURVE {name = hr01;}"
);
},
{
closed = 1;
nodes = (
"143 210 OFFCURVE",
"110 256 OFFCURVE",
"110 339 CURVE SMOOTH",
"110 407 OFFCURVE",
"137 428 OFFCURVE",
"211 428 CURVE SMOOTH",
"277 428 OFFCURVE",
"331 386 OFFCURVE",
"331 306 CURVE SMOOTH",
"331 234 OFFCURVE",
"290 210 OFFCURVE",
"226 210 CURVE SMOOTH {name = hr06;}"
);
},
{
closed = 1;
nodes = (
"101 -63 OFFCURVE",
"122 -26 OFFCURVE",
"163 0 CURVE",
"293 -4 OFFCURVE",
"359 -40 OFFCURVE",
"359 -89 CURVE SMOOTH",
"359 -177 OFFCURVE",
"345 -218 OFFCURVE",
"238 -218 CURVE SMOOTH",
"138 -218 OFFCURVE",
"101 -173 OFFCURVE",
"101 -107 CURVE SMOOTH {name = hr07;}"
);
}
);
width = 484;
}
);
unicode = 0067;
},
{
glyphname = h;
lastChange = "2018-03-22 20:20:05 +0000";
layers = (
{
anchors = (
{
name = bottom;
position = "{264, 0}";
},
{
name = center;
position = "{264, 598}";
},
{
name = top;
position = "{264, 1196}";
}
);
layerId = "129A270E-4E02-45CC-9025-B4018D2BAD31";
paths = (
{
closed = 1;
nodes = (
"20 12 OFFCURVE",
"23 0 OFFCURVE",
"39 0 CURVE SMOOTH",
"205 0 LINE SMOOTH",
"229 0 OFFCURVE",
"239 6 OFFCURVE",
"239 22 CURVE SMOOTH",
"239 57 OFFCURVE",
"161 33 OFFCURVE",
"161 74 CURVE SMOOTH",
"161 376 LINE",
"191 403 OFFCURVE",
"237 417 OFFCURVE",
"277 417 CURVE SMOOTH",
"330 417 OFFCURVE",
"365 382 OFFCURVE",
"365 289 CURVE SMOOTH",
"365 50 LINE",
"354 44 OFFCURVE",
"313 33 OFFCURVE",
"313 20 CURVE SMOOTH",
"313 12 OFFCURVE",
"316 0 OFFCURVE",
"332 0 CURVE SMOOTH",
"494 0 LINE SMOOTH",
"518 0 OFFCURVE",
"528 16 OFFCURVE",
"528 22 CURVE SMOOTH",
"528 56 OFFCURVE",
"451 33 OFFCURVE",
"451 74 CURVE SMOOTH",
"451 329 LINE SMOOTH",
"451 362 OFFCURVE",
"450 399 OFFCURVE",
"424 432 CURVE",
"426 432 LINE",
"405 469 OFFCURVE",
"362 477 OFFCURVE",
"317 477 CURVE SMOOTH",
"258 477 OFFCURVE",
"206 451 OFFCURVE",
"161 418 CURVE",
"161 714 LINE",
"158 723 OFFCURVE",
"149 723 OFFCURVE",
"138 723 CURVE SMOOTH",
"97 723 OFFCURVE",
"26 716 OFFCURVE",
"26 680 CURVE SMOOTH",
"26 672 OFFCURVE",
"44 663 OFFCURVE",
"73 659 CURVE",
"73 51 LINE",
"62 46 OFFCURVE",
"20 32 OFFCURVE",
"20 20 CURVE SMOOTH {name = hr00;}"
);
}
);
width = 527;
}
);
unicode = 0068;
},
{
glyphname = hbar;
layers = (
{
layerId = "129A270E-4E02-45CC-9025-B4018D2BAD31";
paths = (
{
closed = 1;
nodes = (
"30 12 OFFCURVE",
"33 0 OFFCURVE",
"49 0 CURVE SMOOTH",
"215 0 LINE SMOOTH",
"239 0 OFFCURVE",
"249 6 OFFCURVE",
"249 22 CURVE SMOOTH",
"249 55 OFFCURVE",
"174 35 OFFCURVE",
"171 70 CURVE",
"171 376 LINE",
"201 403 OFFCURVE",
"247 417 OFFCURVE",
"287 417 CURVE SMOOTH",
"340 417 OFFCURVE",
"375 382 OFFCURVE",
"375 289 CURVE SMOOTH",
"375 50 LINE",
"364 44 OFFCURVE",
"323 33 OFFCURVE",
"323 20 CURVE SMOOTH",
"323 12 OFFCURVE",
"326 0 OFFCURVE",
"342 0 CURVE SMOOTH",
"504 0 LINE SMOOTH",
"528 0 OFFCURVE",
"538 16 OFFCURVE",
"538 22 CURVE SMOOTH",
"538 55 OFFCURVE",
"464 35 OFFCURVE",
"461 70 CURVE",
"461 329 LINE SMOOTH",
"461 362 OFFCURVE",
"460 399 OFFCURVE",
"434 432 CURVE",
"436 432 LINE",
"415 469 OFFCURVE",
"372 477 OFFCURVE",
"327 477 CURVE SMOOTH",
"268 477 OFFCURVE",
"216 451 OFFCURVE",
"171 418 CURVE",
"171 538 LINE",
"252 538 LINE SMOOTH",
"271 538 OFFCURVE",
"305 548 OFFCURVE",
"305 584 CURVE SMOOTH",
"305 591 OFFCURVE",
"293 598 OFFCURVE",
"281 598 CURVE SMOOTH",
"171 598 LINE",
"171 714 LINE",
"168 723 OFFCURVE",
"159 723 OFFCURVE",
"148 723 CURVE SMOOTH",
"107 723 OFFCURVE",
"36 716 OFFCURVE",
"36 680 CURVE SMOOTH",
"36 672 OFFCURVE",
"54 663 OFFCURVE",
"83 659 CURVE",
"83 598 LINE",
"43 598 LINE SMOOTH",
"33 598 OFFCURVE",
"3 580 OFFCURVE",
"3 561 CURVE SMOOTH",
"3 546 OFFCURVE",
"15 538 OFFCURVE",
"22 538 CURVE SMOOTH",
"83 538 LINE",
"83 51 LINE",
"72 46 OFFCURVE",
"30 32 OFFCURVE",
"30 20 CURVE SMOOTH {name = hr00;}"
);
}
);
width = 537;
}
);
unicode = 0127;
},
{
glyphname = idotless;
lastChange = "2021-01-26 17:20:42 +0000";
layers = (
{
anchors = (
{
name = bottom;
position = "{140, 0}";
},
{
name = ogonek;
position = "{252, 10}";
},
{
name = top;
position = "{140, 484}";
}
);
layerId = "129A270E-4E02-45CC-9025-B4018D2BAD31";
paths = (
{
closed = 1;
nodes = (
"43 12 OFFCURVE",
"46 0 OFFCURVE",
"62 0 CURVE SMOOTH",
"228 0 LINE SMOOTH",
"252 0 OFFCURVE",
"262 9 OFFCURVE",
"262 22 CURVE SMOOTH",
"262 55 OFFCURVE",
"192 33 OFFCURVE",
"192 74 CURVE SMOOTH",
"192 457 LINE",
"190 465 OFFCURVE",
"171 467 OFFCURVE",
"159 467 CURVE SMOOTH",
"116 467 OFFCURVE",
"43 436 OFFCURVE",
"43 409 CURVE SMOOTH",
"43 399 OFFCURVE",
"81 385 OFFCURVE",
"108 380 CURVE",
"108 54 LINE",
"93 47 OFFCURVE",
"43 34 OFFCURVE",
"43 20 CURVE SMOOTH {name = hr00;}"
);
}
);
width = 280;
}
);
unicode = 0131;
},
{
glyphname = iogonek;
layers = (
{
layerId = "129A270E-4E02-45CC-9025-B4018D2BAD31";
paths = (
{
closed = 1;
nodes = (
"182 554 OFFCURVE",
"211 589 OFFCURVE",
"211 612 CURVE SMOOTH",
"211 630 OFFCURVE",
"195 658 OFFCURVE",
"133 658 CURVE SMOOTH",
"107 658 OFFCURVE",
"80 618 OFFCURVE",
"80 596 CURVE SMOOTH",
"80 587 OFFCURVE",
"95 554 OFFCURVE",
"156 554 CURVE SMOOTH {name = hr01;}"
);
},
{
closed = 1;
nodes = (
"43 12 OFFCURVE",
"46 0 OFFCURVE",
"62 0 CURVE SMOOTH",
"106 0 LINE",
"65 -23 OFFCURVE",
"29 -58 OFFCURVE",
"29 -113 CURVE SMOOTH",
"29 -172 OFFCURVE",
"78 -209 OFFCURVE",
"135 -209 CURVE SMOOTH",
"235 -209 OFFCURVE",
"246 -146 OFFCURVE",
"246 -136 CURVE SMOOTH",
"246 -131 OFFCURVE",
"241 -118 OFFCURVE",
"232 -118 CURVE SMOOTH",
"230 -118 OFFCURVE",
"229 -118 OFFCURVE",
"227 -119 CURVE SMOOTH",
"198 -136 OFFCURVE",
"175 -137 OFFCURVE",
"158 -137 CURVE SMOOTH",
"131 -137 OFFCURVE",
"120 -110 OFFCURVE",
"120 -95 CURVE SMOOTH",
"120 -49 OFFCURVE",
"140 -21 OFFCURVE",
"167 0 CURVE",
"228 0 LINE SMOOTH {name = hr03;}",
"252 0 OFFCURVE",
"262 9 OFFCURVE",
"262 22 CURVE SMOOTH",
"262 55 OFFCURVE",
"192 33 OFFCURVE",
"192 74 CURVE SMOOTH",
"192 457 LINE",
"190 465 OFFCURVE",
"171 467 OFFCURVE",
"159 467 CURVE SMOOTH",
"116 467 OFFCURVE",
"43 436 OFFCURVE",
"43 409 CURVE SMOOTH",
"43 399 OFFCURVE",
"81 385 OFFCURVE",
"108 380 CURVE",
"108 54 LINE",
"93 47 OFFCURVE",
"43 34 OFFCURVE",
"43 20 CURVE SMOOTH {name = hr02;}"
);
}
);
width = 280;
}
);
unicode = 012F;
},
{
glyphname = jdotless;
lastChange = "2021-01-26 17:20:42 +0000";
layers = (
{
anchors = (
{
name = bottom;
position = "{125, -557}";
},
{
name = top;
position = "{125, 484}";
}
);
layerId = "129A270E-4E02-45CC-9025-B4018D2BAD31";
paths = (
{
closed = 1;
nodes = (
"94 -65 OFFCURVE",
"87 -122 OFFCURVE",
"38 -159 CURVE SMOOTH",
"19 -173 OFFCURVE",
"8 -184 OFFCURVE",
"8 -194 CURVE SMOOTH",
"8 -201 OFFCURVE",
"18 -214 OFFCURVE",
"26 -214 CURVE SMOOTH",
"35 -214 OFFCURVE",
"44 -211 OFFCURVE",
"64 -199 CURVE SMOOTH",
"153 -148 OFFCURVE",
"181 -92 OFFCURVE",
"181 16 CURVE SMOOTH",
"181 457 LINE",
"179 465 OFFCURVE",
"160 467 OFFCURVE",
"147 467 CURVE SMOOTH",
"105 467 OFFCURVE",
"32 436 OFFCURVE",
"32 409 CURVE SMOOTH",
"32 399 OFFCURVE",
"67 385 OFFCURVE",
"94 380 CURVE",
"94 6 LINE SMOOTH {name = hr00;}"
);
}
);
width = 250;
}
);
unicode = 0237;
},
{
glyphname = k;
lastChange = "2018-03-22 20:20:05 +0000";
layers = (
{
anchors = (
{
name = bottom;
position = "{249, 0}";
},
{
name = top;
position = "{249, 1196}";
}
);
layerId = "129A270E-4E02-45CC-9025-B4018D2BAD31";
paths = (
{
closed = 1;
nodes = (
"20 12 OFFCURVE",
"23 0 OFFCURVE",
"39 0 CURVE SMOOTH",
"192 0 LINE SMOOTH",
"216 0 OFFCURVE",
"226 6 OFFCURVE",
"226 22 CURVE SMOOTH",
"226 55 OFFCURVE",
"158 33 OFFCURVE",
"158 74 CURVE SMOOTH",
"158 157 LINE",
"233 232 LINE",
"349 46 LINE",
"319 33 LINE SMOOTH",
"311 30 OFFCURVE",
"307 25 OFFCURVE",
"307 20 CURVE SMOOTH",
"307 12 OFFCURVE",
"310 0 OFFCURVE",
"326 0 CURVE SMOOTH",
"488 0 LINE SMOOTH",
"512 0 OFFCURVE",
"522 16 OFFCURVE",
"522 22 CURVE SMOOTH",
"522 48 OFFCURVE",
"458 43 OFFCURVE",
"441 63 CURVE",
"291 288 LINE",
"418 412 LINE",
"443 414 OFFCURVE",
"469 423 OFFCURVE",
"469 446 CURVE SMOOTH",
"469 453 OFFCURVE",
"461 458 OFFCURVE",
"438 458 CURVE SMOOTH",
"287 458 LINE SMOOTH",
"272 458 OFFCURVE",
"265 444 OFFCURVE",
"265 436 CURVE SMOOTH",
"265 422 OFFCURVE",
"303 416 OFFCURVE",
"327 412 CURVE",
"158 222 LINE",
"158 714 LINE",
"155 723 OFFCURVE",
"146 723 OFFCURVE",
"135 723 CURVE SMOOTH",
"94 723 OFFCURVE",
"23 716 OFFCURVE",
"23 680 CURVE SMOOTH",
"23 672 OFFCURVE",
"44 663 OFFCURVE",
"73 659 CURVE",
"73 51 LINE",
"62 46 OFFCURVE",
"20 32 OFFCURVE",
"20 20 CURVE SMOOTH {name = hr00;}"
);
}
);
width = 498;
}
);
unicode = 006B;
},
{
glyphname = kgreenlandic;
layers = (
{
layerId = "129A270E-4E02-45CC-9025-B4018D2BAD31";
paths = (
{
closed = 1;
nodes = (
"50 9 OFFCURVE",
"58 3 OFFCURVE",
"71 0 CURVE",
"197 0 LINE SMOOTH",
"228 0 OFFCURVE",
"238 5 OFFCURVE",
"238 11 CURVE SMOOTH",
"238 35 OFFCURVE",
"223 57 OFFCURVE",
"178 57 CURVE {name = hr02;}",
"178 168 LINE",
"243 233 LINE",
"366 45 LINE {name = hr03;}",
"328 41 OFFCURVE",
"312 26 OFFCURVE",
"312 12 CURVE SMOOTH",
"312 9 OFFCURVE",
"319 3 OFFCURVE",
"331 0 CURVE",
"482 0 LINE SMOOTH",
"505 0 OFFCURVE",
"517 9 OFFCURVE",
"517 19 CURVE SMOOTH",
"517 44 OFFCURVE",
"515 45 OFFCURVE",
"483 45 CURVE SMOOTH",
"477 45 OFFCURVE",
"470 49 OFFCURVE",
"460 63 CURVE SMOOTH",
"296 287 LINE",
"409 400 LINE",
"428 417 LINE",
"453 419 OFFCURVE",
"479 428 OFFCURVE",
"479 451 CURVE SMOOTH",
"479 458 OFFCURVE",
"471 463 OFFCURVE",
"448 463 CURVE SMOOTH",
"297 463 LINE SMOOTH",
"282 463 OFFCURVE",
"275 449 OFFCURVE",
"275 441 CURVE SMOOTH",
"275 427 OFFCURVE",
"313 421 OFFCURVE",
"337 417 CURVE",
"178 235 LINE",
"178 454 LINE",
"173 465 OFFCURVE",
"154 467 OFFCURVE",
"144 467 CURVE SMOOTH",
"102 467 OFFCURVE",
"34 436 OFFCURVE",
"34 409 CURVE SMOOTH",
"34 399 OFFCURVE",
"69 385 OFFCURVE",
"96 380 CURVE",
"96 54 LINE",
"77 45 OFFCURVE",
"50 25 OFFCURVE",
"50 12 CURVE SMOOTH {name = hr01;}"
);
}
);
width = 513;
}
);
unicode = 0138;
},
{
glyphname = l;
lastChange = "2018-03-22 20:20:05 +0000";
layers = (
{
anchors = (
{
name = bottom;
position = "{128, 0}";
},
{
name = center;
position = "{128, 598}";
},
{
name = top;
position = "{128, 1196}";
},
{
name = topright;
position = "{235, 1196}";
}
);
layerId = "129A270E-4E02-45CC-9025-B4018D2BAD31";
paths = (
{
closed = 1;
nodes = (
"31 12 OFFCURVE",
"34 0 OFFCURVE",
"50 0 CURVE SMOOTH",
"205 0 LINE SMOOTH",
"229 0 OFFCURVE",
"239 6 OFFCURVE",
"239 22 CURVE SMOOTH",
"239 56 OFFCURVE",
"168 33 OFFCURVE",
"168 74 CURVE SMOOTH",
"168 714 LINE",
"165 720 OFFCURVE",
"156 723 OFFCURVE",
"145 723 CURVE SMOOTH",
"103 723 OFFCURVE",
"31 716 OFFCURVE",
"31 680 CURVE SMOOTH",
"31 672 OFFCURVE",
"55 663 OFFCURVE",
"84 659 CURVE",
"84 51 LINE",
"73 46 OFFCURVE",
"31 32 OFFCURVE",
"31 20 CURVE SMOOTH {name = hr00;}"
);
}
);
width = 255;
}
);
unicode = 006C;
},
{
glyphname = lcaron;
layers = (
{
components = (
{
name = l;
transform = "{1, 0, 0, 1, 200, 0}";
}
);
layerId = "129A270E-4E02-45CC-9025-B4018D2BAD31";
paths = (
{
closed = 1;
nodes = (
"455 523 OFFCURVE",
"463 520 OFFCURVE",
"473 520 CURVE SMOOTH",
"485 520 OFFCURVE",
"498 524 OFFCURVE",
"503 535 CURVE",
"512 561 OFFCURVE",
"526 644 OFFCURVE",
"526 703 CURVE SMOOTH",
"526 737 OFFCURVE",
"524 763 OFFCURVE",
"455 763 CURVE SMOOTH",
"440 763 OFFCURVE",
"432 760 OFFCURVE",
"432 749 CURVE",
"455 526 LINE SMOOTH {name = hr00;}"
);
}
);
width = 501;
}
);
unicode = 013E;
},
{
glyphname = lslash;
layers = (
{
layerId = "129A270E-4E02-45CC-9025-B4018D2BAD31";
paths = (
{
closed = 1;
nodes = (
"37 12 OFFCURVE",
"40 0 OFFCURVE",
"56 0 CURVE SMOOTH",
"211 0 LINE SMOOTH",
"235 0 OFFCURVE",
"245 6 OFFCURVE",
"245 22 CURVE SMOOTH",
"245 56 OFFCURVE",
"174 33 OFFCURVE",
"174 74 CURVE SMOOTH",
"174 381 LINE",
"229 414 LINE SMOOTH",
"241 421 OFFCURVE",
"256 438 OFFCURVE",
"256 457 CURVE SMOOTH",
"256 465 OFFCURVE",
"251 483 OFFCURVE",
"239 483 CURVE SMOOTH",
"236 483 OFFCURVE",
"231 481 OFFCURVE",
"224 478 CURVE",
"174 448 LINE",
"174 714 LINE",
"171 720 OFFCURVE",
"162 723 OFFCURVE",
"151 723 CURVE SMOOTH",
"109 723 OFFCURVE",
"37 716 OFFCURVE",
"37 680 CURVE SMOOTH",
"37 672 OFFCURVE",
"61 663 OFFCURVE",
"90 659 CURVE",
"90 403 LINE",
"28 367 LINE SMOOTH",
"17 361 OFFCURVE",
"5 342 OFFCURVE",
"5 327 CURVE SMOOTH",
"5 309 OFFCURVE",
"20 302 OFFCURVE",
"29 302 CURVE SMOOTH",
"32 302 OFFCURVE",
"34 303 OFFCURVE",
"36 304 CURVE SMOOTH",
"90 336 LINE",
"90 51 LINE",
"79 46 OFFCURVE",
"37 32 OFFCURVE",
"37 20 CURVE SMOOTH {name = hr00;}"
);
}
);
width = 267;
}
);
unicode = 0142;
},
{
glyphname = m;
lastChange = "2018-03-22 20:20:05 +0000";
layers = (
{
anchors = (
{
name = bottom;
position = "{418, 0}";
},
{
name = top;
position = "{418, 484}";
}
);
layerId = "129A270E-4E02-45CC-9025-B4018D2BAD31";
paths = (
{
closed = 1;
nodes = (
"43 12 OFFCURVE",
"46 0 OFFCURVE",
"62 0 CURVE SMOOTH",
"216 0 LINE SMOOTH",
"240 0 OFFCURVE",
"250 6 OFFCURVE",
"250 22 CURVE SMOOTH",
"250 55 OFFCURVE",
"182 33 OFFCURVE",
"182 74 CURVE SMOOTH",
"183 370 LINE",
"213 401 OFFCURVE",
"260 417 OFFCURVE",
"300 417 CURVE SMOOTH",
"352 417 OFFCURVE",
"391 382 OFFCURVE",
"391 289 CURVE SMOOTH",
"391 51 LINE",
"381 46 OFFCURVE",
"340 32 OFFCURVE",
"340 20 CURVE SMOOTH",
"340 12 OFFCURVE",
"343 0 OFFCURVE",
"359 0 CURVE SMOOTH",
"510 0 LINE SMOOTH",
"534 0 OFFCURVE",
"544 16 OFFCURVE",
"544 22 CURVE SMOOTH",
"544 55 OFFCURVE",
"477 33 OFFCURVE",
"477 74 CURVE SMOOTH",
"477 329 LINE SMOOTH",
"477 342 OFFCURVE",
"476 355 OFFCURVE",
"474 369 CURVE",
"484 378 LINE",
"506 406 OFFCURVE",
"552 417 OFFCURVE",
"586 417 CURVE SMOOTH",
"638 417 OFFCURVE",
"672 382 OFFCURVE",
"673 289 CURVE SMOOTH",
"674 51 LINE",
"664 46 OFFCURVE",
"623 32 OFFCURVE",
"623 20 CURVE SMOOTH",
"623 12 OFFCURVE",
"626 0 OFFCURVE",
"642 0 CURVE SMOOTH",
"792 0 LINE SMOOTH",
"816 0 OFFCURVE",
"826 16 OFFCURVE",
"826 22 CURVE SMOOTH",
"826 54 OFFCURVE",
"760 35 OFFCURVE",
"759 70 CURVE",
"759 329 LINE SMOOTH",
"759 362 OFFCURVE",
"757 398 OFFCURVE",
"733 432 CURVE SMOOTH",
"709 467 OFFCURVE",
"667 477 OFFCURVE",
"625 477 CURVE SMOOTH",
"565 477 OFFCURVE",
"510 445 OFFCURVE",
"463 406 CURVE",
"438 462 OFFCURVE",
"394 477 OFFCURVE",
"340 477 CURVE SMOOTH",
"275 477 OFFCURVE",
"220 445 OFFCURVE",
"172 406 CURVE",
"172 457 LINE",
"170 465 OFFCURVE",
"161 467 OFFCURVE",
"148 467 CURVE SMOOTH",
"107 467 OFFCURVE",
"34 436 OFFCURVE",
"34 409 CURVE SMOOTH",
"34 399 OFFCURVE",
"69 385 OFFCURVE",
"96 380 CURVE",
"96 51 LINE",
"85 46 OFFCURVE",
"43 32 OFFCURVE",
"43 20 CURVE SMOOTH {name = hr00;}"
);
}
);
width = 835;
}
);
unicode = 006D;
},
{
glyphname = n;
lastChange = "2018-03-22 20:20:05 +0000";
layers = (
{
anchors = (
{
name = bottom;
position = "{277, 0}";
},
{
name = top;
position = "{277, 484}";
}
);
layerId = "129A270E-4E02-45CC-9025-B4018D2BAD31";
paths = (
{
closed = 1;
nodes = (
"43 12 OFFCURVE",
"46 0 OFFCURVE",
"62 0 CURVE SMOOTH",
"216 0 LINE SMOOTH",
"240 0 OFFCURVE",
"250 6 OFFCURVE",
"250 22 CURVE SMOOTH",
"250 55 OFFCURVE",
"182 33 OFFCURVE",
"182 74 CURVE SMOOTH",
"182 375 LINE",
"212 403 OFFCURVE",
"260 419 OFFCURVE",
"300 419 CURVE SMOOTH",
"352 419 OFFCURVE",
"390 384 OFFCURVE",
"390 291 CURVE SMOOTH",
"390 51 LINE",
"380 46 OFFCURVE",
"339 32 OFFCURVE",
"339 20 CURVE SMOOTH",
"339 12 OFFCURVE",
"342 0 OFFCURVE",
"358 0 CURVE SMOOTH",
"503 0 LINE SMOOTH",
"527 0 OFFCURVE",
"537 16 OFFCURVE",
"537 22 CURVE SMOOTH",
"537 52 OFFCURVE",
"479 35 OFFCURVE",
"478 68 CURVE",
"478 329 LINE SMOOTH",
"478 363 OFFCURVE",
"473 397 OFFCURVE",
"447 432 CURVE SMOOTH",
"421 466 OFFCURVE",
"385 477 OFFCURVE",
"339 477 CURVE SMOOTH",
"271 477 OFFCURVE",
"219 447 OFFCURVE",
"172 406 CURVE",
"172 457 LINE",
"170 465 OFFCURVE",
"161 467 OFFCURVE",
"148 467 CURVE SMOOTH",
"107 467 OFFCURVE",
"34 436 OFFCURVE",
"34 409 CURVE SMOOTH",
"34 399 OFFCURVE",
"69 385 OFFCURVE",
"96 380 CURVE",
"96 51 LINE",
"85 46 OFFCURVE",
"43 32 OFFCURVE",
"43 20 CURVE SMOOTH {name = hr00;}"
);
}
);
width = 554;
}
);
unicode = 006E;
},
{
glyphname = eng;
layers = (
{
layerId = "129A270E-4E02-45CC-9025-B4018D2BAD31";
paths = (
{
closed = 1;
nodes = (
"50 9 OFFCURVE",
"58 3 OFFCURVE",
"71 0 CURVE",
"197 0 LINE SMOOTH",
"228 0 OFFCURVE",
"238 5 OFFCURVE",
"238 11 CURVE SMOOTH",
"238 35 OFFCURVE",
"227 57 OFFCURVE",
"182 57 CURVE",
"182 375 LINE",
"212 403 OFFCURVE",
"260 420 OFFCURVE",
"300 420 CURVE SMOOTH",
"352 420 OFFCURVE",
"389 384 OFFCURVE",
"390 291 CURVE SMOOTH",
"392 6 LINE SMOOTH",
"392 -64 OFFCURVE",
"386 -125 OFFCURVE",
"337 -161 CURVE",
"319 -177 OFFCURVE",
"307 -194 OFFCURVE",
"307 -205 CURVE SMOOTH",
"307 -210 OFFCURVE",
"311 -214 OFFCURVE",
"319 -214 CURVE SMOOTH",
"326 -214 OFFCURVE",
"341 -211 OFFCURVE",
"360 -199 CURVE SMOOTH",
"459 -136 OFFCURVE",
"479 -91 OFFCURVE",
"479 16 CURVE SMOOTH",
"478 329 LINE SMOOTH",
"478 398 OFFCURVE",
"442 478 OFFCURVE",
"339 478 CURVE SMOOTH",
"271 478 OFFCURVE",
"219 447 OFFCURVE",
"172 406 CURVE",
"172 457 LINE",
"170 465 OFFCURVE",
"161 467 OFFCURVE",
"148 467 CURVE SMOOTH",
"107 467 OFFCURVE",
"34 436 OFFCURVE",
"34 409 CURVE SMOOTH",
"34 399 OFFCURVE",
"69 385 OFFCURVE",
"96 380 CURVE",
"96 54 LINE",
"77 45 OFFCURVE",
"50 25 OFFCURVE",
"50 12 CURVE SMOOTH {name = hr00;}"
);
}
);
width = 554;
}
);
unicode = 014B;
},
{
glyphname = o;
lastChange = "2018-03-22 20:20:05 +0000";
layers = (
{
anchors = (
{
name = bottom;
position = "{264, 0}";
},
{
name = center;
position = "{264, 242}";
},
{
name = ogonek;
position = "{475, 10}";
},
{
name = top;
position = "{264, 484}";
},
{
name = topright;
position = "{508, 484}";
}
);
layerId = "129A270E-4E02-45CC-9025-B4018D2BAD31";
paths = (
{
closed = 1;
nodes = (
"44 59 OFFCURVE",
"131 -16 OFFCURVE",
"241 -16 CURVE SMOOTH",
"300 -16 OFFCURVE",
"364 5 OFFCURVE",
"407 43 CURVE SMOOTH",
"465 94 OFFCURVE",
"484 179 OFFCURVE",
"484 244 CURVE SMOOTH",
"484 353 OFFCURVE",
"428 477 OFFCURVE",
"283 477 CURVE SMOOTH",
"125 477 OFFCURVE",
"44 345 OFFCURVE",
"44 210 CURVE SMOOTH {name = hr00;}"
);
},
{
closed = 1;
nodes = (
"135 335 OFFCURVE",
"164 429 OFFCURVE",
"244 429 CURVE SMOOTH",
"358 429 OFFCURVE",
"394 309 OFFCURVE",
"394 210 CURVE SMOOTH",
"394 120 OFFCURVE",
"366 32 OFFCURVE",
"286 32 CURVE SMOOTH",
"170 32 OFFCURVE",
"135 149 OFFCURVE",
"135 244 CURVE SMOOTH"
);
}
);
width = 528;
}
);
unicode = 006F;
},
{
glyphname = oslash;
layers = (
{
layerId = "129A270E-4E02-45CC-9025-B4018D2BAD31";
paths = (
{
closed = 1;
nodes = (
"96 -69 OFFCURVE",
"94 -75 OFFCURVE",
"94 -79 CURVE SMOOTH",
"94 -91 OFFCURVE",
"102 -95 OFFCURVE",
"113 -95 CURVE SMOOTH",
"130 -95 OFFCURVE",
"143 -84 OFFCURVE",
"155 -70 CURVE",
"189 -10 LINE",
"206 -14 OFFCURVE",
"223 -16 OFFCURVE",
"241 -16 CURVE SMOOTH",
"300 -16 OFFCURVE",
"364 5 OFFCURVE",
"407 43 CURVE SMOOTH",
"465 94 OFFCURVE",
"484 179 OFFCURVE",
"484 244 CURVE SMOOTH",
"484 319 OFFCURVE",
"457 401 OFFCURVE",
"393 445 CURVE",
"437 528 LINE SMOOTH",
"440 535 OFFCURVE",
"441 540 OFFCURVE",
"441 545 CURVE SMOOTH",
"441 555 OFFCURVE",
"434 559 OFFCURVE",
"424 559 CURVE SMOOTH",
"404 559 OFFCURVE",
"384 543 OFFCURVE",
"373 527 CURVE",
"345 468 LINE",
"327 473 OFFCURVE",
"306 477 OFFCURVE",
"283 477 CURVE SMOOTH",
"125 477 OFFCURVE",
"44 345 OFFCURVE",
"44 210 CURVE SMOOTH",
"44 111 OFFCURVE",
"81 44 OFFCURVE",
"138 10 CURVE",
"126 -12 OFFCURVE",
"111 -36 OFFCURVE",
"99 -61 CURVE SMOOTH {name = hr01;}"
);
},
{
closed = 1;
nodes = (
"147 126 OFFCURVE",
"135 189 OFFCURVE",
"135 244 CURVE SMOOTH",
"135 335 OFFCURVE",
"164 429 OFFCURVE",
"244 429 CURVE SMOOTH",
"274 429 OFFCURVE",
"298 420 OFFCURVE",
"318 406 CURVE",
"179 83 LINE"
);
},
{
closed = 1;
nodes = (
"353 370 LINE",
"383 326 OFFCURVE",
"394 265 OFFCURVE",
"394 210 CURVE SMOOTH",
"394 120 OFFCURVE",
"366 32 OFFCURVE",
"286 32 CURVE SMOOTH",
"257 32 OFFCURVE",
"234 39 OFFCURVE",
"214 51 CURVE {name = hr02;}"
);
}
);
width = 528;
}
);
unicode = 00F8;
},
{
glyphname = oe;
layers = (
{
layerId = "129A270E-4E02-45CC-9025-B4018D2BAD31";
paths = (
{
closed = 1;
nodes = (
"42 59 OFFCURVE",
"129 -16 OFFCURVE",
"239 -16 CURVE SMOOTH",
"307 -16 OFFCURVE",
"386 13 OFFCURVE",
"425 69 CURVE",
"457 18 OFFCURVE",
"513 -16 OFFCURVE",
"599 -16 CURVE SMOOTH {name = hr02;}",
"698 -16 OFFCURVE",
"784 31 OFFCURVE",
"784 68 CURVE SMOOTH",
"784 74 OFFCURVE",
"778 82 OFFCURVE",
"758 82 CURVE SMOOTH",
"712 82 OFFCURVE",
"718 42 OFFCURVE",
"621 42 CURVE SMOOTH",
"526 42 OFFCURVE",
"485 131 OFFCURVE",
"480 221 CURVE",
"760 221 LINE SMOOTH",
"781 221 OFFCURVE",
"803 220 OFFCURVE",
"803 240 CURVE SMOOTH",
"800 343 OFFCURVE",
"779 477 OFFCURVE",
"620 477 CURVE SMOOTH",
"542 477 OFFCURVE",
"480 440 OFFCURVE",
"440 380 CURVE",
"410 435 OFFCURVE",
"358 475 OFFCURVE",
"281 475 CURVE SMOOTH {name = hr03;}",
"215 475 OFFCURVE",
"150 450 OFFCURVE",
"115 408 CURVE",
"116 408 LINE",
"62 349 OFFCURVE",
"42 289 OFFCURVE",
"42 210 CURVE SMOOTH {name = hr01;}"
);
},
{
closed = 1;
nodes = (
"135 345 OFFCURVE",
"167 426 OFFCURVE",
"242 426 CURVE SMOOTH {name = hr05;}",
"355 426 OFFCURVE",
"390 309 OFFCURVE",
"390 210 CURVE SMOOTH",
"390 120 OFFCURVE",
"363 33 OFFCURVE",
"284 33 CURVE SMOOTH",
"168 33 OFFCURVE",
"135 149 OFFCURVE",
"135 244 CURVE SMOOTH"
);
},
{
closed = 1;
nodes = (
"483 351 OFFCURVE",
"516 423 OFFCURVE",
"592 423 CURVE SMOOTH",
"690 423 OFFCURVE",
"703 351 OFFCURVE",
"705 263 CURVE",
"480 255 LINE"
);
}
);
width = 847;
}
);
unicode = 0153;
},
{
glyphname = p;
lastChange = "2018-03-22 20:20:05 +0000";
layers = (
{
anchors = (
{
name = bottom;
position = "{262, 0}";
},
{
name = top;
position = "{262, 484}";
}
);
layerId = "129A270E-4E02-45CC-9025-B4018D2BAD31";
paths = (
{
closed = 1;
nodes = (
"189 -12 OFFCURVE",
"213 -16 OFFCURVE",
"238 -16 CURVE SMOOTH {name = hr02;}",
"412 -16 OFFCURVE",
"495 131 OFFCURVE",
"495 266 CURVE SMOOTH",
"495 400 OFFCURVE",
"403 477 OFFCURVE",
"305 477 CURVE SMOOTH",
"239 477 OFFCURVE",
"199 452 OFFCURVE",
"164 412 CURVE",
"164 453 LINE",
"161 464 OFFCURVE",
"152 467 OFFCURVE",
"138 467 CURVE SMOOTH",
"98 467 OFFCURVE",
"23 429 OFFCURVE",
"23 402 CURVE SMOOTH",
"23 392 OFFCURVE",
"55 375 OFFCURVE",
"84 370 CURVE",
"84 -166 LINE",
"73 -171 OFFCURVE",
"31 -185 OFFCURVE",
"31 -197 CURVE SMOOTH",
"31 -205 OFFCURVE",
"34 -217 OFFCURVE",
"50 -217 CURVE SMOOTH",
"212 -217 LINE SMOOTH",
"236 -217 OFFCURVE",
"246 -211 OFFCURVE",
"246 -195 CURVE SMOOTH",
"246 -160 OFFCURVE",
"168 -184 OFFCURVE",
"168 -143 CURVE SMOOTH",
"168 -5 LINE {name = hr01;}"
);
},
{
closed = 1;
nodes = (
"168 374 LINE",
"194 406 OFFCURVE",
"225 421 OFFCURVE",
"261 421 CURVE SMOOTH",
"349 421 OFFCURVE",
"398 341 OFFCURVE",
"398 222 CURVE SMOOTH",
"398 124 OFFCURVE",
"369 41 OFFCURVE",
"277 41 CURVE SMOOTH",
"247 41 OFFCURVE",
"186 49 OFFCURVE",
"168 88 CURVE"
);
}
);
width = 524;
}
);
unicode = 0070;
},
{
glyphname = thorn;
layers = (
{
layerId = "129A270E-4E02-45CC-9025-B4018D2BAD31";
paths = (
{
closed = 1;
nodes = (
"165 -10 OFFCURVE",
"194 -16 OFFCURVE",
"225 -16 CURVE SMOOTH {name = hr02;}",
"398 -16 OFFCURVE",
"481 132 OFFCURVE",
"481 266 CURVE SMOOTH",
"481 400 OFFCURVE",
"390 477 OFFCURVE",
"290 477 CURVE SMOOTH",
"231 477 OFFCURVE",
"184 452 OFFCURVE",
"144 416 CURVE",
"154 561 LINE",
"154 704 LINE",
"151 710 OFFCURVE",
"142 713 OFFCURVE",
"131 713 CURVE SMOOTH",
"91 713 OFFCURVE",
"23 705 OFFCURVE",
"23 670 CURVE SMOOTH",
"23 662 OFFCURVE",
"41 653 OFFCURVE",
"70 649 CURVE",
"70 -175 LINE",
"49 -184 OFFCURVE",
"25 -194 OFFCURVE",
"25 -206 CURVE SMOOTH",
"25 -210 OFFCURVE",
"32 -215 OFFCURVE",
"44 -218 CURVE",
"159 -218 LINE SMOOTH",
"204 -218 OFFCURVE",
"213 -213 OFFCURVE",
"213 -207 CURVE SMOOTH",
"213 -183 OFFCURVE",
"198 -173 OFFCURVE",
"151 -173 CURVE",
"151 -64 LINE {name = hr03;}",
"141 -1 LINE {name = hr01;}"
);
},
{
closed = 1;
nodes = (
"151 380 LINE",
"178 409 OFFCURVE",
"213 421 OFFCURVE",
"244 421 CURVE SMOOTH",
"336 421 OFFCURVE",
"390 341 OFFCURVE",
"390 222 CURVE SMOOTH",
"390 124 OFFCURVE",
"351 41 OFFCURVE",
"261 41 CURVE SMOOTH",
"236 41 OFFCURVE",
"177 48 OFFCURVE",
"152 81 CURVE {name = hr04;}"
);
}
);
width = 510;
}
);
unicode = 00FE;
},
{
glyphname = q;
lastChange = "2018-03-22 20:20:05 +0000";
layers = (
{
anchors = (
{
name = bottom;
position = "{252, 0}";
},
{
name = top;
position = "{252, 484}";
}
);
layerId = "129A270E-4E02-45CC-9025-B4018D2BAD31";
paths = (
{
closed = 1;
nodes = (
"29 62 OFFCURVE",
"117 -16 OFFCURVE",
"220 -16 CURVE SMOOTH",
"274 -16 OFFCURVE",
"319 1 OFFCURVE",
"357 30 CURVE",
"357 -166 LINE",
"344 -171 OFFCURVE",
"281 -182 OFFCURVE",
"281 -197 CURVE SMOOTH",
"281 -205 OFFCURVE",
"284 -217 OFFCURVE",
"300 -217 CURVE SMOOTH",
"462 -217 LINE SMOOTH",
"486 -217 OFFCURVE",
"496 -211 OFFCURVE",
"496 -195 CURVE SMOOTH",
"496 -164 OFFCURVE",
"440 -185 OFFCURVE",
"440 -143 CURVE SMOOTH",
"440 453 LINE",
"437 464 OFFCURVE",
"428 467 OFFCURVE",
"419 467 CURVE SMOOTH",
"404 467 OFFCURVE",
"388 464 OFFCURVE",
"373 460 CURVE",
"348 470 OFFCURVE",
"318 477 OFFCURVE",
"285 477 CURVE SMOOTH",
"111 477 OFFCURVE",
"29 327 OFFCURVE",
"29 195 CURVE SMOOTH {name = hr00;}"
);
},
{
closed = 1;
nodes = (
"120 337 OFFCURVE",
"159 419 OFFCURVE",
"248 419 CURVE SMOOTH",
"275 419 OFFCURVE",
"332 411 OFFCURVE",
"357 378 CURVE",
"357 88 LINE",
"330 55 OFFCURVE",
"298 39 OFFCURVE",
"266 39 CURVE SMOOTH",
"174 39 OFFCURVE",
"120 120 OFFCURVE",
"120 237 CURVE SMOOTH"
);
}
);
width = 503;
}
);
unicode = 0071;
},
{
glyphname = r;
lastChange = "2018-03-22 20:20:05 +0000";
layers = (
{
anchors = (
{
name = bottom;
position = "{197, 0}";
},
{
name = top;
position = "{197, 484}";
}
);
layerId = "129A270E-4E02-45CC-9025-B4018D2BAD31";
paths = (
{
closed = 1;
nodes = (
"38 12 OFFCURVE",
"41 0 OFFCURVE",
"57 0 CURVE SMOOTH",
"237 0 LINE SMOOTH",
"261 0 OFFCURVE",
"271 6 OFFCURVE",
"271 22 CURVE SMOOTH",
"271 57 OFFCURVE",
"178 35 OFFCURVE",
"177 72 CURVE",
"177 279 LINE SMOOTH",
"177 324 OFFCURVE",
"220 410 OFFCURVE",
"257 410 CURVE SMOOTH",
"282 410 OFFCURVE",
"294 403 OFFCURVE",
"300 373 CURVE SMOOTH",
"303 355 OFFCURVE",
"310 352 OFFCURVE",
"321 352 CURVE",
"347 355 OFFCURVE",
"382 377 OFFCURVE",
"382 401 CURVE SMOOTH",
"382 463 OFFCURVE",
"323 477 OFFCURVE",
"300 477 CURVE SMOOTH",
"240 477 OFFCURVE",
"195 426 OFFCURVE",
"167 364 CURVE",
"167 457 LINE",
"165 465 OFFCURVE",
"153 467 OFFCURVE",
"143 467 CURVE SMOOTH",
"102 467 OFFCURVE",
"29 436 OFFCURVE",
"29 409 CURVE SMOOTH",
"29 399 OFFCURVE",
"64 385 OFFCURVE",
"91 380 CURVE",
"91 51 LINE",
"80 46 OFFCURVE",
"38 32 OFFCURVE",
"38 20 CURVE SMOOTH {name = hr00;}"
);
}
);
width = 393;
}
);
unicode = 0072;
},
{
glyphname = s;
lastChange = "2021-01-26 18:06:03 +0000";
layers = (
{
anchors = (
{
name = bottom;
position = "{207, 0}";
},
{
name = top;
position = "{205, 484}";
}
);
layerId = "129A270E-4E02-45CC-9025-B4018D2BAD31";
paths = (
{
closed = 1;
nodes = (
"71 8 OFFCURVE",
"140 -16 OFFCURVE",
"190 -16 CURVE SMOOTH",
"279 -16 OFFCURVE",
"376 32 OFFCURVE",
"376 123 CURVE SMOOTH",
"376 278 OFFCURVE",
"130 261 OFFCURVE",
"130 366 CURVE SMOOTH",
"130 407 OFFCURVE",
"158 422 OFFCURVE",
"187 422 CURVE SMOOTH",
"262 422 OFFCURVE",
"283 408 OFFCURVE",
"295 378 CURVE {name = hr02;}",
"295 378 OFFCURVE",
"309 328 OFFCURVE",
"325 328 CURVE SMOOTH",
"351 328 OFFCURVE",
"349 390 OFFCURVE",
"349 418 CURVE SMOOTH",
"349 444 OFFCURVE",
"313 477 OFFCURVE",
"233 477 CURVE SMOOTH",
"150 477 OFFCURVE",
"55 422 OFFCURVE",
"55 332 CURVE SMOOTH",
"55 180 OFFCURVE",
"295 207 OFFCURVE",
"295 94 CURVE SMOOTH {name = hr03;}",
"295 56 OFFCURVE",
"259 33 OFFCURVE",
"224 33 CURVE SMOOTH",
"170 33 OFFCURVE",
"123 62 OFFCURVE",
"108 88 CURVE SMOOTH",
"99 103 OFFCURVE",
"91 150 OFFCURVE",
"75 150 CURVE SMOOTH",
"43 150 OFFCURVE",
"51 79 OFFCURVE",
"48 44 CURVE {name = hr01;}"
);
}
);
width = 409;
}
);
unicode = 0073;
},
{
glyphname = germandbls;
layers = (
{
layerId = "129A270E-4E02-45CC-9025-B4018D2BAD31";
paths = (
{
closed = 1;
nodes = (
"91 -12 OFFCURVE",
"99 -16 OFFCURVE",
"108 -16 CURVE SMOOTH",
"129 -16 OFFCURVE",
"164 2 OFFCURVE",
"169 17 CURVE",
"169 539 LINE SMOOTH",
"169 578 OFFCURVE",
"177 672 OFFCURVE",
"259 672 CURVE SMOOTH",
"328 672 OFFCURVE",
"348 626 OFFCURVE",
"348 567 CURVE SMOOTH {name = hr02;}",
"348 470 OFFCURVE",
"244 468 OFFCURVE",
"244 383 CURVE SMOOTH",
"244 297 OFFCURVE",
"408 265 OFFCURVE",
"408 153 CURVE SMOOTH {name = hr03;}",
"408 72 OFFCURVE",
"394 61 OFFCURVE",
"310 61 CURVE SMOOTH",
"266 61 OFFCURVE",
"258 50 OFFCURVE",
"258 12 CURVE SMOOTH",
"258 7 OFFCURVE",
"262 3 OFFCURVE",
"272 0 CURVE",
"316 0 LINE SMOOTH",
"416 0 OFFCURVE",
"488 79 OFFCURVE",
"488 186 CURVE SMOOTH",
"488 318 OFFCURVE",
"316 352 OFFCURVE",
"315 416 CURVE SMOOTH",
"315 422 OFFCURVE",
"315 427 OFFCURVE",
"317 433 CURVE",
"386 492 OFFCURVE",
"429 502 OFFCURVE",
"429 602 CURVE SMOOTH {name = hr04;}",
"429 685 OFFCURVE",
"358 729 OFFCURVE",
"300 729 CURVE SMOOTH",
"162 729 OFFCURVE",
"90 587 OFFCURVE",
"85 458 CURVE",
"42 458 LINE SMOOTH",
"23 458 OFFCURVE",
"11 435 OFFCURVE",
"11 420 CURVE SMOOTH",
"11 410 OFFCURVE",
"14 402 OFFCURVE",
"31 402 CURVE SMOOTH",
"85 402 LINE",
"85 -4 LINE {name = hr01;}"
);
}
);
width = 515;
}
);
unicode = 00DF;
},
{
glyphname = t;
lastChange = "2021-01-26 18:06:10 +0000";
layers = (
{
anchors = (
{
name = bottom;
position = "{169, 0}";
},
{
name = center;
position = "{161, 242}";
},
{
name = top;
position = "{161, 484}";
},
{
name = topright;
position = "{301, 484}";
}
);
layerId = "129A270E-4E02-45CC-9025-B4018D2BAD31";
paths = (
{
closed = 1;
nodes = (
"82 12 OFFCURVE",
"113 -13 OFFCURVE",
"146 -13 CURVE SMOOTH",
"208 -13 OFFCURVE",
"298 7 OFFCURVE",
"298 40 CURVE SMOOTH",
"298 42 OFFCURVE",
"299 57 OFFCURVE",
"279 57 CURVE SMOOTH",
"256 57 OFFCURVE",
"235 46 OFFCURVE",
"217 46 CURVE SMOOTH",
"170 46 OFFCURVE",
"169 52 OFFCURVE",
"169 147 CURVE SMOOTH",
"169 402 LINE",
"253 402 LINE",
"272 403 OFFCURVE",
"284 424 OFFCURVE",
"284 440 CURVE SMOOTH",
"284 450 OFFCURVE",
"281 458 OFFCURVE",
"264 458 CURVE SMOOTH",
"169 458 LINE",
"169 582 LINE",
"164 585 OFFCURVE",
"148 586 OFFCURVE",
"138 586 CURVE SMOOTH",
"109 586 OFFCURVE",
"108 512 OFFCURVE",
"90 478 CURVE",
"60 430 OFFCURVE",
"32 444 OFFCURVE",
"32 418 CURVE SMOOTH",
"32 413 OFFCURVE",
"34 404 OFFCURVE",
"40 402 CURVE",
"82 402 LINE",
"82 57 LINE SMOOTH {name = hr00;}"
);
}
);
width = 321;
}
);
unicode = 0074;
},
{
glyphname = tbar;
layers = (
{
layerId = "129A270E-4E02-45CC-9025-B4018D2BAD31";
paths = (
{
closed = 1;
nodes = (
"82 12 OFFCURVE",
"113 -13 OFFCURVE",
"146 -13 CURVE SMOOTH",
"208 -13 OFFCURVE",
"298 7 OFFCURVE",
"298 40 CURVE SMOOTH",
"298 42 OFFCURVE",
"299 57 OFFCURVE",
"279 57 CURVE SMOOTH",
"256 57 OFFCURVE",
"235 46 OFFCURVE",
"217 46 CURVE SMOOTH",
"170 46 OFFCURVE",
"169 52 OFFCURVE",
"169 147 CURVE SMOOTH",
"169 231 LINE",
"246 231 LINE SMOOTH",
"268 231 OFFCURVE",
"292 240 OFFCURVE",
"292 267 CURVE SMOOTH",
"292 274 OFFCURVE",
"289 281 OFFCURVE",
"270 281 CURVE SMOOTH",
"169 281 LINE",
"169 402 LINE",
"253 402 LINE",
"272 403 OFFCURVE",
"284 424 OFFCURVE",
"284 440 CURVE SMOOTH",
"284 450 OFFCURVE",
"281 458 OFFCURVE",
"264 458 CURVE SMOOTH",
"169 458 LINE",
"169 582 LINE",
"164 585 OFFCURVE",
"148 586 OFFCURVE",
"138 586 CURVE SMOOTH",
"109 586 OFFCURVE",
"108 512 OFFCURVE",
"90 478 CURVE",
"60 430 OFFCURVE",
"32 444 OFFCURVE",
"32 418 CURVE SMOOTH",
"32 413 OFFCURVE",
"34 404 OFFCURVE",
"40 402 CURVE",
"82 402 LINE",
"82 281 LINE",
"78 281 LINE SMOOTH",
"62 281 OFFCURVE",
"38 274 OFFCURVE",
"38 255 CURVE SMOOTH",
"38 239 OFFCURVE",
"50 231 OFFCURVE",
"60 231 CURVE SMOOTH",
"82 231 LINE",
"82 57 LINE SMOOTH {name = hr00;}"
);
}
);
width = 321;
}
);
unicode = 0167;
},
{
glyphname = tcaron;
layers = (
{
components = (
{
name = t;
}
);
layerId = "129A270E-4E02-45CC-9025-B4018D2BAD31";
paths = (
{
closed = 1;
nodes = (
"237 533 OFFCURVE",
"246 530 OFFCURVE",
"256 530 CURVE SMOOTH",
"268 530 OFFCURVE",
"282 534 OFFCURVE",
"287 545 CURVE",
"296 571 OFFCURVE",
"310 654 OFFCURVE",
"310 713 CURVE SMOOTH",
"310 748 OFFCURVE",
"307 774 OFFCURVE",
"239 774 CURVE SMOOTH",
"224 774 OFFCURVE",
"216 770 OFFCURVE",
"216 760 CURVE",
"237 536 LINE SMOOTH {name = hr00;}"
);
}
);
width = 321;
}
);
unicode = 0165;
},
{
glyphname = u;
lastChange = "2018-03-22 20:20:05 +0000";
layers = (
{
anchors = (
{
name = bottom;
position = "{251, 0}";
},
{
name = ogonek;
position = "{452, 10}";
},
{
name = top;
position = "{251, 484}";
},
{
name = topright;
position = "{482, 484}";
}
);
layerId = "129A270E-4E02-45CC-9025-B4018D2BAD31";
paths = (
{
closed = 1;
nodes = (
"112 -5 OFFCURVE",
"160 -16 OFFCURVE",
"200 -16 CURVE SMOOTH",
"261 -16 OFFCURVE",
"302 10 OFFCURVE",
"342 44 CURVE",
"342 19 LINE SMOOTH {name = hr02;}",
"342 -6 OFFCURVE",
"363 -16 OFFCURVE",
"387 -16 CURVE SMOOTH",
"449 -16 OFFCURVE",
"480 25 OFFCURVE",
"480 35 CURVE SMOOTH",
"480 44 OFFCURVE",
"473 50 OFFCURVE",
"459 50 CURVE SMOOTH",
"437 50 OFFCURVE",
"438 43 OFFCURVE",
"426 43 CURVE",
"426 451 LINE",
"423 462 OFFCURVE",
"414 463 OFFCURVE",
"404 463 CURVE SMOOTH",
"323 463 OFFCURVE",
"279 453 OFFCURVE",
"279 433 CURVE SMOOTH",
"279 418 OFFCURVE",
"312 408 OFFCURVE",
"342 404 CURVE",
"342 81 LINE {name = hr03;}",
"310 56 OFFCURVE",
"269 39 OFFCURVE",
"232 39 CURVE SMOOTH",
"181 39 OFFCURVE",
"149 48 OFFCURVE",
"149 180 CURVE SMOOTH",
"149 454 LINE",
"147 463 OFFCURVE",
"139 464 OFFCURVE",
"125 464 CURVE SMOOTH",
"55 464 OFFCURVE",
"16 454 OFFCURVE",
"16 434 CURVE SMOOTH",
"16 425 OFFCURVE",
"36 409 OFFCURVE",
"61 405 CURVE",
"63 132 LINE SMOOTH",
"63 99 OFFCURVE",
"65 65 OFFCURVE",
"89 29 CURVE SMOOTH {name = hr01;}"
);
}
);
width = 502;
}
);
unicode = 0075;
},
{
glyphname = uogonek;
layers = (
{
layerId = "129A270E-4E02-45CC-9025-B4018D2BAD31";
paths = (
{
closed = 1;
nodes = (
"112 -5 OFFCURVE",
"160 -16 OFFCURVE",
"200 -16 CURVE SMOOTH",
"261 -16 OFFCURVE",
"302 10 OFFCURVE",
"342 44 CURVE",
"342 19 LINE SMOOTH",
"342 -3 OFFCURVE",
"358 -13 OFFCURVE",
"378 -15 CURVE",
"331 -37 OFFCURVE",
"284 -74 OFFCURVE",
"284 -126 CURVE SMOOTH {name = hr02;}",
"284 -185 OFFCURVE",
"331 -209 OFFCURVE",
"391 -209 CURVE SMOOTH",
"491 -209 OFFCURVE",
"502 -146 OFFCURVE",
"502 -136 CURVE SMOOTH",
"502 -131 OFFCURVE",
"497 -118 OFFCURVE",
"488 -118 CURVE SMOOTH",
"486 -118 OFFCURVE",
"485 -118 OFFCURVE",
"483 -119 CURVE SMOOTH",
"454 -136 OFFCURVE",
"428 -137 OFFCURVE",
"413 -137 CURVE SMOOTH",
"387 -137 OFFCURVE",
"376 -118 OFFCURVE",
"376 -95 CURVE SMOOTH",
"376 -55 OFFCURVE",
"419 -22 OFFCURVE",
"468 7 CURVE",
"458 7 LINE",
"472 18 OFFCURVE",
"480 30 OFFCURVE",
"480 35 CURVE SMOOTH {name = hr03;}",
"480 44 OFFCURVE",
"473 50 OFFCURVE",
"459 50 CURVE SMOOTH",
"437 50 OFFCURVE",
"438 43 OFFCURVE",
"426 43 CURVE",
"426 451 LINE",
"423 462 OFFCURVE",
"414 463 OFFCURVE",
"404 463 CURVE SMOOTH",
"323 463 OFFCURVE",
"279 453 OFFCURVE",
"279 433 CURVE SMOOTH",
"279 418 OFFCURVE",
"312 408 OFFCURVE",
"342 404 CURVE",
"342 81 LINE",
"310 56 OFFCURVE",
"269 39 OFFCURVE",
"232 39 CURVE SMOOTH",
"181 39 OFFCURVE",
"149 48 OFFCURVE",
"149 180 CURVE SMOOTH",
"149 454 LINE",
"147 463 OFFCURVE",
"139 464 OFFCURVE",
"125 464 CURVE SMOOTH",
"55 464 OFFCURVE",
"16 454 OFFCURVE",
"16 434 CURVE SMOOTH",
"16 425 OFFCURVE",
"36 409 OFFCURVE",
"61 405 CURVE",
"63 132 LINE SMOOTH",
"63 99 OFFCURVE",
"65 65 OFFCURVE",
"89 29 CURVE SMOOTH {name = hr01;}"
);
}
);
width = 502;
}
);
unicode = 0173;
},
{
glyphname = v;
lastChange = "2018-03-22 20:20:05 +0000";
layers = (
{
anchors = (
{
name = bottom;
position = "{224, 0}";
},
{
name = top;
position = "{224, 484}";
}
);
layerId = "129A270E-4E02-45CC-9025-B4018D2BAD31";
paths = (
{
closed = 1;
nodes = (
"244 -10 LINE",
"411 395 LINE",
"430 412 LINE",
"457 414 OFFCURVE",
"467 422 OFFCURVE",
"467 446 CURVE SMOOTH",
"467 451 OFFCURVE",
"459 458 OFFCURVE",
"436 458 CURVE SMOOTH",
"302 458 LINE SMOOTH",
"287 458 OFFCURVE",
"280 444 OFFCURVE",
"280 435 CURVE SMOOTH",
"280 421 OFFCURVE",
"324 416 OFFCURVE",
"350 412 CURVE",
"240 111 LINE",
"123 412 LINE",
"151 416 OFFCURVE",
"173 421 OFFCURVE",
"173 435 CURVE SMOOTH",
"173 444 OFFCURVE",
"167 458 OFFCURVE",
"152 458 CURVE SMOOTH",
"15 458 LINE SMOOTH",
"-4 458 OFFCURVE",
"-13 451 OFFCURVE",
"-13 446 CURVE SMOOTH",
"-13 422 OFFCURVE",
"-6 414 OFFCURVE",
"18 412 CURVE",
"38 395 LINE",
"203 -10 LINE {name = hr00;}"
);
}
);
width = 448;
}
);
unicode = 0076;
},
{
glyphname = w;
lastChange = "2018-03-22 20:20:05 +0000";
layers = (
{
anchors = (
{
name = bottom;
position = "{340, 0}";
},
{
name = top;
position = "{340, 484}";
}
);
layerId = "129A270E-4E02-45CC-9025-B4018D2BAD31";
paths = (
{
closed = 1;
nodes = (
"242 -10 LINE",
"344 258 LINE",
"443 -10 LINE",
"487 -10 LINE",
"646 412 LINE",
"673 414 OFFCURVE",
"697 422 OFFCURVE",
"697 446 CURVE SMOOTH",
"697 451 OFFCURVE",
"688 458 OFFCURVE",
"669 458 CURVE SMOOTH",
"528 458 LINE SMOOTH",
"513 458 OFFCURVE",
"507 444 OFFCURVE",
"507 435 CURVE SMOOTH",
"507 421 OFFCURVE",
"561 416 OFFCURVE",
"587 412 CURVE",
"477 106 LINE",
"377 412 LINE",
"410 416 OFFCURVE",
"438 421 OFFCURVE",
"438 435 CURVE SMOOTH",
"438 444 OFFCURVE",
"431 458 OFFCURVE",
"416 458 CURVE SMOOTH",
"277 458 LINE SMOOTH",
"258 458 OFFCURVE",
"246 451 OFFCURVE",
"246 446 CURVE SMOOTH",
"246 422 OFFCURVE",
"260 414 OFFCURVE",
"285 412 CURVE",
"293 395 LINE",
"316 333 LINE",
"235 104 LINE",
"125 412 LINE",
"151 416 OFFCURVE",
"174 421 OFFCURVE",
"174 435 CURVE SMOOTH",
"174 444 OFFCURVE",
"167 458 OFFCURVE",
"151 458 CURVE SMOOTH",
"11 458 LINE SMOOTH",
"-8 458 OFFCURVE",
"-16 451 OFFCURVE",
"-16 446 CURVE SMOOTH",
"-16 422 OFFCURVE",
"5 414 OFFCURVE",
"30 412 CURVE",
"38 395 LINE",
"201 -10 LINE {name = hr00;}"
);
}
);
width = 679;
}
);
unicode = 0077;
},
{
glyphname = x;
lastChange = "2018-03-22 20:20:05 +0000";
layers = (
{
anchors = (
{
name = bottom;
position = "{249, 0}";
},
{
name = top;
position = "{249, 484}";
}
);
layerId = "129A270E-4E02-45CC-9025-B4018D2BAD31";
paths = (
{
closed = 1;
nodes = (
"12 12 OFFCURVE",
"15 0 OFFCURVE",
"31 0 CURVE SMOOTH",
"171 0 LINE SMOOTH",
"195 0 OFFCURVE",
"205 6 OFFCURVE",
"205 22 CURVE SMOOTH",
"205 52 OFFCURVE",
"152 33 OFFCURVE",
"151 70 CURVE",
"237 189 LINE",
"335 51 LINE",
"327 47 OFFCURVE",
"289 30 OFFCURVE",
"289 20 CURVE SMOOTH",
"289 12 OFFCURVE",
"292 0 OFFCURVE",
"308 0 CURVE SMOOTH",
"464 0 LINE SMOOTH",
"488 0 OFFCURVE",
"498 6 OFFCURVE",
"498 22 CURVE SMOOTH",
"498 55 OFFCURVE",
"470 21 OFFCURVE",
"428 69 CURVE SMOOTH",
"290 226 LINE",
"438 407 LINE {name = hr02;}",
"448 412 OFFCURVE",
"491 426 OFFCURVE",
"491 438 CURVE SMOOTH",
"491 446 OFFCURVE",
"488 458 OFFCURVE",
"472 458 CURVE SMOOTH",
"332 458 LINE SMOOTH",
"308 458 OFFCURVE",
"298 452 OFFCURVE",
"298 436 CURVE SMOOTH",
"298 408 OFFCURVE",
"347 421 OFFCURVE",
"352 390 CURVE",
"259 272 LINE",
"165 407 LINE {name = hr03;}",
"175 412 OFFCURVE",
"216 426 OFFCURVE",
"216 438 CURVE SMOOTH",
"216 446 OFFCURVE",
"213 458 OFFCURVE",
"197 458 CURVE SMOOTH",
"40 458 LINE SMOOTH",
"16 458 OFFCURVE",
"6 452 OFFCURVE",
"6 436 CURVE SMOOTH",
"6 407 OFFCURVE",
"25 433 OFFCURVE",
"64 396 CURVE",
"208 226 LINE",
"65 51 LINE",
"54 46 OFFCURVE",
"12 32 OFFCURVE",
"12 20 CURVE SMOOTH {name = hr01;}"
);
}
);
width = 497;
}
);
unicode = 0078;
},
{
glyphname = y;
lastChange = "2018-03-22 20:20:05 +0000";
layers = (
{
anchors = (
{
name = bottom;
position = "{236, 0}";
},
{
name = top;
position = "{236, 484}";
}
);
layerId = "129A270E-4E02-45CC-9025-B4018D2BAD31";
paths = (
{
closed = 1;
nodes = (
"40 -79 OFFCURVE",
"29 -109 OFFCURVE",
"29 -134 CURVE SMOOTH",
"29 -181 OFFCURVE",
"73 -215 OFFCURVE",
"108 -215 CURVE SMOOTH",
"169 -215 OFFCURVE",
"225 -173 OFFCURVE",
"276 -42 CURVE",
"438 411 LINE",
"466 413 OFFCURVE",
"495 422 OFFCURVE",
"495 446 CURVE SMOOTH",
"495 451 OFFCURVE",
"487 458 OFFCURVE",
"467 458 CURVE SMOOTH",
"321 458 LINE SMOOTH",
"306 458 OFFCURVE",
"299 444 OFFCURVE",
"299 435 CURVE SMOOTH",
"299 421 OFFCURVE",
"339 416 OFFCURVE",
"367 412 CURVE",
"289 181 LINE",
"257 48 LINE",
"214 181 LINE",
"125 412 LINE",
"153 416 OFFCURVE",
"179 421 OFFCURVE",
"179 435 CURVE SMOOTH",
"179 444 OFFCURVE",
"173 458 OFFCURVE",
"158 458 CURVE SMOOTH",
"6 458 LINE SMOOTH",
"-13 458 OFFCURVE",
"-12 451 OFFCURVE",
"-12 446 CURVE SMOOTH",
"-12 422 OFFCURVE",
"-10 414 OFFCURVE",
"14 412 CURVE",
"38 395 LINE",
"224 -41 LINE",
"206 -95 OFFCURVE",
"179 -141 OFFCURVE",
"147 -141 CURVE SMOOTH",
"88 -141 OFFCURVE",
"118 -79 OFFCURVE",
"80 -79 CURVE SMOOTH {name = hr00;}"
);
}
);
width = 472;
}
);
unicode = 0079;
},
{
glyphname = z;
lastChange = "2018-03-22 20:20:05 +0000";
layers = (
{
anchors = (
{
name = bottom;
position = "{218, 0}";
},
{
name = top;
position = "{218, 484}";
}
);
layerId = "129A270E-4E02-45CC-9025-B4018D2BAD31";
paths = (
{
closed = 1;
nodes = (
"31 36 OFFCURVE",
"46 0 OFFCURVE",
"68 0 CURVE SMOOTH",
"392 0 LINE",
"400 2 OFFCURVE",
"401 64 OFFCURVE",
"401 105 CURVE SMOOTH",
"401 135 LINE SMOOTH",
"401 147 OFFCURVE",
"381 153 OFFCURVE",
"370 153 CURVE SMOOTH",
"353 153 OFFCURVE",
"349 101 OFFCURVE",
"321 67 CURVE SMOOTH",
"301 44 OFFCURVE",
"200 45 OFFCURVE",
"143 45 CURVE SMOOTH",
"136 45 OFFCURVE",
"133 46 OFFCURVE",
"133 50 CURVE SMOOTH",
"133 53 OFFCURVE",
"136 60 OFFCURVE",
"143 70 CURVE SMOOTH",
"201 149 OFFCURVE",
"295 253 OFFCURVE",
"396 389 CURVE SMOOTH",
"400 395 OFFCURVE",
"402 402 OFFCURVE",
"402 409 CURVE SMOOTH",
"402 432 OFFCURVE",
"383 458 OFFCURVE",
"374 458 CURVE SMOOTH",
"61 458 LINE",
"53 456 OFFCURVE",
"53 445 OFFCURVE",
"53 433 CURVE SMOOTH",
"53 428 OFFCURVE",
"53 423 OFFCURVE",
"53 418 CURVE SMOOTH",
"53 379 OFFCURVE",
"44 355 OFFCURVE",
"44 329 CURVE SMOOTH",
"44 320 OFFCURVE",
"55 310 OFFCURVE",
"68 310 CURVE SMOOTH",
"91 310 OFFCURVE",
"108 367 OFFCURVE",
"110 377 CURVE",
"125 400 OFFCURVE",
"101 419 OFFCURVE",
"281 419 CURVE SMOOTH",
"289 419 OFFCURVE",
"294 417 OFFCURVE",
"294 411 CURVE SMOOTH",
"294 380 OFFCURVE",
"122 186 OFFCURVE",
"61 108 CURVE SMOOTH",
"37 77 OFFCURVE",
"31 62 OFFCURVE",
"31 44 CURVE SMOOTH {name = hr01;}"
);
}
);
width = 436;
}
);
unicode = 007A;
},
{
glyphname = i.cy;
lastChange = "2021-01-26 17:20:42 +0000";
layers = (
{
components = (
{
name = dotaccent;
transform = "{1, 0, 0, 1, 58, 0}";
}
);
layerId = "129A270E-4E02-45CC-9025-B4018D2BAD31";
paths = (
{
closed = 1;
nodes = (
"65 9 OFFCURVE",
"71 3 OFFCURVE",
"84 0 CURVE",
"200 0 LINE SMOOTH",
"241 0 OFFCURVE",
"250 5 OFFCURVE",
"250 11 CURVE SMOOTH",
"250 35 OFFCURVE",
"240 57 OFFCURVE",
"195 57 CURVE",
"195 457 LINE",
"193 465 OFFCURVE",
"184 467 OFFCURVE",
"173 467 CURVE SMOOTH",
"130 467 OFFCURVE",
"60 429 OFFCURVE",
"60 402 CURVE SMOOTH",
"60 392 OFFCURVE",
"81 375 OFFCURVE",
"108 370 CURVE",
"108 54 LINE",
"90 45 OFFCURVE",
"65 25 OFFCURVE",
"65 12 CURVE SMOOTH {name = hr00;}"
);
}
);
width = 283;
}
);
},
{
glyphname = i.dot;
lastChange = "2021-01-26 17:20:42 +0000";
layers = (
{
components = (
{
name = dotaccent;
transform = "{1, 0, 0, 1, 61, 0}";
}
);
layerId = "129A270E-4E02-45CC-9025-B4018D2BAD31";
paths = (
{
closed = 1;
nodes = (
"65 9 OFFCURVE",
"71 3 OFFCURVE",
"84 0 CURVE",
"200 0 LINE SMOOTH",
"241 0 OFFCURVE",
"250 5 OFFCURVE",
"250 11 CURVE SMOOTH",
"250 35 OFFCURVE",
"240 57 OFFCURVE",
"195 57 CURVE",
"195 457 LINE",
"193 465 OFFCURVE",
"184 467 OFFCURVE",
"173 467 CURVE SMOOTH",
"130 467 OFFCURVE",
"60 429 OFFCURVE",
"60 402 CURVE SMOOTH",
"60 392 OFFCURVE",
"81 375 OFFCURVE",
"108 370 CURVE",
"108 54 LINE",
"90 45 OFFCURVE",
"65 25 OFFCURVE",
"65 12 CURVE SMOOTH {name = hr00;}"
);
}
);
width = 283;
}
);
},
{
glyphname = f_f_i;
lastChange = "2021-01-26 17:20:42 +0000";
layers = (
{
components = (
{
name = f;
},
{
name = idotless;
transform = "{1, 0, 0, 1, 634, 0}";
}
);
layerId = "129A270E-4E02-45CC-9025-B4018D2BAD31";
paths = (
{
closed = 1;
nodes = (
"341 9 OFFCURVE",
"348 3 OFFCURVE",
"362 0 CURVE",
"556 0 LINE SMOOTH",
"574 0 OFFCURVE",
"590 5 OFFCURVE",
"590 11 CURVE SMOOTH",
"590 56 OFFCURVE",
"494 29 OFFCURVE",
"494 68 CURVE SMOOTH",
"494 403 LINE",
"570 403 LINE",
"589 405 OFFCURVE",
"606 432 OFFCURVE",
"606 448 CURVE SMOOTH",
"606 453 OFFCURVE",
"602 459 OFFCURVE",
"589 460 CURVE",
"494 460 LINE",
"494 516 LINE SMOOTH",
"494 562 OFFCURVE",
"489 659 OFFCURVE",
"547 659 CURVE SMOOTH",
"597 659 OFFCURVE",
"569 584 OFFCURVE",
"601 584 CURVE SMOOTH",
"628 584 OFFCURVE",
"670 619 OFFCURVE",
"670 644 CURVE SMOOTH",
"670 691 OFFCURVE",
"615 713 OFFCURVE",
"588 713 CURVE SMOOTH",
"472 713 OFFCURVE",
"407 605 OFFCURVE",
"407 490 CURVE SMOOTH",
"407 460 LINE",
"395 458 OFFCURVE",
"331 432 OFFCURVE",
"331 415 CURVE SMOOTH",
"331 411 OFFCURVE",
"335 403 OFFCURVE",
"344 403 CURVE SMOOTH",
"407 403 LINE",
"407 44 LINE {name = hr02;}",
"382 40 OFFCURVE",
"341 26 OFFCURVE",
"341 12 CURVE SMOOTH {name = hr01;}"
);
}
);
width = 908;
}
);
},
{
glyphname = f_f_i_dflt;
lastChange = "2021-01-26 17:20:42 +0000";
layers = (
{
components = (
{
name = f;
},
{
name = idotless;
transform = "{1, 0, 0, 1, 634, 0}";
}
);
layerId = "129A270E-4E02-45CC-9025-B4018D2BAD31";
paths = (
{
closed = 1;
nodes = (
"341 9 OFFCURVE",
"348 3 OFFCURVE",
"362 0 CURVE",
"556 0 LINE SMOOTH",
"574 0 OFFCURVE",
"590 5 OFFCURVE",
"590 11 CURVE SMOOTH",
"590 56 OFFCURVE",
"494 29 OFFCURVE",
"494 68 CURVE SMOOTH",
"494 403 LINE",
"570 403 LINE",
"589 405 OFFCURVE",
"606 432 OFFCURVE",
"606 448 CURVE SMOOTH",
"606 453 OFFCURVE",
"602 459 OFFCURVE",
"589 460 CURVE",
"494 460 LINE",
"494 516 LINE SMOOTH",
"494 562 OFFCURVE",
"489 659 OFFCURVE",
"547 659 CURVE SMOOTH",
"597 659 OFFCURVE",
"569 584 OFFCURVE",
"601 584 CURVE SMOOTH",
"628 584 OFFCURVE",
"670 619 OFFCURVE",
"670 644 CURVE SMOOTH",
"670 691 OFFCURVE",
"615 713 OFFCURVE",
"588 713 CURVE SMOOTH",
"472 713 OFFCURVE",
"407 605 OFFCURVE",
"407 490 CURVE SMOOTH",
"407 460 LINE",
"395 458 OFFCURVE",
"331 432 OFFCURVE",
"331 415 CURVE SMOOTH",
"331 411 OFFCURVE",
"335 403 OFFCURVE",
"344 403 CURVE SMOOTH",
"407 403 LINE",
"407 44 LINE {name = hr02;}",
"382 40 OFFCURVE",
"341 26 OFFCURVE",
"341 12 CURVE SMOOTH {name = hr01;}"
);
},
{
closed = 1;
nodes = (
"683 5 OFFCURVE",
"689 0 OFFCURVE",
"701 0 CURVE SMOOTH",
"818 0 LINE SMOOTH",
"859 0 OFFCURVE",
"869 5 OFFCURVE",
"869 11 CURVE SMOOTH",
"869 35 OFFCURVE",
"858 57 OFFCURVE",
"813 57 CURVE {name = hr04;}",
"813 457 LINE",
"811 465 OFFCURVE",
"792 467 OFFCURVE",
"781 467 CURVE SMOOTH",
"737 467 OFFCURVE",
"665 436 OFFCURVE",
"665 409 CURVE SMOOTH",
"665 399 OFFCURVE",
"699 385 OFFCURVE",
"726 380 CURVE",
"726 54 LINE {name = hr05;}",
"707 47 OFFCURVE",
"683 35 OFFCURVE",
"683 12 CURVE SMOOTH"
);
}
);
width = 908;
}
);
},
{
glyphname = f_f_l;
lastChange = "2021-01-26 17:20:42 +0000";
layers = (
{
components = (
{
name = f;
},
{
name = l;
transform = "{1, 0, 0, 1, 624, 0}";
}
);
layerId = "129A270E-4E02-45CC-9025-B4018D2BAD31";
paths = (
{
closed = 1;
nodes = (
"341 9 OFFCURVE",
"348 3 OFFCURVE",
"362 0 CURVE",
"556 0 LINE SMOOTH",
"574 0 OFFCURVE",
"590 5 OFFCURVE",
"590 11 CURVE SMOOTH",
"590 56 OFFCURVE",
"494 29 OFFCURVE",
"494 68 CURVE SMOOTH",
"494 403 LINE",
"570 403 LINE",
"589 405 OFFCURVE",
"606 432 OFFCURVE",
"606 448 CURVE SMOOTH",
"606 453 OFFCURVE",
"602 459 OFFCURVE",
"589 460 CURVE",
"494 460 LINE",
"494 516 LINE SMOOTH",
"494 529 OFFCURVE",
"493 548 OFFCURVE",
"493 566 CURVE SMOOTH",
"493 611 OFFCURVE",
"499 659 OFFCURVE",
"540 659 CURVE SMOOTH",
"589 659 OFFCURVE",
"562 584 OFFCURVE",
"594 584 CURVE SMOOTH",
"621 584 OFFCURVE",
"662 619 OFFCURVE",
"662 644 CURVE SMOOTH",
"662 691 OFFCURVE",
"608 713 OFFCURVE",
"581 713 CURVE SMOOTH",
"464 713 OFFCURVE",
"407 605 OFFCURVE",
"407 490 CURVE SMOOTH",
"407 460 LINE",
"395 458 OFFCURVE",
"331 432 OFFCURVE",
"331 415 CURVE SMOOTH",
"331 411 OFFCURVE",
"335 403 OFFCURVE",
"344 403 CURVE SMOOTH",
"407 403 LINE",
"407 44 LINE {name = hr02;}",
"382 40 OFFCURVE",
"341 26 OFFCURVE",
"341 12 CURVE SMOOTH {name = hr01;}"
);
}
);
width = 885;
}
);
},
{
glyphname = f_i_trk;
lastChange = "2021-01-26 17:20:42 +0000";
layers = (
{
layerId = "129A270E-4E02-45CC-9025-B4018D2BAD31";
paths = (
{
closed = 1;
nodes = (
"32 9 OFFCURVE",
"39 3 OFFCURVE",
"51 0 CURVE",
"247 0 LINE SMOOTH",
"265 0 OFFCURVE",
"281 5 OFFCURVE",
"281 11 CURVE SMOOTH",
"281 56 OFFCURVE",
"185 29 OFFCURVE",
"185 68 CURVE SMOOTH",
"185 403 LINE",
"261 403 LINE",
"280 405 OFFCURVE",
"297 432 OFFCURVE",
"297 448 CURVE SMOOTH",
"297 453 OFFCURVE",
"293 459 OFFCURVE",
"280 460 CURVE",
"185 460 LINE",
"185 516 LINE SMOOTH",
"185 562 OFFCURVE",
"188 659 OFFCURVE",
"246 659 CURVE SMOOTH",
"296 659 OFFCURVE",
"268 584 OFFCURVE",
"300 584 CURVE SMOOTH",
"327 584 OFFCURVE",
"370 619 OFFCURVE",
"370 644 CURVE SMOOTH",
"370 691 OFFCURVE",
"314 713 OFFCURVE",
"287 713 CURVE SMOOTH",
"171 713 OFFCURVE",
"98 605 OFFCURVE",
"98 490 CURVE SMOOTH",
"98 460 LINE",
"86 458 OFFCURVE",
"22 432 OFFCURVE",
"22 415 CURVE SMOOTH",
"22 411 OFFCURVE",
"26 403 OFFCURVE",
"35 403 CURVE SMOOTH",
"98 403 LINE",
"98 44 LINE {name = hr02;}",
"73 40 OFFCURVE",
"32 26 OFFCURVE",
"32 12 CURVE SMOOTH {name = hr01;}"
);
},
{
closed = 1;
nodes = (
"374 5 OFFCURVE",
"380 0 OFFCURVE",
"393 0 CURVE SMOOTH",
"509 0 LINE SMOOTH",
"550 0 OFFCURVE",
"560 5 OFFCURVE",
"560 11 CURVE SMOOTH",
"560 35 OFFCURVE",
"549 57 OFFCURVE",
"504 57 CURVE {name = hr04;}",
"504 457 LINE",
"501 465 OFFCURVE",
"483 467 OFFCURVE",
"472 467 CURVE SMOOTH",
"428 467 OFFCURVE",
"355 436 OFFCURVE",
"355 409 CURVE SMOOTH",
"355 399 OFFCURVE",
"390 385 OFFCURVE",
"417 380 CURVE",
"417 54 LINE {name = hr05;}",
"398 47 OFFCURVE",
"374 35 OFFCURVE",
"374 12 CURVE SMOOTH"
);
}
);
width = 597;
}
);
},
{
glyphname = fi;
layers = (
{
components = (
{
name = idotless;
transform = "{1, 0, 0, 1, 323, 0}";
}
);
layerId = "129A270E-4E02-45CC-9025-B4018D2BAD31";
paths = (
{
closed = 1;
nodes = (
"32 9 OFFCURVE",
"39 3 OFFCURVE",
"51 0 CURVE",
"247 0 LINE SMOOTH",
"265 0 OFFCURVE",
"281 5 OFFCURVE",
"281 11 CURVE SMOOTH",
"281 55 OFFCURVE",
"189 30 OFFCURVE",
"185 65 CURVE",
"185 403 LINE",
"261 403 LINE",
"280 405 OFFCURVE",
"297 432 OFFCURVE",
"297 448 CURVE SMOOTH",
"297 453 OFFCURVE",
"293 459 OFFCURVE",
"280 460 CURVE",
"185 460 LINE",
"185 516 LINE SMOOTH",
"185 562 OFFCURVE",
"180 659 OFFCURVE",
"238 659 CURVE SMOOTH",
"288 659 OFFCURVE",
"260 584 OFFCURVE",
"292 584 CURVE SMOOTH",
"319 584 OFFCURVE",
"360 619 OFFCURVE",
"360 644 CURVE SMOOTH",
"360 691 OFFCURVE",
"306 713 OFFCURVE",
"279 713 CURVE SMOOTH",
"163 713 OFFCURVE",
"98 605 OFFCURVE",
"98 490 CURVE SMOOTH",
"98 460 LINE",
"86 458 OFFCURVE",
"22 432 OFFCURVE",
"22 415 CURVE SMOOTH",
"22 411 OFFCURVE",
"26 403 OFFCURVE",
"35 403 CURVE SMOOTH",
"98 403 LINE",
"98 44 LINE",
"73 40 OFFCURVE",
"32 26 OFFCURVE",
"32 12 CURVE SMOOTH {name = hr00;}"
);
}
);
width = 599;
}
);
unicode = FB01;
},
{
glyphname = fl;
layers = (
{
components = (
{
name = l;
transform = "{1, 0, 0, 1, 315, 0}";
}
);
layerId = "129A270E-4E02-45CC-9025-B4018D2BAD31";
paths = (
{
closed = 1;
nodes = (
"32 9 OFFCURVE",
"39 3 OFFCURVE",
"51 0 CURVE",
"247 0 LINE SMOOTH",
"265 0 OFFCURVE",
"281 5 OFFCURVE",
"281 11 CURVE SMOOTH",
"281 55 OFFCURVE",
"189 30 OFFCURVE",
"185 65 CURVE",
"185 403 LINE",
"261 403 LINE",
"280 405 OFFCURVE",
"297 432 OFFCURVE",
"297 448 CURVE SMOOTH",
"297 453 OFFCURVE",
"293 459 OFFCURVE",
"280 460 CURVE",
"185 460 LINE",
"185 516 LINE SMOOTH",
"185 529 OFFCURVE",
"184 548 OFFCURVE",
"184 566 CURVE SMOOTH",
"184 611 OFFCURVE",
"190 659 OFFCURVE",
"231 659 CURVE SMOOTH",
"279 659 OFFCURVE",
"254 584 OFFCURVE",
"285 584 CURVE SMOOTH",
"312 584 OFFCURVE",
"352 619 OFFCURVE",
"352 644 CURVE SMOOTH",
"352 691 OFFCURVE",
"299 713 OFFCURVE",
"272 713 CURVE SMOOTH",
"153 713 OFFCURVE",
"98 605 OFFCURVE",
"98 490 CURVE SMOOTH",
"98 460 LINE",
"86 458 OFFCURVE",
"22 432 OFFCURVE",
"22 415 CURVE SMOOTH",
"22 411 OFFCURVE",
"26 403 OFFCURVE",
"35 403 CURVE SMOOTH",
"98 403 LINE",
"98 44 LINE",
"73 40 OFFCURVE",
"32 26 OFFCURVE",
"32 12 CURVE SMOOTH {name = hr00;}"
);
}
);
width = 576;
}
);
unicode = FB02;
},
{
glyphname = ordfeminine;
layers = (
{
layerId = "129A270E-4E02-45CC-9025-B4018D2BAD31";
paths = (
{
closed = 1;
nodes = (
"247 273 OFFCURVE",
"281 291 OFFCURVE",
"310 315 CURVE",
"310 303 LINE SMOOTH {name = hr02;}",
"310 280 OFFCURVE",
"329 271 OFFCURVE",
"350 271 CURVE SMOOTH",
"402 271 OFFCURVE",
"433 306 OFFCURVE",
"433 315 CURVE SMOOTH",
"433 324 OFFCURVE",
"427 331 OFFCURVE",
"412 331 CURVE SMOOTH",
"410 331 OFFCURVE",
"408 330 OFFCURVE",
"406 330 CURVE SMOOTH",
"400 330 LINE",
"389 326 LINE",
"389 549 LINE",
"387 609 OFFCURVE",
"369 673 OFFCURVE",
"274 673 CURVE SMOOTH",
"201 673 OFFCURVE",
"102 625 OFFCURVE",
"102 564 CURVE SMOOTH",
"102 551 OFFCURVE",
"104 529 OFFCURVE",
"131 529 CURVE SMOOTH",
"154 529 OFFCURVE",
"190 552 OFFCURVE",
"190 572 CURVE SMOOTH",
"190 574 OFFCURVE",
"190 576 OFFCURVE",
"188 578 CURVE SMOOTH",
"187 579 LINE SMOOTH",
"186 583 OFFCURVE",
"184 589 OFFCURVE",
"184 592 CURVE SMOOTH",
"184 616 OFFCURVE",
"199 619 OFFCURVE",
"238 619 CURVE SMOOTH",
"297 619 OFFCURVE",
"310 579 OFFCURVE",
"310 521 CURVE SMOOTH",
"310 508 LINE",
"209 497 OFFCURVE",
"92 464 OFFCURVE",
"92 368 CURVE SMOOTH {name = hr03;}",
"92 325 OFFCURVE",
"124 273 OFFCURVE",
"207 273 CURVE SMOOTH {name = hr01;}"
);
},
{
closed = 1;
nodes = (
"194 326 OFFCURVE",
"175 353 OFFCURVE",
"175 394 CURVE SMOOTH",
"175 450 OFFCURVE",
"251 462 OFFCURVE",
"310 466 CURVE",
"310 352 LINE",
"294 335 OFFCURVE",
"271 326 OFFCURVE",
"248 326 CURVE SMOOTH"
);
}
);
width = 485;
}
);
unicode = 00AA;
},
{
glyphname = ordmasculine;
layers = (
{
layerId = "129A270E-4E02-45CC-9025-B4018D2BAD31";
paths = (
{
closed = 1;
nodes = (
"371 273 OFFCURVE",
"429 384 OFFCURVE",
"429 485 CURVE SMOOTH",
"429 575 OFFCURVE",
"385 672 OFFCURVE",
"263 672 CURVE SMOOTH",
"138 672 OFFCURVE",
"69 568 OFFCURVE",
"69 458 CURVE SMOOTH",
"69 332 OFFCURVE",
"139 273 OFFCURVE",
"230 273 CURVE SMOOTH {name = hr00;}"
);
},
{
closed = 1;
nodes = (
"176 320 OFFCURVE",
"150 410 OFFCURVE",
"150 485 CURVE SMOOTH",
"150 547 OFFCURVE",
"167 625 OFFCURVE",
"232 625 CURVE SMOOTH",
"321 625 OFFCURVE",
"346 535 OFFCURVE",
"346 458 CURVE SMOOTH",
"346 387 OFFCURVE",
"326 320 OFFCURVE",
"265 320 CURVE SMOOTH"
);
}
);
width = 484;
}
);
unicode = 00BA;
},
{
glyphname = pi;
layers = (
{
layerId = "129A270E-4E02-45CC-9025-B4018D2BAD31";
paths = (
{
closed = 1;
nodes = (
"132 -8 OFFCURVE",
"161 -12 OFFCURVE",
"185 -12 CURVE SMOOTH",
"271 -12 OFFCURVE",
"270 98 OFFCURVE",
"278 165 CURVE SMOOTH",
"287 247 OFFCURVE",
"291 328 OFFCURVE",
"296 410 CURVE",
"338 409 OFFCURVE",
"384 406 OFFCURVE",
"425 404 CURVE",
"435 271 OFFCURVE",
"435 112 OFFCURVE",
"436 -15 CURVE",
"437 -18 OFFCURVE",
"441 -19 OFFCURVE",
"446 -19 CURVE SMOOTH",
"470 -19 OFFCURVE",
"526 5 OFFCURVE",
"527 19 CURVE",
"517 145 OFFCURVE",
"502 275 OFFCURVE",
"490 402 CURVE",
"499 402 LINE SMOOTH",
"592 402 OFFCURVE",
"640 460 OFFCURVE",
"640 519 CURVE SMOOTH",
"640 530 OFFCURVE",
"639 562 OFFCURVE",
"625 562 CURVE SMOOTH",
"604 562 OFFCURVE",
"565 534 OFFCURVE",
"556 520 CURVE",
"559 513 OFFCURVE",
"561 505 OFFCURVE",
"561 497 CURVE SMOOTH",
"561 491 OFFCURVE",
"560 484 OFFCURVE",
"557 479 CURVE",
"200 479 LINE SMOOTH",
"97 479 OFFCURVE",
"61 399 OFFCURVE",
"61 340 CURVE",
"64 334 OFFCURVE",
"74 332 OFFCURVE",
"87 332 CURVE SMOOTH",
"106 332 OFFCURVE",
"129 338 OFFCURVE",
"133 347 CURVE",
"133 347 OFFCURVE",
"133 346 OFFCURVE",
"133 346 CURVE",
"139 346 OFFCURVE",
"143 391 OFFCURVE",
"148 398 CURVE",
"159 407 OFFCURVE",
"192 410 OFFCURVE",
"234 411 CURVE",
"229 322 OFFCURVE",
"217 208 OFFCURVE",
"199 128 CURVE SMOOTH",
"189 81 OFFCURVE",
"167 52 OFFCURVE",
"140 19 CURVE",
"134 13 OFFCURVE",
"132 9 OFFCURVE",
"132 5 CURVE SMOOTH {name = hr00;}"
);
}
);
width = 652;
}
);
unicode = 03C0;
},
{
glyphname = "a-deva";
lastChange = "2021-01-26 18:00:27 +0000";
layers = (
{
anchors = (
{
name = bottom;
position = "{732, 0}";
},
{
name = candra;
position = "{445, 484}";
},
{
name = nukta;
position = "{869, 0}";
},
{
name = top;
position = "{732, 484}";
}
);
layerId = "129A270E-4E02-45CC-9025-B4018D2BAD31";
paths = (
{
closed = 1;
nodes = (
"122 10 OFFCURVE",
"211 -25 OFFCURVE",
"284 -25 CURVE SMOOTH",
"376 -25 OFFCURVE",
"491 35 OFFCURVE",
"491 147 CURVE SMOOTH {name = hr02;}",
"491 187 OFFCURVE",
"477 230 OFFCURVE",
"455 266 CURVE",
"496 253 OFFCURVE",
"539 243 OFFCURVE",
"581 243 CURVE SMOOTH",
"624 243 OFFCURVE",
"666 253 OFFCURVE",
"702 279 CURVE",
"702 33 LINE",
"704 19 OFFCURVE",
"733 -36 OFFCURVE",
"752 -36 CURVE SMOOTH",
"756 -36 OFFCURVE",
"759 -34 OFFCURVE",
"762 -29 CURVE",
"762 603 LINE SMOOTH",
"762 605 OFFCURVE",
"762 607 OFFCURVE",
"761 609 CURVE",
"910 609 LINE",
"916 610 OFFCURVE",
"919 614 OFFCURVE",
"919 620 CURVE SMOOTH",
"919 641 OFFCURVE",
"884 684 OFFCURVE",
"865 687 CURVE",
"538 687 LINE",
"533 684 OFFCURVE",
"532 680 OFFCURVE",
"532 675 CURVE SMOOTH",
"532 652 OFFCURVE",
"568 615 OFFCURVE",
"583 609 CURVE",
"702 609 LINE",
"702 422 LINE",
"665 348 OFFCURVE",
"604 321 OFFCURVE",
"537 321 CURVE SMOOTH {name = hr03;}",
"488 321 OFFCURVE",
"437 335 OFFCURVE",
"391 353 CURVE",
"448 389 OFFCURVE",
"473 440 OFFCURVE",
"473 490 CURVE SMOOTH",
"473 598 OFFCURVE",
"378 696 OFFCURVE",
"252 696 CURVE SMOOTH",
"242 696 OFFCURVE",
"117 694 OFFCURVE",
"86 633 CURVE",
"86 632 OFFCURVE",
"86 631 OFFCURVE",
"86 629 CURVE SMOOTH",
"86 606 OFFCURVE",
"118 558 OFFCURVE",
"136 558 CURVE SMOOTH",
"148 558 OFFCURVE",
"175 590 OFFCURVE",
"192 598 CURVE SMOOTH",
"219 610 OFFCURVE",
"261 619 OFFCURVE",
"302 619 CURVE SMOOTH",
"360 619 OFFCURVE",
"414 604 OFFCURVE",
"414 545 CURVE SMOOTH",
"414 463 OFFCURVE",
"316 402 OFFCURVE",
"240 389 CURVE SMOOTH {name = hr04;}",
"222 386 LINE SMOOTH",
"219 386 OFFCURVE",
"216 387 OFFCURVE",
"214 387 CURVE",
"213 386 LINE",
"203 385 OFFCURVE",
"192 385 OFFCURVE",
"182 385 CURVE SMOOTH",
"170 385 OFFCURVE",
"158 385 OFFCURVE",
"146 385 CURVE SMOOTH",
"135 385 OFFCURVE",
"123 387 OFFCURVE",
"123 373 CURVE SMOOTH",
"123 350 OFFCURVE",
"159 313 OFFCURVE",
"174 307 CURVE",
"202 308 OFFCURVE",
"230 307 OFFCURVE",
"257 309 CURVE SMOOTH",
"259 309 LINE SMOOTH",
"314 305 OFFCURVE",
"372 303 OFFCURVE",
"415 265 CURVE SMOOTH {name = hr05;}",
"429 253 OFFCURVE",
"430 227 OFFCURVE",
"430 211 CURVE SMOOTH",
"430 115 OFFCURVE",
"336 53 OFFCURVE",
"245 53 CURVE SMOOTH",
"207 53 OFFCURVE",
"169 63 OFFCURVE",
"134 81 CURVE SMOOTH",
"122 87 OFFCURVE",
"114 97 OFFCURVE",
"103 104 CURVE",
"102 104 LINE",
"96 108 OFFCURVE",
"91 110 OFFCURVE",
"87 110 CURVE SMOOTH",
"83 110 OFFCURVE",
"81 107 OFFCURVE",
"81 102 CURVE SMOOTH",
"81 96 OFFCURVE",
"83 89 OFFCURVE",
"88 79 CURVE SMOOTH {name = hr01;}"
);
},
{
closed = 1;
nodes = (
"112 96 LINE",
"112 96 OFFCURVE",
"112 95 OFFCURVE",
"112 95 CURVE",
"112 95 OFFCURVE",
"109 97 OFFCURVE",
"107 100 CURVE {name = hr07;}"
);
}
);
width = 889;
}
);
unicode = 0905;
},
{
glyphname = "aa-deva";
lastChange = "2021-01-26 18:00:23 +0000";
layers = (
{
anchors = (
{
name = bottom;
position = "{1022, 0}";
},
{
name = candra;
position = "{590, 484}";
},
{
name = nukta;
position = "{1159, 0}";
},
{
name = top;
position = "{1022, 484}";
}
);
layerId = "129A270E-4E02-45CC-9025-B4018D2BAD31";
paths = (
{
closed = 1;
nodes = (
"122 10 OFFCURVE",
"211 -25 OFFCURVE",
"284 -25 CURVE SMOOTH",
"376 -25 OFFCURVE",
"491 35 OFFCURVE",
"491 147 CURVE SMOOTH {name = hr02;}",
"491 187 OFFCURVE",
"477 230 OFFCURVE",
"455 266 CURVE",
"496 253 OFFCURVE",
"539 243 OFFCURVE",
"581 243 CURVE SMOOTH",
"624 243 OFFCURVE",
"666 253 OFFCURVE",
"702 279 CURVE",
"702 33 LINE",
"704 19 OFFCURVE",
"733 -36 OFFCURVE",
"752 -36 CURVE SMOOTH",
"756 -36 OFFCURVE",
"759 -34 OFFCURVE",
"762 -29 CURVE",
"762 356 LINE",
"762 603 LINE SMOOTH",
"762 605 OFFCURVE",
"762 607 OFFCURVE",
"761 609 CURVE",
"992 609 LINE",
"992 33 LINE",
"994 19 OFFCURVE",
"1023 -36 OFFCURVE",
"1042 -36 CURVE SMOOTH",
"1046 -36 OFFCURVE",
"1049 -34 OFFCURVE",
"1052 -29 CURVE",
"1052 609 LINE",
"1205 609 LINE",
"1211 610 OFFCURVE",
"1214 614 OFFCURVE",
"1214 620 CURVE SMOOTH",
"1214 641 OFFCURVE",
"1179 684 OFFCURVE",
"1160 687 CURVE",
"545 687 LINE",
"540 684 OFFCURVE",
"539 680 OFFCURVE",
"539 675 CURVE SMOOTH",
"539 652 OFFCURVE",
"575 615 OFFCURVE",
"590 609 CURVE",
"702 609 LINE",
"702 422 LINE",
"665 348 OFFCURVE",
"604 321 OFFCURVE",
"537 321 CURVE SMOOTH {name = hr03;}",
"488 321 OFFCURVE",
"437 335 OFFCURVE",
"391 353 CURVE",
"448 389 OFFCURVE",
"473 440 OFFCURVE",
"473 490 CURVE SMOOTH",
"473 598 OFFCURVE",
"378 696 OFFCURVE",
"252 696 CURVE SMOOTH",
"242 696 OFFCURVE",
"117 694 OFFCURVE",
"86 633 CURVE",
"86 632 OFFCURVE",
"86 631 OFFCURVE",
"86 629 CURVE SMOOTH",
"86 606 OFFCURVE",
"118 558 OFFCURVE",
"136 558 CURVE SMOOTH",
"148 558 OFFCURVE",
"175 590 OFFCURVE",
"192 598 CURVE SMOOTH",
"219 610 OFFCURVE",
"261 619 OFFCURVE",
"302 619 CURVE SMOOTH",
"360 619 OFFCURVE",
"414 604 OFFCURVE",
"414 545 CURVE SMOOTH",
"414 463 OFFCURVE",
"316 402 OFFCURVE",
"240 389 CURVE SMOOTH {name = hr04;}",
"222 386 LINE SMOOTH",
"219 386 OFFCURVE",
"216 387 OFFCURVE",
"214 387 CURVE",
"213 386 LINE",
"203 385 OFFCURVE",
"192 385 OFFCURVE",
"182 385 CURVE SMOOTH",
"170 385 OFFCURVE",
"158 385 OFFCURVE",
"146 385 CURVE SMOOTH",
"135 385 OFFCURVE",
"123 387 OFFCURVE",
"123 373 CURVE SMOOTH",
"123 350 OFFCURVE",
"159 313 OFFCURVE",
"174 307 CURVE",
"202 308 OFFCURVE",
"230 307 OFFCURVE",
"257 309 CURVE SMOOTH",
"259 309 LINE SMOOTH",
"314 305 OFFCURVE",
"372 303 OFFCURVE",
"415 265 CURVE SMOOTH {name = hr05;}",
"429 253 OFFCURVE",
"430 227 OFFCURVE",
"430 211 CURVE SMOOTH",
"430 115 OFFCURVE",
"336 53 OFFCURVE",
"245 53 CURVE SMOOTH",
"207 53 OFFCURVE",
"169 63 OFFCURVE",
"134 81 CURVE SMOOTH",
"122 87 OFFCURVE",
"114 97 OFFCURVE",
"103 104 CURVE",
"102 104 LINE",
"96 108 OFFCURVE",
"91 110 OFFCURVE",
"87 110 CURVE SMOOTH",
"83 110 OFFCURVE",
"81 107 OFFCURVE",
"81 102 CURVE SMOOTH",
"81 96 OFFCURVE",
"83 89 OFFCURVE",
"88 79 CURVE SMOOTH {name = hr01;}"
);
},
{
closed = 1;
nodes = (
"112 96 LINE",
"112 96 OFFCURVE",
"112 95 OFFCURVE",
"112 95 CURVE",
"112 95 OFFCURVE",
"109 97 OFFCURVE",
"107 100 CURVE {name = hr07;}"
);
}
);
width = 1179;
}
);
unicode = 0906;
},
{
glyphname = "i-deva";
lastChange = "2021-01-26 18:00:18 +0000";
layers = (
{
anchors = (
{
name = bottom;
position = "{456, 0}";
},
{
name = candra;
position = "{270, 484}";
},
{
name = top;
position = "{456, 484}";
}
);
layerId = "129A270E-4E02-45CC-9025-B4018D2BAD31";
paths = (
{
closed = 1;
nodes = (
"62 72 OFFCURVE",
"117 13 OFFCURVE",
"147 -3 CURVE",
"161 -10 LINE",
"179 -38 OFFCURVE",
"206 -66 OFFCURVE",
"220 -85 CURVE SMOOTH",
"249 -125 OFFCURVE",
"295 -191 OFFCURVE",
"312 -191 CURVE SMOOTH",
"316 -191 OFFCURVE",
"317 -188 OFFCURVE",
"317 -184 CURVE SMOOTH",
"318 -151 OFFCURVE",
"266 -95 OFFCURVE",
"237 -55 CURVE SMOOTH",
"214 -24 LINE",
"233 -27 OFFCURVE",
"253 -29 OFFCURVE",
"273 -29 CURVE SMOOTH",
"380 -29 OFFCURVE",
"485 13 OFFCURVE",
"485 120 CURVE SMOOTH {name = hr02;}",
"485 193 OFFCURVE",
"436 270 OFFCURVE",
"371 297 CURVE SMOOTH",
"340 310 OFFCURVE",
"302 314 OFFCURVE",
"269 314 CURVE SMOOTH",
"258 314 OFFCURVE",
"235 312 OFFCURVE",
"212 312 CURVE SMOOTH",
"176 312 OFFCURVE",
"144 315 OFFCURVE",
"126 334 CURVE SMOOTH",
"123 338 LINE SMOOTH",
"121 340 OFFCURVE",
"121 346 OFFCURVE",
"121 350 CURVE SMOOTH",
"121 407 OFFCURVE",
"183 442 OFFCURVE",
"234 442 CURVE SMOOTH",
"419 442 LINE {name = hr03;}",
"422 443 OFFCURVE",
"426 445 OFFCURVE",
"428 448 CURVE",
"428 603 LINE SMOOTH",
"428 605 OFFCURVE",
"428 607 OFFCURVE",
"427 609 CURVE",
"557 609 LINE",
"563 610 OFFCURVE",
"566 614 OFFCURVE",
"566 620 CURVE SMOOTH",
"566 641 OFFCURVE",
"531 684 OFFCURVE",
"512 687 CURVE",
"-22 687 LINE",
"-27 684 OFFCURVE",
"-28 680 OFFCURVE",
"-28 675 CURVE SMOOTH",
"-28 652 OFFCURVE",
"8 615 OFFCURVE",
"23 609 CURVE",
"368 609 LINE",
"368 520 LINE",
"189 520 LINE SMOOTH",
"101 520 OFFCURVE",
"63 460 OFFCURVE",
"63 415 CURVE SMOOTH",
"63 368 OFFCURVE",
"92 316 OFFCURVE",
"128 281 CURVE SMOOTH",
"181 229 OFFCURVE",
"243 236 OFFCURVE",
"314 236 CURVE SMOOTH",
"347 236 OFFCURVE",
"394 234 OFFCURVE",
"421 211 CURVE {name = hr04;}",
"424 199 OFFCURVE",
"426 188 OFFCURVE",
"426 177 CURVE SMOOTH",
"426 80 OFFCURVE",
"315 50 OFFCURVE",
"228 50 CURVE SMOOTH",
"211 50 OFFCURVE",
"194 51 OFFCURVE",
"177 54 CURVE",
"161 91 OFFCURVE",
"125 149 OFFCURVE",
"87 149 CURVE SMOOTH",
"71 149 OFFCURVE",
"62 134 OFFCURVE",
"62 117 CURVE SMOOTH {name = hr01;}"
);
},
{
closed = 1;
nodes = (
"126 68 OFFCURVE",
"127 69 OFFCURVE",
"129 70 CURVE",
"129 68 OFFCURVE",
"130 66 OFFCURVE",
"131 64 CURVE",
"125 66 LINE"
);
}
);
width = 539;
}
);
unicode = 0907;
},
{
glyphname = "ii-deva";
lastChange = "2021-01-26 18:00:20 +0000";
layers = (
{
anchors = (
{
name = bottom;
position = "{456, 0}";
},
{
name = candra;
position = "{269, 484}";
},
{
name = top;
position = "{456, 484}";
}
);
components = (
{
name = "i-deva";
}
);
layerId = "129A270E-4E02-45CC-9025-B4018D2BAD31";
paths = (
{
closed = 1;
nodes = (
"408 620 OFFCURVE",
"418 616 OFFCURVE",
"426 616 CURVE SMOOTH",
"432 616 OFFCURVE",
"436 619 OFFCURVE",
"436 624 CURVE SMOOTH",
"436 629 OFFCURVE",
"434 635 OFFCURVE",
"428 644 CURVE SMOOTH",
"395 688 OFFCURVE",
"357 739 OFFCURVE",
"357 796 CURVE SMOOTH",
"357 851 OFFCURVE",
"401 900 OFFCURVE",
"453 900 CURVE SMOOTH",
"467 900 OFFCURVE",
"482 896 OFFCURVE",
"496 888 CURVE",
"499 885 OFFCURVE",
"501 884 OFFCURVE",
"502 884 CURVE SMOOTH",
"502 884 OFFCURVE",
"502 884 OFFCURVE",
"502 884 CURVE",
"515 875 OFFCURVE",
"537 863 OFFCURVE",
"549 863 CURVE SMOOTH",
"553 863 OFFCURVE",
"556 865 OFFCURVE",
"556 870 CURVE SMOOTH",
"556 917 OFFCURVE",
"441 957 OFFCURVE",
"393 957 CURVE SMOOTH",
"336 957 OFFCURVE",
"281 924 OFFCURVE",
"281 836 CURVE SMOOTH",
"281 758 OFFCURVE",
"356 651 OFFCURVE",
"398 625 CURVE {name = hr00;}"
);
}
);
width = 538;
}
);
unicode = 0908;
},
{
glyphname = "u-deva";
lastChange = "2021-01-26 18:00:14 +0000";
layers = (
{
anchors = (
{
name = bottom;
position = "{455, 0}";
},
{
name = candra;
position = "{281, 484}";
},
{
name = top;
position = "{455, 484}";
}
);
layerId = "129A270E-4E02-45CC-9025-B4018D2BAD31";
paths = (
{
closed = 1;
nodes = (
"125 0 OFFCURVE",
"205 -24 OFFCURVE",
"279 -24 CURVE SMOOTH",
"384 -24 OFFCURVE",
"485 33 OFFCURVE",
"485 146 CURVE SMOOTH",
"485 225 OFFCURVE",
"443 295 OFFCURVE",
"384 339 CURVE",
"437 368 OFFCURVE",
"471 423 OFFCURVE",
"471 484 CURVE SMOOTH {name = hr02;}",
"471 525 OFFCURVE",
"455 569 OFFCURVE",
"426 609 CURVE",
"585 609 LINE",
"591 610 OFFCURVE",
"594 614 OFFCURVE",
"594 620 CURVE SMOOTH",
"594 641 OFFCURVE",
"559 684 OFFCURVE",
"540 687 CURVE",
"-23 687 LINE",
"-28 684 OFFCURVE",
"-29 680 OFFCURVE",
"-29 675 CURVE SMOOTH",
"-29 652 OFFCURVE",
"7 615 OFFCURVE",
"22 609 CURVE",
"354 609 LINE",
"358 606 OFFCURVE",
"362 604 OFFCURVE",
"366 603 CURVE SMOOTH",
"401 596 OFFCURVE",
"414 573 OFFCURVE",
"414 546 CURVE SMOOTH",
"414 507 OFFCURVE",
"387 458 OFFCURVE",
"360 435 CURVE SMOOTH",
"295 379 OFFCURVE",
"197 387 OFFCURVE",
"120 387 CURVE",
"115 384 OFFCURVE",
"114 380 OFFCURVE",
"114 375 CURVE SMOOTH",
"114 352 OFFCURVE",
"150 315 OFFCURVE",
"165 309 CURVE",
"182 309 OFFCURVE",
"201 308 OFFCURVE",
"220 308 CURVE SMOOTH",
"239 308 OFFCURVE",
"257 309 OFFCURVE",
"276 311 CURVE",
"278 310 OFFCURVE",
"280 309 OFFCURVE",
"281 309 CURVE SMOOTH",
"324 306 OFFCURVE",
"415 295 OFFCURVE",
"422 244 CURVE SMOOTH {name = hr03;}",
"424 233 OFFCURVE",
"425 222 OFFCURVE",
"425 212 CURVE SMOOTH",
"425 117 OFFCURVE",
"341 53 OFFCURVE",
"238 53 CURVE SMOOTH",
"182 53 OFFCURVE",
"119 69 OFFCURVE",
"84 95 CURVE SMOOTH",
"73 103 OFFCURVE",
"59 112 OFFCURVE",
"51 113 CURVE SMOOTH",
"47 113 OFFCURVE",
"45 110 OFFCURVE",
"45 105 CURVE SMOOTH",
"45 90 OFFCURVE",
"62 63 OFFCURVE",
"78 46 CURVE {name = hr01;}"
);
}
);
width = 561;
}
);
unicode = 0909;
},
{
glyphname = "uu-deva";
lastChange = "2021-01-26 18:00:12 +0000";
layers = (
{
anchors = (
{
name = bottom;
position = "{792, 0}";
},
{
name = candra;
position = "{430, 484}";
},
{
name = top;
position = "{792, 484}";
}
);
layerId = "129A270E-4E02-45CC-9025-B4018D2BAD31";
paths = (
{
closed = 1;
nodes = (
"148 3 OFFCURVE",
"215 -24 OFFCURVE",
"286 -24 CURVE SMOOTH",
"405 -24 OFFCURVE",
"481 50 OFFCURVE",
"481 149 CURVE SMOOTH",
"481 174 OFFCURVE",
"476 200 OFFCURVE",
"466 227 CURVE {name = hr02;}",
"505 280 OFFCURVE",
"577 314 OFFCURVE",
"645 314 CURVE SMOOTH",
"681 314 OFFCURVE",
"716 305 OFFCURVE",
"745 284 CURVE SMOOTH",
"764 270 OFFCURVE",
"761 220 OFFCURVE",
"762 216 CURVE",
"762 126 OFFCURVE",
"706 69 OFFCURVE",
"597 50 CURVE",
"592 47 OFFCURVE",
"591 43 OFFCURVE",
"591 38 CURVE SMOOTH",
"591 15 OFFCURVE",
"627 -22 OFFCURVE",
"642 -28 CURVE",
"767 -7 OFFCURVE",
"821 61 OFFCURVE",
"821 158 CURVE SMOOTH",
"821 284 OFFCURVE",
"728 391 OFFCURVE",
"597 391 CURVE SMOOTH",
"529 391 OFFCURVE",
"460 361 OFFCURVE",
"416 309 CURVE {name = hr03;}",
"406 320 OFFCURVE",
"396 329 OFFCURVE",
"384 337 CURVE",
"440 365 OFFCURVE",
"466 422 OFFCURVE",
"466 480 CURVE SMOOTH",
"466 524 OFFCURVE",
"452 570 OFFCURVE",
"428 609 CURVE",
"880 609 LINE",
"886 610 OFFCURVE",
"889 614 OFFCURVE",
"889 620 CURVE SMOOTH",
"889 641 OFFCURVE",
"854 684 OFFCURVE",
"835 687 CURVE",
"-23 687 LINE",
"-28 684 OFFCURVE",
"-29 680 OFFCURVE",
"-29 675 CURVE SMOOTH",
"-29 652 OFFCURVE",
"7 615 OFFCURVE",
"22 609 CURVE",
"384 609 LINE",
"404 595 OFFCURVE",
"407 561 OFFCURVE",
"407 538 CURVE SMOOTH",
"407 424 OFFCURVE",
"298 386 OFFCURVE",
"190 386 CURVE SMOOTH {name = hr04;}",
"166 386 OFFCURVE",
"142 387 OFFCURVE",
"120 387 CURVE",
"115 384 OFFCURVE",
"114 380 OFFCURVE",
"114 375 CURVE SMOOTH",
"114 352 OFFCURVE",
"150 315 OFFCURVE",
"165 309 CURVE",
"188 309 OFFCURVE",
"212 308 OFFCURVE",
"237 308 CURVE SMOOTH",
"249 308 OFFCURVE",
"262 308 OFFCURVE",
"274 309 CURVE",
"275 309 LINE",
"335 305 OFFCURVE",
"423 297 OFFCURVE",
"423 209 CURVE SMOOTH",
"423 116 OFFCURVE",
"347 55 OFFCURVE",
"243 55 CURVE SMOOTH",
"178 55 OFFCURVE",
"114 79 OFFCURVE",
"57 112 CURVE",
"55 112 OFFCURVE",
"53 112 OFFCURVE",
"52 112 CURVE SMOOTH",
"45 112 OFFCURVE",
"42 109 OFFCURVE",
"42 104 CURVE SMOOTH",
"42 86 OFFCURVE",
"79 44 OFFCURVE",
"87 38 CURVE {name = hr01;}"
);
}
);
width = 859;
}
);
unicode = 090A;
},
{
glyphname = "rVocalic-deva";
lastChange = "2021-01-26 18:00:10 +0000";
layers = (
{
anchors = (
{
name = bottom;
position = "{802, 0}";
},
{
name = candra;
position = "{450, 484}";
},
{
name = top;
position = "{802, 484}";
}
);
layerId = "129A270E-4E02-45CC-9025-B4018D2BAD31";
paths = (
{
closed = 1;
nodes = (
"139 85 OFFCURVE",
"140 85 OFFCURVE",
"141 85 CURVE",
"224 137 OFFCURVE",
"311 184 OFFCURVE",
"396 235 CURVE",
"396 33 LINE",
"398 19 OFFCURVE",
"427 -36 OFFCURVE",
"446 -36 CURVE SMOOTH",
"450 -36 OFFCURVE",
"453 -34 OFFCURVE",
"456 -29 CURVE",
"456 264 LINE",
"464 256 OFFCURVE",
"485 257 OFFCURVE",
"498 257 CURVE SMOOTH",
"582 257 OFFCURVE",
"669 293 OFFCURVE",
"723 358 CURVE",
"751 319 OFFCURVE",
"772 273 OFFCURVE",
"772 227 CURVE SMOOTH",
"772 148 OFFCURVE",
"717 95 OFFCURVE",
"645 95 CURVE SMOOTH",
"620 95 OFFCURVE",
"594 101 OFFCURVE",
"567 115 CURVE",
"565 115 OFFCURVE",
"563 115 OFFCURVE",
"562 115 CURVE SMOOTH",
"555 115 OFFCURVE",
"552 112 OFFCURVE",
"552 107 CURVE SMOOTH",
"552 89 OFFCURVE",
"589 47 OFFCURVE",
"597 41 CURVE",
"628 25 OFFCURVE",
"660 17 OFFCURVE",
"690 17 CURVE SMOOTH",
"766 17 OFFCURVE",
"831 70 OFFCURVE",
"831 172 CURVE SMOOTH",
"831 248 OFFCURVE",
"792 323 OFFCURVE",
"743 385 CURVE",
"752 398 OFFCURVE",
"761 413 OFFCURVE",
"761 429 CURVE SMOOTH {name = hr02;}",
"761 492 OFFCURVE",
"690 538 OFFCURVE",
"658 538 CURVE SMOOTH",
"638 538 OFFCURVE",
"631 526 OFFCURVE",
"631 509 CURVE SMOOTH",
"631 484 OFFCURVE",
"646 449 OFFCURVE",
"663 425 CURVE",
"613 369 OFFCURVE",
"533 337 OFFCURVE",
"456 335 CURVE",
"456 603 LINE SMOOTH",
"456 605 OFFCURVE",
"456 607 OFFCURVE",
"455 609 CURVE",
"924 609 LINE",
"930 610 OFFCURVE",
"933 614 OFFCURVE",
"933 620 CURVE SMOOTH",
"933 641 OFFCURVE",
"898 684 OFFCURVE",
"879 687 CURVE",
"-26 687 LINE",
"-31 684 OFFCURVE",
"-32 680 OFFCURVE",
"-32 675 CURVE SMOOTH",
"-32 652 OFFCURVE",
"4 615 OFFCURVE",
"19 609 CURVE",
"396 609 LINE",
"396 351 LINE",
"333 426 OFFCURVE",
"241 491 OFFCURVE",
"148 491 CURVE SMOOTH",
"125 491 OFFCURVE",
"32 476 OFFCURVE",
"32 444 CURVE SMOOTH",
"32 421 OFFCURVE",
"65 379 OFFCURVE",
"86 379 CURVE SMOOTH",
"86 379 OFFCURVE",
"87 379 OFFCURVE",
"88 379 CURVE SMOOTH",
"121 401 OFFCURVE",
"157 411 OFFCURVE",
"193 411 CURVE SMOOTH",
"259 411 OFFCURVE",
"324 378 OFFCURVE",
"371 328 CURVE",
"278 271 OFFCURVE",
"182 220 OFFCURVE",
"90 162 CURVE SMOOTH",
"86 159 OFFCURVE",
"85 155 OFFCURVE",
"85 150 CURVE SMOOTH",
"85 127 OFFCURVE",
"118 85 OFFCURVE",
"139 85 CURVE SMOOTH {name = hr01;}"
);
}
);
width = 900;
}
);
unicode = 090B;
},
{
glyphname = "rrVocalic-deva";
lastChange = "2021-01-26 18:00:08 +0000";
layers = (
{
anchors = (
{
name = bottom;
position = "{793, 0}";
},
{
name = candra;
position = "{447, 484}";
},
{
name = top;
position = "{793, 484}";
}
);
layerId = "129A270E-4E02-45CC-9025-B4018D2BAD31";
paths = (
{
closed = 1;
nodes = (
"139 85 OFFCURVE",
"140 85 OFFCURVE",
"141 85 CURVE",
"224 137 OFFCURVE",
"311 184 OFFCURVE",
"396 235 CURVE",
"396 33 LINE",
"398 19 OFFCURVE",
"427 -36 OFFCURVE",
"446 -36 CURVE SMOOTH",
"450 -36 OFFCURVE",
"453 -34 OFFCURVE",
"456 -29 CURVE",
"456 264 LINE",
"463 256 OFFCURVE",
"478 258 OFFCURVE",
"489 258 CURVE SMOOTH",
"577 258 OFFCURVE",
"664 288 OFFCURVE",
"723 358 CURVE",
"732 346 OFFCURVE",
"763 298 OFFCURVE",
"763 265 CURVE SMOOTH",
"763 189 OFFCURVE",
"645 181 OFFCURVE",
"645 105 CURVE SMOOTH",
"645 79 OFFCURVE",
"662 39 OFFCURVE",
"682 19 CURVE",
"653 -1 OFFCURVE",
"640 -29 OFFCURVE",
"640 -58 CURVE SMOOTH {name = hr02;}",
"640 -95 OFFCURVE",
"660 -135 OFFCURVE",
"692 -163 CURVE SMOOTH",
"721 -188 OFFCURVE",
"754 -193 OFFCURVE",
"791 -195 CURVE",
"797 -194 OFFCURVE",
"800 -190 OFFCURVE",
"800 -184 CURVE SMOOTH",
"800 -163 OFFCURVE",
"765 -119 OFFCURVE",
"746 -117 CURVE SMOOTH",
"732 -115 OFFCURVE",
"714 -118 OFFCURVE",
"699 -112 CURVE",
"699 -67 OFFCURVE",
"757 -41 OFFCURVE",
"799 -36 CURVE",
"801 -35 LINE SMOOTH",
"806 -34 OFFCURVE",
"808 -30 OFFCURVE",
"808 -25 CURVE SMOOTH",
"808 -5 OFFCURVE",
"777 34 OFFCURVE",
"757 41 CURVE {name = hr03;}",
"757 42 LINE",
"756 42 OFFCURVE",
"755 41 OFFCURVE",
"755 41 CURVE",
"736 41 OFFCURVE",
"721 43 OFFCURVE",
"705 49 CURVE",
"705 108 OFFCURVE",
"823 121 OFFCURVE",
"823 201 CURVE SMOOTH",
"823 266 OFFCURVE",
"787 330 OFFCURVE",
"744 385 CURVE",
"753 398 OFFCURVE",
"762 415 OFFCURVE",
"762 431 CURVE SMOOTH {name = hr04;}",
"762 485 OFFCURVE",
"697 537 OFFCURVE",
"657 537 CURVE SMOOTH",
"634 537 OFFCURVE",
"629 510 OFFCURVE",
"629 497 CURVE SMOOTH",
"629 470 OFFCURVE",
"644 447 OFFCURVE",
"663 426 CURVE",
"616 367 OFFCURVE",
"531 338 OFFCURVE",
"456 336 CURVE",
"456 603 LINE SMOOTH",
"456 605 OFFCURVE",
"456 607 OFFCURVE",
"455 609 CURVE",
"917 609 LINE",
"923 610 OFFCURVE",
"926 614 OFFCURVE",
"926 620 CURVE SMOOTH",
"926 641 OFFCURVE",
"891 684 OFFCURVE",
"872 687 CURVE",
"-26 687 LINE",
"-31 684 OFFCURVE",
"-32 680 OFFCURVE",
"-32 675 CURVE SMOOTH",
"-32 652 OFFCURVE",
"4 615 OFFCURVE",
"19 609 CURVE",
"396 609 LINE",
"396 351 LINE",
"333 426 OFFCURVE",
"241 491 OFFCURVE",
"148 491 CURVE SMOOTH",
"125 491 OFFCURVE",
"32 476 OFFCURVE",
"32 444 CURVE SMOOTH",
"32 421 OFFCURVE",
"65 379 OFFCURVE",
"86 379 CURVE SMOOTH",
"86 379 OFFCURVE",
"87 379 OFFCURVE",
"88 379 CURVE SMOOTH",
"121 401 OFFCURVE",
"157 411 OFFCURVE",
"193 411 CURVE SMOOTH",
"259 411 OFFCURVE",
"324 378 OFFCURVE",
"371 328 CURVE",
"278 271 OFFCURVE",
"182 220 OFFCURVE",
"90 162 CURVE SMOOTH",
"86 159 OFFCURVE",
"85 155 OFFCURVE",
"85 150 CURVE SMOOTH",
"85 127 OFFCURVE",
"118 85 OFFCURVE",
"139 85 CURVE SMOOTH {name = hr01;}"
);
}
);
width = 894;
}
);
unicode = 0960;
},
{
glyphname = "lVocalic-deva";
lastChange = "2021-01-26 18:00:06 +0000";
layers = (
{
anchors = (
{
name = bottom;
position = "{710, 0}";
},
{
name = candra;
position = "{434, 484}";
},
{
name = top;
position = "{710, 484}";
}
);
layerId = "129A270E-4E02-45CC-9025-B4018D2BAD31";
paths = (
{
closed = 1;
nodes = (
"246 -42 OFFCURVE",
"255 -48 OFFCURVE",
"260 -48 CURVE SMOOTH",
"264 -48 OFFCURVE",
"265 -45 OFFCURVE",
"265 -41 CURVE SMOOTH",
"265 -31 OFFCURVE",
"257 -8 OFFCURVE",
"247 5 CURVE SMOOTH",
"195 73 OFFCURVE",
"147 164 OFFCURVE",
"147 254 CURVE SMOOTH",
"147 361 OFFCURVE",
"206 408 OFFCURVE",
"287 408 CURVE SMOOTH",
"301 408 OFFCURVE",
"360 407 OFFCURVE",
"377 378 CURVE SMOOTH",
"385 363 OFFCURVE",
"389 339 OFFCURVE",
"392 312 CURVE",
"391 307 OFFCURVE",
"391 303 OFFCURVE",
"391 298 CURVE SMOOTH",
"391 294 OFFCURVE",
"393 284 OFFCURVE",
"393 276 CURVE SMOOTH",
"393 238 OFFCURVE",
"390 202 OFFCURVE",
"390 191 CURVE",
"392 177 OFFCURVE",
"421 122 OFFCURVE",
"440 122 CURVE SMOOTH",
"455 122 OFFCURVE",
"451 191 OFFCURVE",
"451 216 CURVE SMOOTH",
"451 223 OFFCURVE",
"451 230 OFFCURVE",
"451 238 CURVE SMOOTH",
"455 316 OFFCURVE",
"484 408 OFFCURVE",
"588 408 CURVE SMOOTH",
"619 408 OFFCURVE",
"652 398 OFFCURVE",
"673 373 CURVE",
"681 357 LINE",
"681 329 OFFCURVE",
"681 151 OFFCURVE",
"677 151 CURVE SMOOTH",
"675 151 OFFCURVE",
"673 152 OFFCURVE",
"672 152 CURVE SMOOTH",
"608 152 OFFCURVE",
"541 101 OFFCURVE",
"541 22 CURVE SMOOTH",
"541 -66 OFFCURVE",
"616 -148 OFFCURVE",
"714 -148 CURVE SMOOTH",
"737 -148 OFFCURVE",
"794 -145 OFFCURVE",
"794 -127 CURVE SMOOTH",
"794 -102 OFFCURVE",
"761 -64 OFFCURVE",
"741 -60 CURVE",
"720 -66 OFFCURVE",
"694 -70 OFFCURVE",
"669 -70 CURVE SMOOTH",
"642 -70 OFFCURVE",
"600 -68 OFFCURVE",
"600 -37 CURVE SMOOTH",
"600 35 OFFCURVE",
"662 69 OFFCURVE",
"730 75 CURVE",
"733 76 OFFCURVE",
"737 78 OFFCURVE",
"739 81 CURVE",
"739 595 LINE SMOOTH",
"739 600 OFFCURVE",
"737 604 OFFCURVE",
"736 609 CURVE",
"889 609 LINE",
"895 610 OFFCURVE",
"898 614 OFFCURVE",
"898 620 CURVE SMOOTH",
"898 641 OFFCURVE",
"863 684 OFFCURVE",
"844 687 CURVE",
"-26 687 LINE",
"-31 684 OFFCURVE",
"-32 680 OFFCURVE",
"-32 675 CURVE SMOOTH",
"-32 652 OFFCURVE",
"4 615 OFFCURVE",
"19 609 CURVE",
"679 609 LINE",
"679 544 OFFCURVE",
"681 480 OFFCURVE",
"681 416 CURVE",
"644 459 OFFCURVE",
"598 486 OFFCURVE",
"545 486 CURVE SMOOTH",
"486 486 OFFCURVE",
"433 455 OFFCURVE",
"407 393 CURVE",
"369 449 OFFCURVE",
"308 486 OFFCURVE",
"240 486 CURVE SMOOTH",
"150 486 OFFCURVE",
"89 429 OFFCURVE",
"89 320 CURVE SMOOTH",
"89 192 OFFCURVE",
"152 72 OFFCURVE",
"230 -25 CURVE {name = hr00;}"
);
}
);
width = 868;
}
);
unicode = 090C;
},
{
glyphname = "llVocalic-deva";
lastChange = "2021-01-26 18:00:04 +0000";
layers = (
{
anchors = (
{
name = bottom;
position = "{712, 0}";
},
{
name = candra;
position = "{434, 484}";
},
{
name = top;
position = "{712, 484}";
}
);
layerId = "129A270E-4E02-45CC-9025-B4018D2BAD31";
paths = (
{
closed = 1;
nodes = (
"246 -42 OFFCURVE",
"255 -48 OFFCURVE",
"260 -48 CURVE SMOOTH",
"264 -48 OFFCURVE",
"265 -45 OFFCURVE",
"265 -41 CURVE SMOOTH",
"265 -31 OFFCURVE",
"257 -8 OFFCURVE",
"247 5 CURVE SMOOTH",
"195 73 OFFCURVE",
"147 164 OFFCURVE",
"147 254 CURVE SMOOTH",
"147 361 OFFCURVE",
"206 408 OFFCURVE",
"287 408 CURVE SMOOTH",
"301 408 OFFCURVE",
"360 407 OFFCURVE",
"377 378 CURVE SMOOTH",
"385 363 OFFCURVE",
"389 339 OFFCURVE",
"392 312 CURVE",
"391 307 OFFCURVE",
"391 303 OFFCURVE",
"391 298 CURVE SMOOTH",
"391 294 OFFCURVE",
"393 284 OFFCURVE",
"393 276 CURVE SMOOTH",
"393 238 OFFCURVE",
"390 202 OFFCURVE",
"390 191 CURVE",
"392 177 OFFCURVE",
"421 122 OFFCURVE",
"440 122 CURVE SMOOTH",
"455 122 OFFCURVE",
"451 191 OFFCURVE",
"451 216 CURVE SMOOTH",
"451 223 OFFCURVE",
"451 230 OFFCURVE",
"451 238 CURVE SMOOTH",
"455 316 OFFCURVE",
"484 408 OFFCURVE",
"588 408 CURVE",
"616 407 OFFCURVE",
"658 399 OFFCURVE",
"672 374 CURVE SMOOTH",
"681 358 LINE",
"681 357 OFFCURVE",
"682 356 OFFCURVE",
"682 355 CURVE SMOOTH",
"682 299 OFFCURVE",
"680 251 OFFCURVE",
"678 228 CURVE SMOOTH",
"671 167 OFFCURVE",
"560 160 OFFCURVE",
"560 83 CURVE SMOOTH",
"560 54 OFFCURVE",
"576 23 OFFCURVE",
"597 -1 CURVE",
"568 -21 OFFCURVE",
"556 -49 OFFCURVE",
"556 -78 CURVE SMOOTH {name = hr02;}",
"556 -115 OFFCURVE",
"576 -155 OFFCURVE",
"608 -183 CURVE SMOOTH",
"637 -209 OFFCURVE",
"670 -213 OFFCURVE",
"707 -215 CURVE",
"713 -214 OFFCURVE",
"716 -210 OFFCURVE",
"716 -204 CURVE SMOOTH",
"716 -184 OFFCURVE",
"681 -139 OFFCURVE",
"662 -137 CURVE SMOOTH",
"646 -135 OFFCURVE",
"631 -136 OFFCURVE",
"615 -131 CURVE",
"619 -82 OFFCURVE",
"675 -60 OFFCURVE",
"715 -56 CURVE",
"717 -55 LINE SMOOTH",
"722 -54 OFFCURVE",
"724 -50 OFFCURVE",
"724 -45 CURVE SMOOTH",
"724 -25 OFFCURVE",
"693 14 OFFCURVE",
"673 21 CURVE {name = hr03;}",
"673 22 LINE",
"672 22 OFFCURVE",
"671 21 OFFCURVE",
"671 21 CURVE",
"652 21 OFFCURVE",
"637 23 OFFCURVE",
"621 29 CURVE",
"621 84 OFFCURVE",
"727 97 OFFCURVE",
"738 165 CURVE SMOOTH",
"741 185 OFFCURVE",
"741 242 OFFCURVE",
"741 307 CURVE SMOOTH",
"741 419 OFFCURVE",
"739 559 OFFCURVE",
"739 595 CURVE SMOOTH",
"739 600 OFFCURVE",
"737 604 OFFCURVE",
"736 609 CURVE",
"889 609 LINE",
"895 610 OFFCURVE",
"898 614 OFFCURVE",
"898 620 CURVE SMOOTH",
"898 641 OFFCURVE",
"863 684 OFFCURVE",
"844 687 CURVE",
"-26 687 LINE",
"-31 684 OFFCURVE",
"-32 680 OFFCURVE",
"-32 675 CURVE SMOOTH",
"-32 652 OFFCURVE",
"4 615 OFFCURVE",
"19 609 CURVE",
"679 609 LINE",
"682 415 LINE",
"645 458 OFFCURVE",
"599 486 OFFCURVE",
"545 486 CURVE SMOOTH",
"486 486 OFFCURVE",
"433 455 OFFCURVE",
"407 393 CURVE",
"369 449 OFFCURVE",
"308 486 OFFCURVE",
"240 486 CURVE SMOOTH",
"150 486 OFFCURVE",
"89 429 OFFCURVE",
"89 320 CURVE SMOOTH",
"89 192 OFFCURVE",
"152 72 OFFCURVE",
"230 -25 CURVE {name = hr01;}"
);
}
);
width = 868;
}
);
unicode = 0961;
},
{
glyphname = "e-deva";
lastChange = "2021-01-26 18:00:00 +0000";
layers = (
{
anchors = (
{
name = bottom;
position = "{536, 0}";
},
{
name = candra;
position = "{346, 484}";
},
{
name = top;
position = "{536, 484}";
}
);
layerId = "129A270E-4E02-45CC-9025-B4018D2BAD31";
paths = (
{
closed = 1;
nodes = (
"196 72 OFFCURVE",
"194 110 OFFCURVE",
"194 145 CURVE SMOOTH",
"194 300 OFFCURVE",
"193 454 OFFCURVE",
"193 609 CURVE",
"506 609 LINE",
"506 515 OFFCURVE",
"506 421 OFFCURVE",
"506 327 CURVE SMOOTH",
"506 233 OFFCURVE",
"472 188 OFFCURVE",
"387 156 CURVE",
"383 153 OFFCURVE",
"382 149 OFFCURVE",
"382 144 CURVE SMOOTH",
"382 121 OFFCURVE",
"415 79 OFFCURVE",
"436 79 CURVE SMOOTH",
"436 79 OFFCURVE",
"437 79 OFFCURVE",
"438 79 CURVE SMOOTH",
"530 113 OFFCURVE",
"565 165 OFFCURVE",
"566 265 CURVE",
"566 603 LINE SMOOTH",
"566 605 OFFCURVE",
"566 607 OFFCURVE",
"565 609 CURVE",
"712 609 LINE",
"718 610 OFFCURVE",
"721 614 OFFCURVE",
"721 620 CURVE SMOOTH",
"721 641 OFFCURVE",
"686 684 OFFCURVE",
"667 687 CURVE",
"-26 687 LINE",
"-31 684 OFFCURVE",
"-32 680 OFFCURVE",
"-32 675 CURVE SMOOTH",
"-32 652 OFFCURVE",
"4 615 OFFCURVE",
"19 609 CURVE",
"134 609 LINE",
"134 207 LINE SMOOTH",
"134 16 OFFCURVE",
"233 -43 OFFCURVE",
"384 -126 CURVE SMOOTH",
"427 -150 OFFCURVE",
"470 -179 OFFCURVE",
"517 -192 CURVE",
"524 -191 OFFCURVE",
"527 -187 OFFCURVE",
"527 -181 CURVE SMOOTH",
"527 -161 OFFCURVE",
"489 -121 OFFCURVE",
"479 -115 CURVE",
"435 -102 OFFCURVE",
"394 -74 OFFCURVE",
"354 -52 CURVE SMOOTH",
"320 -34 OFFCURVE",
"227 10 OFFCURVE",
"212 40 CURVE SMOOTH {name = hr00;}"
);
}
);
width = 691;
}
);
unicode = 090F;
},
{
glyphname = "oe-deva";
lastChange = "2021-01-26 17:27:36 +0000";
layers = (
{
layerId = "129A270E-4E02-45CC-9025-B4018D2BAD31";
paths = (
{
closed = 1;
nodes = (
"122 10 OFFCURVE",
"211 -25 OFFCURVE",
"284 -25 CURVE SMOOTH",
"376 -25 OFFCURVE",
"491 35 OFFCURVE",
"491 147 CURVE SMOOTH {name = hr02;}",
"491 187 OFFCURVE",
"477 230 OFFCURVE",
"455 266 CURVE",
"496 253 OFFCURVE",
"539 243 OFFCURVE",
"581 243 CURVE SMOOTH",
"624 243 OFFCURVE",
"666 253 OFFCURVE",
"702 279 CURVE",
"702 33 LINE",
"704 19 OFFCURVE",
"733 -36 OFFCURVE",
"752 -36 CURVE SMOOTH",
"756 -36 OFFCURVE",
"759 -34 OFFCURVE",
"762 -29 CURVE",
"762 609 LINE",
"910 609 LINE",
"916 610 OFFCURVE",
"919 614 OFFCURVE",
"919 620 CURVE SMOOTH",
"919 641 OFFCURVE",
"884 684 OFFCURVE",
"865 687 CURVE",
"762 687 LINE",
"762 853 LINE",
"761 881 OFFCURVE",
"729 924 OFFCURVE",
"711 924 CURVE SMOOTH",
"707 924 OFFCURVE",
"703 922 OFFCURVE",
"702 915 CURVE",
"702 687 LINE",
"538 687 LINE",
"533 684 OFFCURVE",
"532 680 OFFCURVE",
"532 675 CURVE SMOOTH",
"532 652 OFFCURVE",
"568 615 OFFCURVE",
"583 609 CURVE",
"702 609 LINE",
"702 422 LINE",
"665 348 OFFCURVE",
"604 321 OFFCURVE",
"537 321 CURVE SMOOTH {name = hr03;}",
"488 321 OFFCURVE",
"437 335 OFFCURVE",
"391 353 CURVE",
"448 389 OFFCURVE",
"473 440 OFFCURVE",
"473 490 CURVE SMOOTH",
"473 598 OFFCURVE",
"378 696 OFFCURVE",
"252 696 CURVE SMOOTH",
"242 696 OFFCURVE",
"117 694 OFFCURVE",
"86 633 CURVE",
"86 632 OFFCURVE",
"86 631 OFFCURVE",
"86 629 CURVE SMOOTH",
"86 606 OFFCURVE",
"118 558 OFFCURVE",
"136 558 CURVE SMOOTH",
"148 558 OFFCURVE",
"175 590 OFFCURVE",
"192 598 CURVE SMOOTH",
"219 610 OFFCURVE",
"261 619 OFFCURVE",
"302 619 CURVE SMOOTH",
"360 619 OFFCURVE",
"414 604 OFFCURVE",
"414 545 CURVE SMOOTH",
"414 463 OFFCURVE",
"316 402 OFFCURVE",
"240 389 CURVE SMOOTH {name = hr04;}",
"222 386 LINE SMOOTH",
"219 386 OFFCURVE",
"216 387 OFFCURVE",
"214 387 CURVE",
"213 386 LINE",
"203 385 OFFCURVE",
"192 385 OFFCURVE",
"182 385 CURVE SMOOTH",
"170 385 OFFCURVE",
"158 385 OFFCURVE",
"146 385 CURVE SMOOTH",
"135 385 OFFCURVE",
"123 387 OFFCURVE",
"123 373 CURVE SMOOTH",
"123 350 OFFCURVE",
"159 313 OFFCURVE",
"174 307 CURVE",
"202 308 OFFCURVE",
"230 307 OFFCURVE",
"257 309 CURVE SMOOTH",
"259 309 LINE SMOOTH",
"314 305 OFFCURVE",
"372 303 OFFCURVE",
"415 265 CURVE SMOOTH {name = hr05;}",
"429 253 OFFCURVE",
"430 227 OFFCURVE",
"430 211 CURVE SMOOTH",
"430 115 OFFCURVE",
"336 53 OFFCURVE",
"245 53 CURVE SMOOTH",
"207 53 OFFCURVE",
"169 63 OFFCURVE",
"134 81 CURVE SMOOTH",
"122 87 OFFCURVE",
"114 97 OFFCURVE",
"103 104 CURVE",
"102 104 LINE",
"96 108 OFFCURVE",
"91 110 OFFCURVE",
"87 110 CURVE SMOOTH",
"83 110 OFFCURVE",
"81 107 OFFCURVE",
"81 102 CURVE SMOOTH",
"81 96 OFFCURVE",
"83 89 OFFCURVE",
"88 79 CURVE SMOOTH {name = hr01;}"
);
},
{
closed = 1;
nodes = (
"112 96 LINE",
"112 96 OFFCURVE",
"112 95 OFFCURVE",
"112 95 CURVE",
"112 95 OFFCURVE",
"109 97 OFFCURVE",
"107 100 CURVE {name = hr07;}"
);
}
);
width = 889;
}
);
unicode = 0973;
},
{
glyphname = "ooe-deva";
lastChange = "2021-01-26 17:27:36 +0000";
layers = (
{
layerId = "129A270E-4E02-45CC-9025-B4018D2BAD31";
paths = (
{
closed = 1;
nodes = (
"122 10 OFFCURVE",
"211 -25 OFFCURVE",
"284 -25 CURVE SMOOTH",
"376 -25 OFFCURVE",
"491 35 OFFCURVE",
"491 147 CURVE SMOOTH {name = hr02;}",
"491 187 OFFCURVE",
"477 230 OFFCURVE",
"455 266 CURVE",
"496 253 OFFCURVE",
"539 243 OFFCURVE",
"581 243 CURVE SMOOTH",
"624 243 OFFCURVE",
"666 253 OFFCURVE",
"702 279 CURVE",
"702 33 LINE",
"704 19 OFFCURVE",
"733 -36 OFFCURVE",
"752 -36 CURVE SMOOTH",
"756 -36 OFFCURVE",
"759 -34 OFFCURVE",
"762 -29 CURVE",
"762 603 LINE SMOOTH",
"762 605 OFFCURVE",
"762 607 OFFCURVE",
"761 609 CURVE",
"992 609 LINE",
"992 33 LINE",
"994 19 OFFCURVE",
"1023 -36 OFFCURVE",
"1042 -36 CURVE SMOOTH",
"1046 -36 OFFCURVE",
"1049 -34 OFFCURVE",
"1052 -29 CURVE",
"1052 609 LINE",
"1205 609 LINE",
"1211 610 OFFCURVE",
"1214 614 OFFCURVE",
"1214 620 CURVE SMOOTH",
"1214 641 OFFCURVE",
"1179 684 OFFCURVE",
"1160 687 CURVE",
"1052 687 LINE",
"1052 854 LINE",
"1051 882 OFFCURVE",
"1019 925 OFFCURVE",
"1001 925 CURVE SMOOTH",
"997 925 OFFCURVE",
"993 923 OFFCURVE",
"992 916 CURVE",
"992 687 LINE",
"545 687 LINE",
"540 684 OFFCURVE",
"539 680 OFFCURVE",
"539 675 CURVE SMOOTH",
"539 652 OFFCURVE",
"575 615 OFFCURVE",
"590 609 CURVE",
"702 609 LINE",
"702 422 LINE",
"665 348 OFFCURVE",
"604 321 OFFCURVE",
"537 321 CURVE SMOOTH {name = hr03;}",
"488 321 OFFCURVE",
"437 335 OFFCURVE",
"391 353 CURVE",
"448 389 OFFCURVE",
"473 440 OFFCURVE",
"473 490 CURVE SMOOTH",
"473 598 OFFCURVE",
"378 696 OFFCURVE",
"252 696 CURVE SMOOTH",
"242 696 OFFCURVE",
"117 694 OFFCURVE",
"86 633 CURVE",
"86 632 OFFCURVE",
"86 631 OFFCURVE",
"86 629 CURVE SMOOTH",
"86 606 OFFCURVE",
"118 558 OFFCURVE",
"136 558 CURVE SMOOTH",
"148 558 OFFCURVE",
"175 590 OFFCURVE",
"192 598 CURVE SMOOTH",
"219 610 OFFCURVE",
"261 619 OFFCURVE",
"302 619 CURVE SMOOTH",
"360 619 OFFCURVE",
"414 604 OFFCURVE",
"414 545 CURVE SMOOTH",
"414 463 OFFCURVE",
"316 402 OFFCURVE",
"240 389 CURVE SMOOTH {name = hr04;}",
"222 386 LINE SMOOTH",
"219 386 OFFCURVE",
"216 387 OFFCURVE",
"214 387 CURVE",
"213 386 LINE",
"203 385 OFFCURVE",
"192 385 OFFCURVE",
"182 385 CURVE SMOOTH",
"170 385 OFFCURVE",
"158 385 OFFCURVE",
"146 385 CURVE SMOOTH",
"135 385 OFFCURVE",
"123 387 OFFCURVE",
"123 373 CURVE SMOOTH",
"123 350 OFFCURVE",
"159 313 OFFCURVE",
"174 307 CURVE",
"202 308 OFFCURVE",
"230 307 OFFCURVE",
"257 309 CURVE SMOOTH",
"259 309 LINE SMOOTH",
"314 305 OFFCURVE",
"372 303 OFFCURVE",
"415 265 CURVE SMOOTH {name = hr05;}",
"429 253 OFFCURVE",
"430 227 OFFCURVE",
"430 211 CURVE SMOOTH",
"430 115 OFFCURVE",
"336 53 OFFCURVE",
"245 53 CURVE SMOOTH",
"207 53 OFFCURVE",
"169 63 OFFCURVE",
"134 81 CURVE SMOOTH",
"122 87 OFFCURVE",
"114 97 OFFCURVE",
"103 104 CURVE",
"102 104 LINE",
"96 108 OFFCURVE",
"91 110 OFFCURVE",
"87 110 CURVE SMOOTH",
"83 110 OFFCURVE",
"81 107 OFFCURVE",
"81 102 CURVE SMOOTH",
"81 96 OFFCURVE",
"83 89 OFFCURVE",
"88 79 CURVE SMOOTH {name = hr01;}"
);
},
{
closed = 1;
nodes = (
"112 96 LINE",
"112 96 OFFCURVE",
"112 95 OFFCURVE",
"112 95 CURVE",
"112 95 OFFCURVE",
"109 97 OFFCURVE",
"107 100 CURVE {name = hr07;}"
);
}
);
width = 1179;
}
);
unicode = 0974;
},
{
glyphname = "aw-deva";
lastChange = "2021-01-26 17:27:36 +0000";
layers = (
{
components = (
{
name = "aa-deva";
}
);
layerId = "129A270E-4E02-45CC-9025-B4018D2BAD31";
paths = (
{
closed = 1;
nodes = (
"849 728 OFFCURVE",
"915 748 OFFCURVE",
"975 723 CURVE SMOOTH",
"979 721 OFFCURVE",
"983 720 OFFCURVE",
"987 717 CURVE",
"991 699 LINE SMOOTH",
"996 677 OFFCURVE",
"1006 657 OFFCURVE",
"1023 641 CURVE",
"1025 641 OFFCURVE",
"1035 630 OFFCURVE",
"1041 630 CURVE SMOOTH",
"1045 630 OFFCURVE",
"1048 632 OFFCURVE",
"1051 637 CURVE",
"1048 728 OFFCURVE",
"1048 833 OFFCURVE",
"968 894 CURVE SMOOTH",
"945 911 OFFCURVE",
"917 914 OFFCURVE",
"890 920 CURVE SMOOTH",
"851 928 OFFCURVE",
"811 937 OFFCURVE",
"777 956 CURVE",
"768 974 OFFCURVE",
"748 996 OFFCURVE",
"736 996 CURVE SMOOTH",
"731 996 OFFCURVE",
"728 992 OFFCURVE",
"728 985 CURVE SMOOTH",
"728 982 OFFCURVE",
"728 980 OFFCURVE",
"729 977 CURVE SMOOTH",
"762 869 OFFCURVE",
"877 860 OFFCURVE",
"969 835 CURVE",
"979 830 LINE",
"985 809 OFFCURVE",
"987 779 OFFCURVE",
"989 769 CURVE",
"947 802 OFFCURVE",
"888 815 OFFCURVE",
"821 817 CURVE SMOOTH",
"782 818 OFFCURVE",
"743 815 OFFCURVE",
"706 838 CURVE",
"701 856 LINE SMOOTH",
"694 879 OFFCURVE",
"671 918 OFFCURVE",
"651 918 CURVE SMOOTH",
"646 918 OFFCURVE",
"643 914 OFFCURVE",
"643 907 CURVE SMOOTH",
"643 904 OFFCURVE",
"643 902 OFFCURVE",
"644 899 CURVE SMOOTH",
"660 824 OFFCURVE",
"711 763 OFFCURVE",
"787 744 CURVE SMOOTH {name = hr00;}"
);
},
{
closed = 1;
nodes = (
"970 846 OFFCURVE",
"969 847 OFFCURVE",
"969 847 CURVE",
"969 847 OFFCURVE",
"970 846 OFFCURVE",
"971 845 CURVE",
"971 844 LINE"
);
}
);
width = 1179;
}
);
unicode = 0975;
},
{
glyphname = "aaMatra-deva";
lastChange = "2021-01-26 17:59:46 +0000";
layers = (
{
anchors = (
{
name = bottom;
position = "{156, 0}";
},
{
name = candra;
position = "{160, 484}";
},
{
name = top;
position = "{156, 484}";
}
);
layerId = "129A270E-4E02-45CC-9025-B4018D2BAD31";
paths = (
{
closed = 1;
nodes = (
"128 19 OFFCURVE",
"157 -36 OFFCURVE",
"176 -36 CURVE SMOOTH",
"180 -36 OFFCURVE",
"183 -34 OFFCURVE",
"186 -29 CURVE",
"186 609 LINE",
"339 609 LINE",
"345 610 OFFCURVE",
"348 614 OFFCURVE",
"348 620 CURVE SMOOTH",
"348 641 OFFCURVE",
"313 684 OFFCURVE",
"294 687 CURVE",
"-24 687 LINE",
"-29 684 OFFCURVE",
"-30 680 OFFCURVE",
"-30 675 CURVE SMOOTH",
"-30 652 OFFCURVE",
"6 615 OFFCURVE",
"21 609 CURVE",
"126 609 LINE",
"126 33 LINE {name = hr00;}"
);
}
);
width = 320;
}
);
unicode = 093E;
},
{
glyphname = "iMatra-deva";
lastChange = "2021-01-26 17:59:44 +0000";
layers = (
{
anchors = (
{
name = candra;
position = "{160, 484}";
},
{
name = imatra;
position = "{741, 484}";
}
);
layerId = "129A270E-4E02-45CC-9025-B4018D2BAD31";
paths = (
{
closed = 1;
nodes = (
"129 19 OFFCURVE",
"158 -36 OFFCURVE",
"177 -36 CURVE SMOOTH",
"181 -36 OFFCURVE",
"184 -34 OFFCURVE",
"187 -29 CURVE",
"187 603 LINE SMOOTH",
"187 605 OFFCURVE",
"187 607 OFFCURVE",
"186 609 CURVE",
"343 609 LINE",
"349 610 OFFCURVE",
"352 614 OFFCURVE",
"352 620 CURVE SMOOTH",
"352 641 OFFCURVE",
"317 684 OFFCURVE",
"298 687 CURVE",
"159 687 LINE {name = hr02;}",
"152 705 OFFCURVE",
"149 721 OFFCURVE",
"149 737 CURVE SMOOTH",
"149 820 OFFCURVE",
"230 871 OFFCURVE",
"339 871 CURVE SMOOTH",
"483 871 OFFCURVE",
"623 794 OFFCURVE",
"745 726 CURVE SMOOTH",
"748 724 OFFCURVE",
"751 724 OFFCURVE",
"754 724 CURVE SMOOTH",
"759 724 OFFCURVE",
"761 728 OFFCURVE",
"761 733 CURVE SMOOTH",
"761 756 OFFCURVE",
"736 788 OFFCURVE",
"715 800 CURVE SMOOTH",
"587 873 OFFCURVE",
"442 949 OFFCURVE",
"291 949 CURVE SMOOTH",
"146 949 OFFCURVE",
"90 870 OFFCURVE",
"90 798 CURVE SMOOTH",
"90 762 OFFCURVE",
"102 724 OFFCURVE",
"119 687 CURVE",
"-26 687 LINE",
"-31 684 OFFCURVE",
"-32 680 OFFCURVE",
"-32 675 CURVE SMOOTH",
"-32 652 OFFCURVE",
"4 615 OFFCURVE",
"19 609 CURVE",
"127 609 LINE {name = hr03;}",
"127 33 LINE {name = hr01;}"
);
}
);
width = 320;
}
);
unicode = 093F;
},
{
glyphname = "iiMatra-deva";
lastChange = "2021-01-26 17:59:42 +0000";
layers = (
{
anchors = (
{
name = candra;
position = "{160, 484}";
},
{
name = iimatra;
position = "{-172, 484}";
},
{
name = top;
position = "{157, 484}";
}
);
layerId = "129A270E-4E02-45CC-9025-B4018D2BAD31";
paths = (
{
closed = 1;
nodes = (
"129 19 OFFCURVE",
"158 -36 OFFCURVE",
"177 -36 CURVE SMOOTH",
"181 -36 OFFCURVE",
"184 -34 OFFCURVE",
"187 -29 CURVE",
"187 603 LINE SMOOTH",
"187 605 OFFCURVE",
"187 607 OFFCURVE",
"186 609 CURVE",
"343 609 LINE",
"349 610 OFFCURVE",
"352 614 OFFCURVE",
"352 620 CURVE SMOOTH",
"352 641 OFFCURVE",
"317 684 OFFCURVE",
"298 687 CURVE",
"167 687 LINE",
"124 814 OFFCURVE",
"35 948 OFFCURVE",
"-101 948 CURVE SMOOTH",
"-160 948 OFFCURVE",
"-212 910 OFFCURVE",
"-212 846 CURVE SMOOTH",
"-212 825 OFFCURVE",
"-208 805 OFFCURVE",
"-203 785 CURVE",
"-199 776 OFFCURVE",
"-167 725 OFFCURVE",
"-153 725 CURVE SMOOTH",
"-148 725 OFFCURVE",
"-146 730 OFFCURVE",
"-146 742 CURVE",
"-149 757 OFFCURVE",
"-152 772 OFFCURVE",
"-152 786 CURVE SMOOTH",
"-152 847 OFFCURVE",
"-103 870 OFFCURVE",
"-53 870 CURVE SMOOTH",
"61 870 OFFCURVE",
"102 770 OFFCURVE",
"124 687 CURVE",
"-26 687 LINE",
"-31 684 OFFCURVE",
"-32 680 OFFCURVE",
"-32 675 CURVE SMOOTH",
"-32 652 OFFCURVE",
"4 615 OFFCURVE",
"19 609 CURVE",
"127 609 LINE",
"127 33 LINE {name = hr00;}"
);
}
);
width = 320;
}
);
unicode = 0940;
},
{
glyphname = "prishthaMatraE-deva";
lastChange = "2021-01-26 17:27:36 +0000";
layers = (
{
layerId = "129A270E-4E02-45CC-9025-B4018D2BAD31";
paths = (
{
closed = 1;
nodes = (
"128 19 OFFCURVE",
"157 -36 OFFCURVE",
"176 -36 CURVE SMOOTH",
"180 -36 OFFCURVE",
"183 -34 OFFCURVE",
"186 -29 CURVE",
"186 609 LINE",
"339 609 LINE",
"345 610 OFFCURVE",
"348 614 OFFCURVE",
"348 620 CURVE SMOOTH",
"348 641 OFFCURVE",
"313 684 OFFCURVE",
"294 687 CURVE",
"127 687 LINE",
"122 684 OFFCURVE",
"120 679 OFFCURVE",
"120 674 CURVE SMOOTH",
"120 668 OFFCURVE",
"122 662 OFFCURVE",
"126 656 CURVE",
"126 33 LINE {name = hr00;}"
);
}
);
width = 316;
}
);
unicode = 094E;
},
{
glyphname = "ooeMatra-deva";
lastChange = "2021-01-26 17:27:36 +0000";
layers = (
{
layerId = "129A270E-4E02-45CC-9025-B4018D2BAD31";
paths = (
{
closed = 1;
nodes = (
"128 19 OFFCURVE",
"157 -36 OFFCURVE",
"176 -36 CURVE SMOOTH",
"180 -36 OFFCURVE",
"183 -34 OFFCURVE",
"186 -29 CURVE {name = hr01;}",
"186 609 LINE",
"339 609 LINE",
"345 610 OFFCURVE",
"348 614 OFFCURVE",
"348 620 CURVE SMOOTH",
"348 641 OFFCURVE",
"313 684 OFFCURVE",
"294 687 CURVE {name = hr02;}",
"186 687 LINE",
"186 836 LINE",
"185 864 OFFCURVE",
"153 907 OFFCURVE",
"135 907 CURVE SMOOTH",
"131 907 OFFCURVE",
"127 905 OFFCURVE",
"126 898 CURVE {name = hr03;}",
"126 687 LINE",
"-24 687 LINE",
"-29 684 OFFCURVE",
"-30 680 OFFCURVE",
"-30 675 CURVE SMOOTH",
"-30 652 OFFCURVE",
"6 615 OFFCURVE",
"21 609 CURVE {name = hr04;}",
"126 609 LINE",
"126 33 LINE"
);
}
);
width = 320;
}
);
unicode = 093B;
},
{
glyphname = "awMatra-deva";
lastChange = "2021-01-26 17:59:32 +0000";
layers = (
{
anchors = (
{
name = top;
position = "{156, 484}";
}
);
components = (
{
name = "aaMatra-deva";
}
);
layerId = "129A270E-4E02-45CC-9025-B4018D2BAD31";
paths = (
{
closed = 1;
nodes = (
"182 630 OFFCURVE",
"185 632 OFFCURVE",
"188 637 CURVE",
"185 728 OFFCURVE",
"185 832 OFFCURVE",
"105 894 CURVE",
"58 927 OFFCURVE",
"-22 923 OFFCURVE",
"-86 956 CURVE",
"-95 973 OFFCURVE",
"-113 996 OFFCURVE",
"-127 996 CURVE SMOOTH",
"-132 996 OFFCURVE",
"-135 992 OFFCURVE",
"-135 985 CURVE SMOOTH",
"-135 982 OFFCURVE",
"-135 980 OFFCURVE",
"-134 977 CURVE SMOOTH",
"-101 869 OFFCURVE",
"14 860 OFFCURVE",
"106 835 CURVE",
"116 830 LINE",
"122 809 OFFCURVE",
"124 779 OFFCURVE",
"126 769 CURVE",
"84 802 OFFCURVE",
"25 815 OFFCURVE",
"-42 817 CURVE SMOOTH",
"-76 818 OFFCURVE",
"-153 812 OFFCURVE",
"-162 856 CURVE",
"-169 879 OFFCURVE",
"-191 918 OFFCURVE",
"-212 918 CURVE SMOOTH",
"-217 918 OFFCURVE",
"-220 914 OFFCURVE",
"-220 907 CURVE SMOOTH",
"-220 904 OFFCURVE",
"-220 902 OFFCURVE",
"-219 899 CURVE SMOOTH",
"-203 824 OFFCURVE",
"-152 763 OFFCURVE",
"-76 744 CURVE SMOOTH",
"-14 728 OFFCURVE",
"52 748 OFFCURVE",
"112 723 CURVE SMOOTH",
"116 721 OFFCURVE",
"120 720 OFFCURVE",
"124 717 CURVE",
"128 699 LINE SMOOTH",
"133 677 OFFCURVE",
"143 657 OFFCURVE",
"160 641 CURVE",
"161 641 OFFCURVE",
"163 638 OFFCURVE",
"163 638 CURVE",
"168 633 OFFCURVE",
"174 630 OFFCURVE",
"178 630 CURVE SMOOTH {name = hr00;}"
);
},
{
closed = 1;
nodes = (
"107 846 OFFCURVE",
"106 847 OFFCURVE",
"106 847 CURVE",
"106 847 OFFCURVE",
"107 846 OFFCURVE",
"108 845 CURVE",
"108 844 LINE"
);
}
);
width = 320;
}
);
unicode = 094F;
},
{
glyphname = "ka-deva";
lastChange = "2021-01-26 17:59:29 +0000";
layers = (
{
anchors = (
{
name = bottom;
position = "{833, 0}";
},
{
name = candra;
position = "{462, 484}";
},
{
name = nukta;
position = "{903, 0}";
},
{
name = top;
position = "{833, 484}";
}
);
layerId = "129A270E-4E02-45CC-9025-B4018D2BAD31";
paths = (
{
closed = 1;
nodes = (
"187 116 OFFCURVE",
"246 89 OFFCURVE",
"313 89 CURVE SMOOTH",
"374 89 OFFCURVE",
"413 113 OFFCURVE",
"442 149 CURVE",
"442 33 LINE",
"444 19 OFFCURVE",
"473 -36 OFFCURVE",
"492 -36 CURVE SMOOTH",
"496 -36 OFFCURVE",
"499 -34 OFFCURVE",
"502 -29 CURVE",
"502 264 LINE",
"537 347 OFFCURVE",
"573 428 OFFCURVE",
"682 428 CURVE SMOOTH",
"720 428 OFFCURVE",
"761 422 OFFCURVE",
"791 396 CURVE SMOOTH",
"805 383 OFFCURVE",
"803 342 OFFCURVE",
"803 335 CURVE SMOOTH",
"803 291 OFFCURVE",
"789 249 OFFCURVE",
"759 215 CURVE SMOOTH",
"725 176 OFFCURVE",
"679 167 OFFCURVE",
"630 162 CURVE",
"625 159 OFFCURVE",
"624 155 OFFCURVE",
"624 150 CURVE SMOOTH",
"624 127 OFFCURVE",
"660 90 OFFCURVE",
"675 84 CURVE",
"709 87 OFFCURVE",
"741 90 OFFCURVE",
"772 107 CURVE SMOOTH",
"835 142 OFFCURVE",
"862 207 OFFCURVE",
"862 273 CURVE SMOOTH",
"862 390 OFFCURVE",
"776 507 OFFCURVE",
"643 507 CURVE SMOOTH",
"584 507 OFFCURVE",
"537 482 OFFCURVE",
"502 442 CURVE",
"502 603 LINE SMOOTH",
"502 605 OFFCURVE",
"502 607 OFFCURVE",
"501 609 CURVE",
"948 609 LINE",
"954 610 OFFCURVE",
"957 614 OFFCURVE",
"957 620 CURVE SMOOTH",
"957 641 OFFCURVE",
"922 684 OFFCURVE",
"903 687 CURVE",
"-24 687 LINE",
"-29 684 OFFCURVE",
"-30 680 OFFCURVE",
"-30 675 CURVE SMOOTH",
"-30 652 OFFCURVE",
"6 615 OFFCURVE",
"21 609 CURVE",
"442 609 LINE",
"442 418 LINE",
"394 473 OFFCURVE",
"341 507 OFFCURVE",
"265 507 CURVE SMOOTH",
"171 507 OFFCURVE",
"81 451 OFFCURVE",
"81 330 CURVE SMOOTH",
"81 266 OFFCURVE",
"109 211 OFFCURVE",
"147 166 CURVE {name = hr00;}"
);
},
{
closed = 1;
nodes = (
"148 211 OFFCURVE",
"140 237 OFFCURVE",
"140 265 CURVE SMOOTH",
"140 377 OFFCURVE",
"225 430 OFFCURVE",
"309 430 CURVE SMOOTH",
"361 430 OFFCURVE",
"412 408 OFFCURVE",
"442 364 CURVE",
"442 332 LINE",
"410 241 OFFCURVE",
"361 166 OFFCURVE",
"258 166 CURVE SMOOTH",
"225 166 OFFCURVE",
"192 175 OFFCURVE",
"166 196 CURVE SMOOTH"
);
}
);
width = 923;
}
);
unicode = 0915;
},
{
glyphname = "kha-deva";
lastChange = "2021-01-26 17:59:26 +0000";
layers = (
{
anchors = (
{
name = bottom;
position = "{758, 0}";
},
{
name = candra;
position = "{459, 484}";
},
{
name = nukta;
position = "{897, 0}";
},
{
name = top;
position = "{758, 484}";
}
);
layerId = "129A270E-4E02-45CC-9025-B4018D2BAD31";
paths = (
{
closed = 1;
nodes = (
"174 93 OFFCURVE",
"322 -29 OFFCURVE",
"466 -29 CURVE SMOOTH",
"563 -29 OFFCURVE",
"666 26 OFFCURVE",
"728 99 CURVE",
"728 33 LINE",
"730 19 OFFCURVE",
"759 -36 OFFCURVE",
"778 -36 CURVE SMOOTH",
"782 -36 OFFCURVE",
"785 -34 OFFCURVE",
"788 -29 CURVE",
"788 603 LINE SMOOTH",
"788 605 OFFCURVE",
"788 607 OFFCURVE",
"787 609 CURVE",
"938 609 LINE",
"944 610 OFFCURVE",
"947 614 OFFCURVE",
"947 620 CURVE SMOOTH",
"947 641 OFFCURVE",
"912 684 OFFCURVE",
"893 687 CURVE",
"-24 687 LINE",
"-29 684 OFFCURVE",
"-30 680 OFFCURVE",
"-30 675 CURVE SMOOTH",
"-30 652 OFFCURVE",
"6 615 OFFCURVE",
"21 609 CURVE",
"244 609 LINE",
"269 580 OFFCURVE",
"283 536 OFFCURVE",
"283 499 CURVE SMOOTH",
"283 436 OFFCURVE",
"246 380 OFFCURVE",
"177 348 CURVE",
"170 373 OFFCURVE",
"150 401 OFFCURVE",
"126 405 CURVE",
"123 403 LINE",
"120 408 LINE",
"120 402 LINE",
"92 388 OFFCURVE",
"46 363 OFFCURVE",
"46 330 CURVE SMOOTH",
"46 276 OFFCURVE",
"99 253 OFFCURVE",
"130 251 CURVE",
"131 242 OFFCURVE",
"133 234 OFFCURVE",
"136 226 CURVE {name = hr00;}"
);
},
{
closed = 1;
nodes = (
"187 194 OFFCURVE",
"182 224 OFFCURVE",
"180 255 CURVE",
"295 279 OFFCURVE",
"343 366 OFFCURVE",
"343 440 CURVE SMOOTH",
"343 497 OFFCURVE",
"320 557 OFFCURVE",
"285 609 CURVE",
"728 609 LINE",
"728 453 LINE",
"690 500 OFFCURVE",
"637 528 OFFCURVE",
"579 528 CURVE SMOOTH",
"494 528 OFFCURVE",
"419 467 OFFCURVE",
"419 371 CURVE SMOOTH",
"419 266 OFFCURVE",
"501 154 OFFCURVE",
"615 154 CURVE SMOOTH",
"630 154 OFFCURVE",
"645 156 OFFCURVE",
"660 159 CURVE",
"600 92 OFFCURVE",
"513 53 OFFCURVE",
"417 53 CURVE SMOOTH",
"331 53 OFFCURVE",
"246 86 OFFCURVE",
"203 165 CURVE SMOOTH"
);
},
{
closed = 1;
nodes = (
"478 313 OFFCURVE",
"479 324 OFFCURVE",
"481 336 CURVE SMOOTH",
"492 409 OFFCURVE",
"557 448 OFFCURVE",
"625 448 CURVE SMOOTH",
"648 448 OFFCURVE",
"692 444 OFFCURVE",
"713 420 CURVE SMOOTH",
"723 408 OFFCURVE",
"725 391 OFFCURVE",
"728 377 CURVE",
"727 357 LINE",
"710 285 OFFCURVE",
"667 234 OFFCURVE",
"571 234 CURVE SMOOTH",
"502 234 OFFCURVE",
"478 259 OFFCURVE",
"478 303 CURVE SMOOTH"
);
}
);
width = 917;
}
);
unicode = 0916;
},
{
glyphname = "ga-deva";
lastChange = "2021-01-26 17:59:22 +0000";
layers = (
{
anchors = (
{
name = bottom;
position = "{473, 0}";
},
{
name = candra;
position = "{316, 484}";
},
{
name = nukta;
position = "{612, 0}";
},
{
name = top;
position = "{473, 484}";
}
);
layerId = "129A270E-4E02-45CC-9025-B4018D2BAD31";
paths = (
{
closed = 1;
nodes = (
"176 162 OFFCURVE",
"183 165 OFFCURVE",
"189 171 CURVE SMOOTH",
"197 179 OFFCURVE",
"198 193 OFFCURVE",
"198 207 CURVE SMOOTH",
"198 215 OFFCURVE",
"198 223 OFFCURVE",
"198 229 CURVE SMOOTH",
"198 602 LINE SMOOTH",
"198 604 OFFCURVE",
"198 606 OFFCURVE",
"197 609 CURVE",
"443 609 LINE",
"443 33 LINE",
"445 19 OFFCURVE",
"474 -36 OFFCURVE",
"493 -36 CURVE SMOOTH",
"497 -36 OFFCURVE",
"500 -34 OFFCURVE",
"503 -29 CURVE",
"503 603 LINE SMOOTH",
"503 605 OFFCURVE",
"503 607 OFFCURVE",
"502 609 CURVE",
"654 609 LINE",
"660 610 OFFCURVE",
"663 614 OFFCURVE",
"663 620 CURVE SMOOTH",
"663 641 OFFCURVE",
"628 684 OFFCURVE",
"609 687 CURVE",
"-26 687 LINE",
"-31 684 OFFCURVE",
"-32 680 OFFCURVE",
"-32 675 CURVE SMOOTH",
"-32 652 OFFCURVE",
"4 615 OFFCURVE",
"19 609 CURVE",
"138 609 LINE",
"138 315 LINE",
"129 315 OFFCURVE",
"114 317 OFFCURVE",
"100 317 CURVE SMOOTH",
"78 317 OFFCURVE",
"58 314 OFFCURVE",
"58 295 CURVE SMOOTH",
"58 281 OFFCURVE",
"66 261 OFFCURVE",
"69 254 CURVE SMOOTH",
"79 231 OFFCURVE",
"130 162 OFFCURVE",
"169 162 CURVE SMOOTH {name = hr00;}"
);
}
);
width = 632;
}
);
unicode = 0917;
},
{
glyphname = "gha-deva";
lastChange = "2021-01-26 17:59:17 +0000";
layers = (
{
anchors = (
{
name = bottom;
position = "{548, 0}";
},
{
name = candra;
position = "{352, 484}";
},
{
name = nukta;
position = "{684, 0}";
},
{
name = top;
position = "{548, 484}";
}
);
layerId = "129A270E-4E02-45CC-9025-B4018D2BAD31";
paths = (
{
closed = 1;
nodes = (
"205 95 OFFCURVE",
"250 82 OFFCURVE",
"304 82 CURVE SMOOTH",
"395 82 OFFCURVE",
"465 112 OFFCURVE",
"518 188 CURVE",
"518 33 LINE",
"520 19 OFFCURVE",
"549 -36 OFFCURVE",
"568 -36 CURVE SMOOTH",
"572 -36 OFFCURVE",
"575 -34 OFFCURVE",
"578 -29 CURVE",
"578 609 LINE",
"726 609 LINE",
"732 610 OFFCURVE",
"735 614 OFFCURVE",
"735 620 CURVE SMOOTH",
"735 641 OFFCURVE",
"700 684 OFFCURVE",
"681 687 CURVE",
"-26 687 LINE",
"-31 684 OFFCURVE",
"-32 680 OFFCURVE",
"-32 675 CURVE SMOOTH",
"-32 652 OFFCURVE",
"4 615 OFFCURVE",
"19 609 CURVE {name = hr02;}",
"103 609 LINE",
"99 595 OFFCURVE",
"97 580 OFFCURVE",
"97 565 CURVE SMOOTH",
"97 509 OFFCURVE",
"125 453 OFFCURVE",
"157 422 CURVE",
"107 393 OFFCURVE",
"85 344 OFFCURVE",
"85 292 CURVE SMOOTH {name = hr03;}",
"85 235 OFFCURVE",
"111 176 OFFCURVE",
"157 136 CURVE SMOOTH {name = hr01;}"
);
},
{
closed = 1;
nodes = (
"147 199 OFFCURVE",
"143 219 OFFCURVE",
"143 230 CURVE SMOOTH",
"143 333 OFFCURVE",
"236 364 OFFCURVE",
"301 365 CURVE SMOOTH",
"308 365 LINE",
"364 365 LINE",
"370 366 OFFCURVE",
"373 370 OFFCURVE",
"373 376 CURVE SMOOTH",
"373 397 OFFCURVE",
"338 440 OFFCURVE",
"319 443 CURVE",
"301 443 OFFCURVE",
"280 444 OFFCURVE",
"258 444 CURVE SMOOTH",
"252 444 OFFCURVE",
"246 444 OFFCURVE",
"241 444 CURVE SMOOTH {name = hr04;}",
"216 445 OFFCURVE",
"177 452 OFFCURVE",
"161 471 CURVE",
"160 471 LINE",
"160 481 OFFCURVE",
"156 492 OFFCURVE",
"156 503 CURVE SMOOTH",
"156 560 OFFCURVE",
"190 605 OFFCURVE",
"246 609 CURVE",
"518 609 LINE",
"518 380 LINE",
"517 379 OFFCURVE",
"516 379 OFFCURVE",
"516 379 CURVE",
"482 264 OFFCURVE",
"405 158 OFFCURVE",
"263 158 CURVE SMOOTH",
"224 158 OFFCURVE",
"177 166 OFFCURVE",
"149 195 CURVE"
);
}
);
width = 704;
}
);
unicode = 0918;
},
{
glyphname = "nga-deva";
lastChange = "2021-01-26 17:27:36 +0000";
layers = (
{
components = (
{
name = "nukta-deva";
transform = "{1, 0, 0, 1, 469, 486}";
}
);
layerId = "129A270E-4E02-45CC-9025-B4018D2BAD31";
paths = (
{
closed = 1;
nodes = (
"112 9 OFFCURVE",
"213 -28 OFFCURVE",
"303 -28 CURVE SMOOTH",
"389 -28 OFFCURVE",
"481 9 OFFCURVE",
"481 117 CURVE SMOOTH {name = hr02;}",
"481 161 OFFCURVE",
"461 204 OFFCURVE",
"434 238 CURVE SMOOTH",
"371 317 OFFCURVE",
"284 311 OFFCURVE",
"191 311 CURVE SMOOTH",
"171 311 OFFCURVE",
"135 318 OFFCURVE",
"123 331 CURVE",
"123 332 LINE",
"122 336 OFFCURVE",
"122 340 OFFCURVE",
"122 344 CURVE SMOOTH",
"122 410 OFFCURVE",
"172 437 OFFCURVE",
"223 437 CURVE SMOOTH",
"413 437 LINE {name = hr03;}",
"416 438 OFFCURVE",
"420 440 OFFCURVE",
"422 443 CURVE",
"422 609 LINE",
"662 609 LINE",
"668 610 OFFCURVE",
"671 614 OFFCURVE",
"671 620 CURVE SMOOTH",
"671 641 OFFCURVE",
"636 684 OFFCURVE",
"617 687 CURVE",
"-23 687 LINE",
"-28 684 OFFCURVE",
"-29 680 OFFCURVE",
"-29 675 CURVE SMOOTH",
"-29 652 OFFCURVE",
"7 615 OFFCURVE",
"22 609 CURVE",
"362 609 LINE",
"362 515 LINE",
"178 515 LINE SMOOTH",
"100 515 OFFCURVE",
"64 464 OFFCURVE",
"64 408 CURVE SMOOTH",
"64 373 OFFCURVE",
"78 335 OFFCURVE",
"103 303 CURVE SMOOTH",
"163 227 OFFCURVE",
"229 233 OFFCURVE",
"322 233 CURVE SMOOTH {name = hr04;}",
"353 233 OFFCURVE",
"393 230 OFFCURVE",
"417 206 CURVE",
"420 198 OFFCURVE",
"421 181 OFFCURVE",
"421 173 CURVE SMOOTH",
"419 85 OFFCURVE",
"330 49 OFFCURVE",
"248 49 CURVE SMOOTH",
"188 49 OFFCURVE",
"129 67 OFFCURVE",
"81 97 CURVE SMOOTH",
"67 105 OFFCURVE",
"56 114 OFFCURVE",
"48 114 CURVE SMOOTH",
"44 114 OFFCURVE",
"42 111 OFFCURVE",
"42 106 CURVE SMOOTH",
"42 91 OFFCURVE",
"59 64 OFFCURVE",
"75 47 CURVE SMOOTH {name = hr01;}"
);
}
);
width = 600;
}
);
unicode = 0919;
},
{
glyphname = "ca-deva";
lastChange = "2021-01-26 17:27:36 +0000";
layers = (
{
layerId = "129A270E-4E02-45CC-9025-B4018D2BAD31";
paths = (
{
closed = 1;
nodes = (
"223 200 OFFCURVE",
"219 217 OFFCURVE",
"219 234 CURVE SMOOTH",
"219 291 OFFCURVE",
"266 346 OFFCURVE",
"316 368 CURVE SMOOTH",
"355 385 OFFCURVE",
"392 386 OFFCURVE",
"434 389 CURVE SMOOTH",
"440 390 OFFCURVE",
"443 394 OFFCURVE",
"443 400 CURVE SMOOTH",
"443 421 OFFCURVE",
"408 464 OFFCURVE",
"389 467 CURVE SMOOTH",
"386 467 OFFCURVE",
"383 466 OFFCURVE",
"381 466 CURVE SMOOTH",
"380 466 OFFCURVE",
"379 467 OFFCURVE",
"379 467 CURVE",
"25 467 LINE",
"20 464 OFFCURVE",
"19 460 OFFCURVE",
"19 455 CURVE SMOOTH",
"19 432 OFFCURVE",
"55 395 OFFCURVE",
"70 389 CURVE",
"190 389 LINE",
"169 362 OFFCURVE",
"160 330 OFFCURVE",
"160 297 CURVE SMOOTH",
"160 187 OFFCURVE",
"265 65 OFFCURVE",
"386 65 CURVE SMOOTH",
"429 65 OFFCURVE",
"474 81 OFFCURVE",
"518 118 CURVE",
"518 13 LINE",
"520 -1 OFFCURVE",
"549 -56 OFFCURVE",
"568 -56 CURVE SMOOTH",
"572 -56 OFFCURVE",
"575 -54 OFFCURVE",
"578 -49 CURVE",
"578 603 LINE SMOOTH",
"578 605 OFFCURVE",
"578 607 OFFCURVE",
"577 609 CURVE",
"731 609 LINE",
"737 610 OFFCURVE",
"740 614 OFFCURVE",
"740 620 CURVE SMOOTH",
"740 641 OFFCURVE",
"705 684 OFFCURVE",
"686 687 CURVE",
"-23 687 LINE",
"-28 684 OFFCURVE",
"-29 680 OFFCURVE",
"-29 675 CURVE SMOOTH",
"-29 652 OFFCURVE",
"7 615 OFFCURVE",
"22 609 CURVE",
"518 609 LINE",
"518 251 LINE",
"515 251 OFFCURVE",
"513 250 OFFCURVE",
"511 249 CURVE",
"472 191 OFFCURVE",
"417 145 OFFCURVE",
"341 145 CURVE SMOOTH",
"307 145 OFFCURVE",
"244 160 OFFCURVE",
"232 184 CURVE SMOOTH {name = hr00;}"
);
}
);
width = 709;
}
);
unicode = 091A;
},
{
glyphname = "cha-deva";
lastChange = "2021-01-26 17:27:36 +0000";
layers = (
{
layerId = "129A270E-4E02-45CC-9025-B4018D2BAD31";
paths = (
{
closed = 1;
nodes = (
"236 -6 OFFCURVE",
"292 -18 OFFCURVE",
"354 -18 CURVE SMOOTH",
"547 -18 OFFCURVE",
"750 147 OFFCURVE",
"750 356 CURVE SMOOTH",
"750 424 OFFCURVE",
"717 504 OFFCURVE",
"651 544 CURVE",
"651 604 LINE",
"651 605 OFFCURVE",
"650 607 OFFCURVE",
"650 609 CURVE",
"836 609 LINE",
"842 610 OFFCURVE",
"845 614 OFFCURVE",
"845 620 CURVE SMOOTH",
"845 641 OFFCURVE",
"810 684 OFFCURVE",
"791 687 CURVE",
"-22 687 LINE",
"-27 684 OFFCURVE",
"-28 680 OFFCURVE",
"-28 675 CURVE SMOOTH",
"-28 652 OFFCURVE",
"8 615 OFFCURVE",
"23 609 CURVE {name = hr02;}",
"108 609 LINE",
"101 591 OFFCURVE",
"97 572 OFFCURVE",
"97 552 CURVE SMOOTH",
"97 486 OFFCURVE",
"135 416 OFFCURVE",
"186 369 CURVE",
"115 333 OFFCURVE",
"81 274 OFFCURVE",
"81 211 CURVE SMOOTH {name = hr03;}",
"81 139 OFFCURVE",
"123 65 OFFCURVE",
"186 26 CURVE SMOOTH {name = hr01;}"
);
},
{
closed = 1;
nodes = (
"146 108 OFFCURVE",
"138 129 OFFCURVE",
"138 152 CURVE SMOOTH",
"138 180 OFFCURVE",
"149 209 OFFCURVE",
"163 229 CURVE SMOOTH",
"212 300 OFFCURVE",
"280 315 OFFCURVE",
"362 315 CURVE SMOOTH",
"366 315 OFFCURVE",
"371 319 OFFCURVE",
"371 323 CURVE SMOOTH",
"371 331 LINE",
"369 335 LINE",
"369 337 OFFCURVE",
"367 341 OFFCURVE",
"366 343 CURVE SMOOTH",
"363 349 LINE",
"363 350 OFFCURVE",
"362 350 OFFCURVE",
"362 351 CURVE",
"348 370 LINE SMOOTH",
"339 382 OFFCURVE",
"323 392 OFFCURVE",
"317 393 CURVE",
"271 393 LINE",
"222 397 OFFCURVE",
"154 421 OFFCURVE",
"154 484 CURVE SMOOTH {name = hr04;}",
"154 533 OFFCURVE",
"195 588 OFFCURVE",
"233 608 CURVE",
"591 609 LINE",
"591 570 LINE SMOOTH",
"591 568 OFFCURVE",
"592 565 OFFCURVE",
"593 562 CURVE",
"590 562 OFFCURVE",
"588 562 OFFCURVE",
"585 562 CURVE SMOOTH",
"518 562 OFFCURVE",
"469 503 OFFCURVE",
"469 432 CURVE SMOOTH",
"469 329 OFFCURVE",
"547 264 OFFCURVE",
"624 230 CURVE",
"619 223 LINE SMOOTH",
"544 122 OFFCURVE",
"434 60 OFFCURVE",
"309 60 CURVE SMOOTH",
"260 60 OFFCURVE",
"206 67 OFFCURVE",
"164 95 CURVE SMOOTH"
);
},
{
closed = 1;
nodes = (
"531 351 OFFCURVE",
"529 363 OFFCURVE",
"529 375 CURVE SMOOTH",
"529 426 OFFCURVE",
"566 484 OFFCURVE",
"628 484 CURVE SMOOTH",
"646 484 OFFCURVE",
"673 479 OFFCURVE",
"684 466 CURVE",
"689 445 LINE",
"690 436 OFFCURVE",
"691 427 OFFCURVE",
"691 419 CURVE SMOOTH",
"691 376 OFFCURVE",
"675 322 OFFCURVE",
"654 279 CURVE",
"645 287 LINE",
"607 298 OFFCURVE",
"561 308 OFFCURVE",
"534 339 CURVE {name = hr06;}"
);
}
);
width = 815;
}
);
unicode = 091B;
},
{
glyphname = "ja-deva";
lastChange = "2021-01-26 17:27:36 +0000";
layers = (
{
layerId = "129A270E-4E02-45CC-9025-B4018D2BAD31";
paths = (
{
closed = 1;
nodes = (
"572 609 LINE",
"572 463 LINE",
"562 467 LINE",
"94 467 LINE",
"89 464 OFFCURVE",
"88 460 OFFCURVE",
"88 455 CURVE SMOOTH",
"88 432 OFFCURVE",
"124 395 OFFCURVE",
"139 389 CURVE",
"183 387 OFFCURVE",
"214 387 OFFCURVE",
"257 379 CURVE SMOOTH",
"299 371 OFFCURVE",
"360 356 OFFCURVE",
"360 300 CURVE SMOOTH",
"360 201 OFFCURVE",
"272 141 OFFCURVE",
"175 141 CURVE SMOOTH",
"124 141 OFFCURVE",
"74 157 OFFCURVE",
"33 186 CURVE SMOOTH",
"28 189 OFFCURVE",
"23 191 OFFCURVE",
"19 191 CURVE SMOOTH",
"14 191 OFFCURVE",
"11 188 OFFCURVE",
"11 181 CURVE SMOOTH",
"11 114 OFFCURVE",
"141 62 OFFCURVE",
"224 62 CURVE SMOOTH",
"322 62 OFFCURVE",
"419 127 OFFCURVE",
"419 232 CURVE SMOOTH",
"419 289 OFFCURVE",
"393 347 OFFCURVE",
"352 389 CURVE",
"572 389 LINE",
"572 33 LINE",
"574 19 OFFCURVE",
"603 -36 OFFCURVE",
"622 -36 CURVE SMOOTH",
"626 -36 OFFCURVE",
"629 -34 OFFCURVE",
"632 -29 CURVE",
"632 603 LINE SMOOTH",
"632 605 OFFCURVE",
"632 607 OFFCURVE",
"631 609 CURVE",
"785 609 LINE",
"791 610 OFFCURVE",
"794 614 OFFCURVE",
"794 620 CURVE SMOOTH",
"794 641 OFFCURVE",
"759 684 OFFCURVE",
"740 687 CURVE",
"-23 687 LINE",
"-28 684 OFFCURVE",
"-29 680 OFFCURVE",
"-29 675 CURVE SMOOTH",
"-29 652 OFFCURVE",
"7 615 OFFCURVE",
"22 609 CURVE {name = hr00;}"
);
}
);
width = 764;
}
);
unicode = 091C;
},
{
glyphname = "jha-deva";
lastChange = "2021-01-26 17:27:36 +0000";
layers = (
{
layerId = "129A270E-4E02-45CC-9025-B4018D2BAD31";
paths = (
{
closed = 1;
nodes = (
"62 72 OFFCURVE",
"117 13 OFFCURVE",
"147 -3 CURVE",
"161 -10 LINE",
"179 -38 OFFCURVE",
"206 -66 OFFCURVE",
"220 -85 CURVE SMOOTH",
"249 -125 OFFCURVE",
"295 -191 OFFCURVE",
"312 -191 CURVE SMOOTH",
"316 -191 OFFCURVE",
"317 -188 OFFCURVE",
"317 -184 CURVE SMOOTH",
"318 -151 OFFCURVE",
"266 -95 OFFCURVE",
"237 -55 CURVE SMOOTH",
"214 -24 LINE",
"233 -27 OFFCURVE",
"253 -29 OFFCURVE",
"273 -29 CURVE SMOOTH",
"379 -29 OFFCURVE",
"485 13 OFFCURVE",
"485 119 CURVE SMOOTH {name = hr02;}",
"485 142 OFFCURVE",
"480 166 OFFCURVE",
"471 188 CURVE",
"671 188 LINE",
"671 33 LINE",
"673 19 OFFCURVE",
"702 -36 OFFCURVE",
"721 -36 CURVE SMOOTH",
"725 -36 OFFCURVE",
"728 -34 OFFCURVE",
"731 -29 CURVE",
"731 609 LINE",
"878 609 LINE",
"884 610 OFFCURVE",
"887 614 OFFCURVE",
"887 620 CURVE SMOOTH",
"887 641 OFFCURVE",
"852 684 OFFCURVE",
"833 687 CURVE",
"-22 687 LINE",
"-27 684 OFFCURVE",
"-28 680 OFFCURVE",
"-28 675 CURVE SMOOTH",
"-28 652 OFFCURVE",
"8 615 OFFCURVE",
"23 609 CURVE",
"368 609 LINE {name = hr03;}",
"368 520 LINE",
"189 520 LINE SMOOTH",
"101 520 OFFCURVE",
"63 460 OFFCURVE",
"63 415 CURVE SMOOTH",
"63 368 OFFCURVE",
"92 316 OFFCURVE",
"128 281 CURVE SMOOTH",
"181 229 OFFCURVE",
"243 236 OFFCURVE",
"314 236 CURVE SMOOTH",
"347 236 OFFCURVE",
"394 234 OFFCURVE",
"421 211 CURVE {name = hr04;}",
"424 199 OFFCURVE",
"426 188 OFFCURVE",
"426 177 CURVE SMOOTH",
"426 80 OFFCURVE",
"315 50 OFFCURVE",
"228 50 CURVE SMOOTH",
"211 50 OFFCURVE",
"194 51 OFFCURVE",
"177 54 CURVE",
"161 91 OFFCURVE",
"125 149 OFFCURVE",
"87 149 CURVE SMOOTH",
"71 149 OFFCURVE",
"62 134 OFFCURVE",
"62 117 CURVE SMOOTH {name = hr01;}"
);
},
{
closed = 1;
nodes = (
"147 322 OFFCURVE",
"133 327 OFFCURVE",
"126 334 CURVE SMOOTH",
"123 338 LINE SMOOTH",
"121 340 OFFCURVE",
"121 346 OFFCURVE",
"121 350 CURVE SMOOTH",
"121 407 OFFCURVE",
"183 442 OFFCURVE",
"234 442 CURVE SMOOTH",
"419 442 LINE",
"422 443 OFFCURVE",
"426 445 OFFCURVE",
"428 448 CURVE",
"428 609 LINE",
"671 609 LINE",
"671 266 LINE",
"418 266 LINE",
"376 305 OFFCURVE",
"322 314 OFFCURVE",
"269 314 CURVE SMOOTH",
"258 314 OFFCURVE",
"235 312 OFFCURVE",
"212 312 CURVE SMOOTH",
"191 312 OFFCURVE",
"169 314 OFFCURVE",
"154 319 CURVE SMOOTH {name = hr06;}"
);
},
{
closed = 1;
nodes = (
"126 68 OFFCURVE",
"127 69 OFFCURVE",
"129 70 CURVE",
"129 68 OFFCURVE",
"130 66 OFFCURVE",
"131 64 CURVE",
"125 66 LINE"
);
}
);
width = 858;
}
);
unicode = 091D;
},
{
glyphname = "nya-deva";
lastChange = "2021-01-26 17:27:36 +0000";
layers = (
{
layerId = "129A270E-4E02-45CC-9025-B4018D2BAD31";
paths = (
{
closed = 1;
nodes = (
"784 609 LINE",
"814 614 OFFCURVE",
"764 683 OFFCURVE",
"739 687 CURVE",
"-25 687 LINE",
"-49 671 OFFCURVE",
"2 616 OFFCURVE",
"20 609 CURVE {name = hr00;}"
);
},
{
closed = 1;
nodes = (
"573 33 LINE",
"576 17 OFFCURVE",
"616 -58 OFFCURVE",
"633 -29 CURVE",
"633 603 LINE",
"632 625 OFFCURVE",
"619 644 OFFCURVE",
"604 660 CURVE SMOOTH",
"596 669 OFFCURVE",
"577 685 OFFCURVE",
"573 665 CURVE"
);
},
{
closed = 1;
nodes = (
"365 315 LINE",
"341 299 OFFCURVE",
"392 244 OFFCURVE",
"410 237 CURVE",
"613 237 LINE",
"643 242 OFFCURVE",
"593 311 OFFCURVE",
"568 315 CURVE"
);
},
{
closed = 1;
nodes = (
"134 410 OFFCURVE",
"190 412 OFFCURVE",
"207 413 CURVE SMOOTH",
"248 415 OFFCURVE",
"313 414 OFFCURVE",
"341 377 CURVE SMOOTH",
"355 359 OFFCURVE",
"356 329 OFFCURVE",
"356 307 CURVE SMOOTH",
"356 235 OFFCURVE",
"318 171 OFFCURVE",
"247 150 CURVE SMOOTH",
"206 138 OFFCURVE",
"161 141 OFFCURVE",
"119 146 CURVE SMOOTH",
"100 148 OFFCURVE",
"82 154 OFFCURVE",
"64 161 CURVE SMOOTH",
"53 165 OFFCURVE",
"52 165 OFFCURVE",
"44 171 CURVE SMOOTH",
"42 172 OFFCURVE",
"38 176 OFFCURVE",
"39 174 CURVE SMOOTH",
"42 171 OFFCURVE",
"51 163 OFFCURVE",
"48 166 CURVE SMOOTH",
"23 189 OFFCURVE",
"7 184 OFFCURVE",
"24 149 CURVE SMOOTH",
"31 135 OFFCURVE",
"40 124 OFFCURVE",
"50 113 CURVE",
"86 78 OFFCURVE",
"147 68 OFFCURVE",
"194 65 CURVE SMOOTH",
"238 62 OFFCURVE",
"283 64 OFFCURVE",
"324 83 CURVE SMOOTH",
"388 113 OFFCURVE",
"419 185 OFFCURVE",
"415 254 CURVE SMOOTH",
"408 383 OFFCURVE",
"321 490 OFFCURVE",
"186 492 CURVE",
"160 493 OFFCURVE",
"85 491 OFFCURVE",
"65 471 CURVE",
"61 448 OFFCURVE",
"94 392 OFFCURVE",
"121 397 CURVE"
);
}
);
width = 760;
}
);
unicode = 091E;
},
